<svg width="208" height="187" viewBox="0 0 208 187" fill="none" xmlns="http://www.w3.org/2000/svg">
<rect x="1.5" y="3" width="174" height="174" rx="87" fill="#969B9E"/>
<path d="M74.8062 115.482L103.924 101.232L89.6742 72.115L60.5567 86.3644L74.8062 115.482Z" fill="white" stroke="#FFD000" stroke-linecap="round" stroke-linejoin="round"/>
<path d="M47.0068 186.187L76.1243 171.938L61.8748 142.82L32.7573 157.07L47.0068 186.187Z" fill="white" stroke="#3C474C" stroke-linecap="round" stroke-linejoin="round"/>
<path d="M74.8869 91.4354L84.7231 98.9714L97.3918 64.0001" stroke="#263238" stroke-width="2" stroke-linecap="round" stroke-linejoin="round"/>
<path d="M47.0842 162.14L56.9204 169.677L69.5891 134.705" stroke="#FFD000" stroke-width="2" stroke-linecap="round" stroke-linejoin="round"/>
<path d="M118.58 55.6599L149.394 40.5801L134.314 9.76596L103.5 24.8458L118.58 55.6599Z" fill="white" stroke="#3C474C" stroke-linecap="round" stroke-linejoin="round"/>
<path d="M118.662 30.2142L129.072 38.1894L142.478 1.18028" stroke="#FFD000" stroke-width="2" stroke-linecap="round" stroke-linejoin="round"/>
<path d="M141.642 147.446L178.715 129.304L160.572 92.2313L123.5 110.374L141.642 147.446Z" fill="white" stroke="#3C474C" stroke-linecap="round" stroke-linejoin="round"/>
<path d="M12.4476 94.1625L36.8615 82.2148L24.9139 57.801L0.49999 69.7486L12.4476 94.1625Z" fill="white" stroke="#3C474C" stroke-linecap="round" stroke-linejoin="round"/>
<path d="M142.606 118.931L155.13 128.526L171.26 84.0003" stroke="#FFD000" stroke-width="2" stroke-linecap="round" stroke-linejoin="round"/>
<path d="M12.5125 74.0032L20.7598 80.3219L31.382 50.9997" stroke="#FFD000" stroke-width="2" stroke-linecap="round" stroke-linejoin="round"/>
<path d="M193.951 18.5341L193.462 18.9249L193.951 19.3156C195.101 20.2339 196.117 21.7897 196.846 23.8046C197.572 25.8126 198 28.243 198 30.8685C198 32.0633 197.911 33.2183 197.746 34.3121C195.728 34.4358 193.66 34.5 191.554 34.5C189.41 34.5 187.306 34.4334 185.253 34.3053C185.088 33.2136 185 32.0608 185 30.8685C185 28.243 185.428 25.8126 186.154 23.8046C186.883 21.7897 187.899 20.2339 189.049 19.3156L189.538 18.9249L189.049 18.5341C187.899 17.6158 186.883 16.06 186.154 14.0452C185.428 12.0371 185 9.60672 185 6.98122C185 5.84404 185.08 4.74278 185.231 3.69611C187.29 3.56704 189.402 3.5 191.554 3.5C193.668 3.5 195.743 3.56469 197.768 3.68931C197.919 4.73801 198 5.84157 198 6.98122C198 9.60672 197.572 12.0371 196.846 14.0452C196.117 16.06 195.101 17.6158 193.951 18.5341Z" stroke="#FFD000"/>
<path d="M198.5 30.8683C198.5 32.2335 198.387 33.5495 198.176 34.7856C196.022 34.9265 193.81 34.9998 191.554 34.9998C189.261 34.9998 187.012 34.924 184.822 34.7783C184.613 33.5443 184.5 32.2308 184.5 30.8683C184.85 27.5294 198.876 38.796 198.5 30.8683Z" fill="#FFD000"/>
<path d="M196.94 13.7775C196.217 15.8905 195.181 17.5295 193.999 18.4946C193.988 18.4918 193.976 18.4889 193.964 18.4861C193.424 18.3579 192.578 18.2598 191.787 18.6728C191.631 18.548 191.447 18.4951 191.317 18.4692C190.927 18.3919 190.398 18.4416 189.967 18.4946C189.784 18.5172 189.616 18.5406 189.463 18.5618C189.345 18.5783 189.237 18.5934 189.139 18.6056L189.049 18.5336C187.87 17.5926 186.834 15.9831 186.103 13.9015C186.504 13.6978 186.857 13.6443 187.184 13.6674C187.616 13.6978 188.044 13.8639 188.534 14.098C188.651 14.1538 188.772 14.2144 188.897 14.2771C189.729 14.6936 190.747 15.2035 191.954 15.0155C192.679 15.2617 193.314 15.1361 193.857 14.8632C194.31 14.636 194.721 14.2914 195.062 14.0057C195.129 13.9499 195.193 13.8963 195.254 13.8462C195.676 13.5011 195.95 13.3325 196.184 13.3158C196.33 13.3053 196.574 13.3527 196.94 13.7775Z" fill="#FFD000" stroke="#FFD000"/>
</svg>
