<svg width="178" height="174" viewBox="0 0 178 174" fill="none" xmlns="http://www.w3.org/2000/svg">
<rect x="0.5" width="174" height="174" rx="87" fill="#969B9E"/>
<path d="M132.322 20.5879H43.2741C42.9834 21.4156 37.0447 109.144 87.7984 110.799C138.551 109.144 132.613 21.4156 132.322 20.5879Z" fill="#FF9A6C"/>
<path d="M136.447 23.065H39.0712C36.0156 23.065 33.5386 20.5881 33.5386 17.5325C33.5386 14.4769 36.0156 12 39.0712 12H136.447C139.503 12 141.98 14.4769 141.98 17.5325C141.98 20.5879 139.503 23.065 136.447 23.065Z" fill="#FF9A6C"/>
<path d="M59.9306 95.7423C43.8479 91.283 33.0252 78.8714 28.6332 59.8511C25.3935 45.8209 26.79 33.2542 26.8512 32.726L27.1662 30.0049H50.0039V36.2008H32.4563C32.2432 40.4838 32.1832 49.2678 34.3493 58.5412C38.2774 75.3589 47.3816 85.8585 61.4103 89.7483L59.9306 95.7423Z" fill="#FF9A6C"/>
<path d="M115.472 95.7423L113.992 89.7483C128.069 85.8452 137.186 75.2906 141.091 58.3778C143.226 49.1325 143.163 40.4489 142.948 36.2008H125.399V30.0049H148.236L148.551 32.726C148.612 33.2542 150.009 45.8209 146.769 59.8511C142.377 78.8714 131.554 91.2827 115.472 95.7423Z" fill="#FF9A6C"/>
<path d="M99.6462 115.145C97.6181 104.273 96.8334 96.7936 96.7203 91.6484H84.8725C84.7594 96.7936 83.9748 104.273 81.9467 115.145C75.3302 150.615 51.6076 152.539 51.6076 152.539V162.581H129.985V152.539C129.985 152.539 106.263 150.615 99.6462 115.145Z" fill="#FF9A6C"/>
<path d="M137.499 23.3177C137.499 23.664 115.302 23.9445 87.9276 23.9445C60.5434 23.9445 38.3517 23.664 38.3517 23.3177C38.3517 22.972 60.5434 22.6914 87.9276 22.6914C115.302 22.6914 137.499 22.972 137.499 23.3177Z" fill="#263238"/>
<path d="M129.985 152.539C129.985 152.885 112.438 153.165 90.7983 153.165C69.1509 153.165 51.6076 152.885 51.6076 152.539C51.6076 152.193 69.1509 151.912 90.7983 151.912C112.438 151.912 129.985 152.193 129.985 152.539Z" fill="#263238"/>
<path d="M124.841 80.5073C124.882 80.5205 124.807 80.8588 124.623 81.4933C124.429 82.1232 124.176 83.0686 123.736 84.2445C122.84 86.586 121.381 89.9522 118.859 93.7018C116.321 97.4051 112.751 101.592 107.732 104.91C102.795 108.283 96.3942 110.753 89.4418 111.091C82.4685 111.436 75.8905 109.497 70.6607 106.601C65.4003 103.694 61.3773 99.948 58.6242 96.3712C55.8525 92.7973 54.1933 89.4996 53.3177 87.1437C52.8172 85.9892 52.6205 85.0205 52.4151 84.3949C52.2365 83.7587 52.1634 83.4202 52.2048 83.4077C52.518 83.2489 53.6834 88.912 59.3145 95.8158C62.0929 99.2434 66.0757 102.819 71.2112 105.586C76.3202 108.343 82.6742 110.171 89.379 109.839C96.0831 109.512 102.265 107.17 107.093 103.949C111.998 100.783 115.549 96.7646 118.131 93.1967C123.217 85.9019 124.549 80.3737 124.841 80.5073Z" fill="#263238"/>
<g opacity="0.3">
<path d="M82.769 110.525L81.9466 115.145C81.9466 115.145 91.1247 118.57 99.5942 114.865L98.5605 109.123L82.769 110.525Z" fill="#263238"/>
</g>
<g opacity="0.3">
<path d="M91.2959 41.4379L94.7818 48.5012C95.1042 49.1545 95.7274 49.6074 96.4483 49.712L104.243 50.8446C106.059 51.1086 106.784 53.3393 105.47 54.6199L99.8295 60.118C99.3078 60.6264 99.0698 61.3591 99.1927 62.0771L100.524 69.8404C100.834 71.6484 98.9368 73.0274 97.3131 72.1737L90.3412 68.5084C89.6963 68.1693 88.9261 68.1693 88.2812 68.5084L81.3094 72.1737C79.6854 73.0274 77.7877 71.6484 78.0978 69.8404L79.4294 62.0771C79.5526 61.3591 79.3144 60.6264 78.7928 60.118L73.1524 54.6199C71.8389 53.3393 72.5636 51.1086 74.3791 50.8446L82.1739 49.712C82.8948 49.6074 83.518 49.1545 83.8404 48.5012L87.3265 41.4379C88.1383 39.7928 90.4841 39.7928 91.2959 41.4379Z" fill="white"/>
</g>
</svg>
