<svg width="227" height="175" viewBox="0 0 227 175" fill="none" xmlns="http://www.w3.org/2000/svg">
<rect x="19.5" y="1" width="174" height="174" rx="87" fill="#FFF2CB"/>
<mask id="path-2-inside-1_1727_48267" fill="white">
<path d="M225.367 88.0557C220.825 92.745 57.895 168.338 49.3312 167.018C45.3685 166.406 23.2476 129.935 0.648682 91.0841L106.459 41.5596L117.386 62.2732C117.386 62.2732 196.371 63.2039 205.795 65.7036C215.219 68.2034 229.883 83.3542 225.367 88.0557Z"/>
<path d="M225.362 88.0553C220.821 92.7446 57.8905 168.337 49.3267 167.017C46.0853 166.514 30.5204 141.737 12.3884 111.287L117.258 62.2115C117.258 62.2115 196.243 63.1422 205.668 65.6419C215.092 68.1417 229.879 83.3538 225.362 88.0553Z"/>
<path d="M219.154 82.1511C191.426 94.1121 81.1328 145.101 54.925 159.183C54.7045 159.295 54.8157 159.462 55.0726 159.256C82.9478 148.119 192.617 96.0964 219.404 82.6374C219.964 82.3326 219.72 81.9051 219.154 82.1511Z"/>
<path d="M191.804 64.2686C188.723 65.5956 186.034 67.5893 183.908 70.1241C181.782 72.6589 180.264 75.6798 179.449 78.9968C177.936 84.9499 178.872 91.5642 182.061 97.457C182.208 97.5306 182.46 97.489 182.382 97.3114C180.072 91.086 179.762 84.5338 181.498 78.6423C183.234 72.7508 186.923 67.8393 192.008 64.6483C192.043 64.6209 192.066 64.5809 192.074 64.535C192.081 64.489 192.072 64.4399 192.049 64.3956C192.025 64.3513 191.988 64.3146 191.943 64.2915C191.899 64.2684 191.85 64.2603 191.804 64.2686Z"/>
<path d="M129.596 60.2674C118.588 65.1826 108.201 75.1902 106.8 87.8407C106.626 88.2828 107.452 88.4998 107.636 88.2574C114.205 78.4545 121.9 69.5266 130.591 61.6259C130.707 61.4972 130.77 61.3267 130.77 61.1426C130.77 60.9584 130.706 60.7717 130.59 60.6133C130.474 60.4549 130.312 60.3343 130.131 60.2714C129.95 60.2085 129.761 60.2071 129.596 60.2674Z"/>
<path d="M140.001 59.8922C128.969 64.7952 118.606 74.815 117.18 87.4533C117.13 87.9566 117.858 88.1246 118.041 87.8821C124.606 78.0767 132.302 69.1485 140.997 61.2506C141.112 61.122 141.175 60.9515 141.175 60.7673C141.175 60.5832 141.111 60.3965 140.995 60.2381C140.879 60.0797 140.717 59.9591 140.536 59.8962C140.355 59.8333 140.167 59.8319 140.001 59.8922Z"/>
<path d="M150.423 59.4918C139.391 64.3947 129.029 74.4146 127.603 87.0528C127.553 87.5562 128.256 87.7119 128.463 87.4817C135.036 77.6815 142.731 68.7539 151.419 60.8502C151.535 60.7215 151.598 60.551 151.598 60.3669C151.597 60.1828 151.534 59.9961 151.418 59.8377C151.302 59.6793 151.14 59.5587 150.959 59.4958C150.778 59.4329 150.589 59.4315 150.423 59.4918Z"/>
<path d="M160.817 59.1152C149.785 64.0181 139.423 74.038 137.997 86.6762C137.946 87.1796 138.649 87.3353 138.833 87.0929C145.398 77.2874 153.094 68.3592 161.788 60.4614C161.928 60.3444 162.012 60.1736 162.024 59.9821C162.037 59.7906 161.977 59.5919 161.856 59.4245C161.735 59.257 161.562 59.1327 161.37 59.0756C161.178 59.0185 160.981 59.0326 160.817 59.1152Z"/>
<path d="M124.013 23.5277C115.733 21.1814 111.437 29.2189 110.87 35.9165C110.115 47.4454 112.446 59.3675 117.63 70.4885C117.738 70.7372 117.999 70.6723 118.121 70.7336C118.288 70.934 118.495 71.0977 118.725 71.2112C118.955 71.3247 119.202 71.3849 119.446 71.3866C119.689 71.3884 119.921 71.3316 120.124 71.2212C120.327 71.1108 120.495 70.9499 120.613 70.7515C125.195 61.3829 131.308 52.0819 132.667 41.1901C133.484 34.7558 131.936 25.8079 124.013 23.5277ZM124.455 54.6457C122.322 59.3392 119.961 63.8637 118.034 68.6321C116.528 61.9134 115.357 55.1662 114.524 48.4166C114.175 45.1532 114.036 41.898 114.11 38.6717C114.328 33.691 119.618 18.9181 127.805 31.1745C132.302 37.9213 126.993 49.0692 124.455 54.6457Z"/>
<path d="M92.8893 87.4169C103.26 84.5761 111.442 77.1961 119.951 71.2306C120.128 71.0837 120.261 70.892 120.34 70.6712C120.418 70.4505 120.441 70.2071 120.405 69.9611C120.37 69.7152 120.277 69.4736 120.134 69.2565C119.992 69.0394 119.804 68.853 119.586 68.7126C119.659 68.5264 119.732 68.3403 119.345 68.2031C107.858 64.4798 95.9816 63.7495 84.9083 66.0857C78.4592 67.5437 71.2917 73.01 74.6958 81.0473C78.0999 89.0845 86.8245 89.0943 92.8893 87.4169ZM82.544 83.8184C69.5339 77.1954 83.1644 69.861 87.962 68.9426C91.0772 68.45 94.2491 68.1727 97.4566 68.1124C104.123 68.0372 110.834 68.3092 117.562 68.9275C113.191 71.5324 109.107 74.5306 104.871 77.3143C99.8279 80.5852 89.7297 87.4553 82.5686 83.8307L82.544 83.8184Z"/>
</mask>
<path d="M225.367 88.0557C220.825 92.745 57.895 168.338 49.3312 167.018C45.3685 166.406 23.2476 129.935 0.648682 91.0841L106.459 41.5596L117.386 62.2732C117.386 62.2732 196.371 63.2039 205.795 65.7036C215.219 68.2034 229.883 83.3542 225.367 88.0557Z" fill="white"/>
<path d="M225.362 88.0553C220.821 92.7446 57.8905 168.337 49.3267 167.017C46.0853 166.514 30.5204 141.737 12.3884 111.287L117.258 62.2115C117.258 62.2115 196.243 63.1422 205.668 65.6419C215.092 68.1417 229.879 83.3538 225.362 88.0553Z" fill="#FFC727"/>
<path d="M219.154 82.1511C191.426 94.1121 81.1328 145.101 54.925 159.183C54.7045 159.295 54.8157 159.462 55.0726 159.256C82.9478 148.119 192.617 96.0964 219.404 82.6374C219.964 82.3326 219.72 81.9051 219.154 82.1511Z" fill="#263238"/>
<path d="M191.804 64.2686C188.723 65.5956 186.034 67.5893 183.908 70.1241C181.782 72.6589 180.264 75.6798 179.449 78.9968C177.936 84.9499 178.872 91.5642 182.061 97.457C182.208 97.5306 182.46 97.489 182.382 97.3114C180.072 91.086 179.762 84.5338 181.498 78.6423C183.234 72.7508 186.923 67.8393 192.008 64.6483C192.043 64.6209 192.066 64.5809 192.074 64.535C192.081 64.489 192.072 64.4399 192.049 64.3956C192.025 64.3513 191.988 64.3146 191.943 64.2915C191.899 64.2684 191.85 64.2603 191.804 64.2686Z" fill="#263238"/>
<path d="M129.596 60.2674C118.588 65.1826 108.201 75.1902 106.8 87.8407C106.626 88.2828 107.452 88.4998 107.636 88.2574C114.205 78.4545 121.9 69.5266 130.591 61.6259C130.707 61.4972 130.77 61.3267 130.77 61.1426C130.77 60.9584 130.706 60.7717 130.59 60.6133C130.474 60.4549 130.312 60.3343 130.131 60.2714C129.95 60.2085 129.761 60.2071 129.596 60.2674Z" fill="#263238"/>
<path d="M140.001 59.8922C128.969 64.7952 118.606 74.815 117.18 87.4533C117.13 87.9566 117.858 88.1246 118.041 87.8821C124.606 78.0767 132.302 69.1485 140.997 61.2506C141.112 61.122 141.175 60.9515 141.175 60.7673C141.175 60.5832 141.111 60.3965 140.995 60.2381C140.879 60.0797 140.717 59.9591 140.536 59.8962C140.355 59.8333 140.167 59.8319 140.001 59.8922Z" fill="#263238"/>
<path d="M150.423 59.4918C139.391 64.3947 129.029 74.4146 127.603 87.0528C127.553 87.5562 128.256 87.7119 128.463 87.4817C135.036 77.6815 142.731 68.7539 151.419 60.8502C151.535 60.7215 151.598 60.551 151.598 60.3669C151.597 60.1828 151.534 59.9961 151.418 59.8377C151.302 59.6793 151.14 59.5587 150.959 59.4958C150.778 59.4329 150.589 59.4315 150.423 59.4918Z" fill="#263238"/>
<path d="M160.817 59.1152C149.785 64.0181 139.423 74.038 137.997 86.6762C137.946 87.1796 138.649 87.3353 138.833 87.0929C145.398 77.2874 153.094 68.3592 161.788 60.4614C161.928 60.3444 162.012 60.1736 162.024 59.9821C162.037 59.7906 161.977 59.5919 161.856 59.4245C161.735 59.257 161.562 59.1327 161.37 59.0756C161.178 59.0185 160.981 59.0326 160.817 59.1152Z" fill="#263238"/>
<path d="M124.013 23.5277C115.733 21.1814 111.437 29.2189 110.87 35.9165C110.115 47.4454 112.446 59.3675 117.63 70.4885C117.738 70.7372 117.999 70.6723 118.121 70.7336C118.288 70.934 118.495 71.0977 118.725 71.2112C118.955 71.3247 119.202 71.3849 119.446 71.3866C119.689 71.3884 119.921 71.3316 120.124 71.2212C120.327 71.1108 120.495 70.9499 120.613 70.7515C125.195 61.3829 131.308 52.0819 132.667 41.1901C133.484 34.7558 131.936 25.8079 124.013 23.5277ZM124.455 54.6457C122.322 59.3392 119.961 63.8637 118.034 68.6321C116.528 61.9134 115.357 55.1662 114.524 48.4166C114.175 45.1532 114.036 41.898 114.11 38.6717C114.328 33.691 119.618 18.9181 127.805 31.1745C132.302 37.9213 126.993 49.0692 124.455 54.6457Z" fill="#263238"/>
<path d="M92.8893 87.4169C103.26 84.5761 111.442 77.1961 119.951 71.2306C120.128 71.0837 120.261 70.892 120.34 70.6712C120.418 70.4505 120.441 70.2071 120.405 69.9611C120.37 69.7152 120.277 69.4736 120.134 69.2565C119.992 69.0394 119.804 68.853 119.586 68.7126C119.659 68.5264 119.732 68.3403 119.345 68.2031C107.858 64.4798 95.9816 63.7495 84.9083 66.0857C78.4592 67.5437 71.2917 73.01 74.6958 81.0473C78.0999 89.0845 86.8245 89.0943 92.8893 87.4169ZM82.544 83.8184C69.5339 77.1954 83.1644 69.861 87.962 68.9426C91.0772 68.45 94.2491 68.1727 97.4566 68.1124C104.123 68.0372 110.834 68.3092 117.562 68.9275C113.191 71.5324 109.107 74.5306 104.871 77.3143C99.8279 80.5852 89.7297 87.4553 82.5686 83.8307L82.544 83.8184Z" fill="#263238"/>
<path d="M225.367 88.0557L226.085 88.7514L226.088 88.7485L225.367 88.0557ZM49.3312 167.018L49.1785 168.006L49.1788 168.006L49.3312 167.018ZM0.648682 91.0841L0.224767 90.1784L-0.765439 90.6419L-0.215715 91.5869L0.648682 91.0841ZM106.459 41.5596L107.343 41.093L106.899 40.2497L106.035 40.6539L106.459 41.5596ZM117.386 62.2732L116.501 62.7398L116.779 63.2661L117.374 63.2731L117.386 62.2732ZM225.362 88.0553L226.08 88.751L226.083 88.7481L225.362 88.0553ZM49.3267 167.017L49.1733 168.006L49.1743 168.006L49.3267 167.017ZM12.3884 111.287L11.9645 110.381L10.964 110.849L11.5291 111.798L12.3884 111.287ZM117.258 62.2115L117.27 61.2115L117.042 61.2089L116.835 61.3057L117.258 62.2115ZM219.154 82.1511L219.55 83.0693L219.552 83.0684L219.154 82.1511ZM54.925 159.183L55.3799 160.073L55.3891 160.068L55.3983 160.064L54.925 159.183ZM55.0726 159.256L54.7016 158.328L54.5636 158.383L54.4476 158.476L55.0726 159.256ZM219.404 82.6374L219.853 83.5309L219.868 83.5236L219.882 83.5158L219.404 82.6374ZM191.804 64.2686L191.626 63.2845L191.514 63.3049L191.409 63.3501L191.804 64.2686ZM179.449 78.9968L180.419 79.2431L180.421 79.2352L179.449 78.9968ZM182.061 97.457L181.181 97.933L181.332 98.211L181.615 98.352L182.061 97.457ZM182.382 97.3114L181.445 97.6593L181.454 97.6853L181.465 97.7107L182.382 97.3114ZM192.008 64.6483L192.539 65.4953L192.582 65.4687L192.621 65.438L192.008 64.6483ZM129.596 60.2674L129.254 59.3276L129.22 59.3398L129.188 59.3543L129.596 60.2674ZM106.8 87.8407L107.731 88.2056L107.779 88.0824L107.794 87.9508L106.8 87.8407ZM107.636 88.2574L108.434 88.8602L108.451 88.8376L108.466 88.814L107.636 88.2574ZM130.591 61.6259L131.264 62.3658L131.301 62.3319L131.335 62.2945L130.591 61.6259ZM140.001 59.8922L139.659 58.9525L139.626 58.9643L139.595 58.9784L140.001 59.8922ZM117.18 87.4533L116.186 87.3412L116.185 87.3539L117.18 87.4533ZM118.041 87.8821L118.839 88.485L118.856 88.4622L118.872 88.4385L118.041 87.8821ZM140.997 61.2506L141.669 61.9908L141.706 61.9569L141.74 61.9193L140.997 61.2506ZM150.423 59.4918L150.081 58.552L150.049 58.5639L150.017 58.578L150.423 59.4918ZM127.603 87.0528L126.609 86.9407L126.608 86.9534L127.603 87.0528ZM128.463 87.4817L129.206 88.1518L129.254 88.0984L129.294 88.0387L128.463 87.4817ZM151.419 60.8502L152.092 61.5899L152.129 61.5561L152.163 61.5188L151.419 60.8502ZM160.817 59.1152L161.223 60.029L161.245 60.0193L161.266 60.0085L160.817 59.1152ZM137.997 86.6762L137.003 86.5641L137.002 86.5768L137.997 86.6762ZM138.833 87.0929L139.63 87.6957L139.648 87.6729L139.663 87.6492L138.833 87.0929ZM161.788 60.4614L161.145 59.6954L161.13 59.708L161.116 59.7212L161.788 60.4614ZM124.013 23.5277L124.289 22.5667L124.285 22.5656L124.013 23.5277ZM110.87 35.9165L109.874 35.832L109.873 35.8416L109.872 35.8511L110.87 35.9165ZM117.63 70.4885L118.547 70.0892L118.541 70.0776L118.536 70.0661L117.63 70.4885ZM118.121 70.7336L118.89 70.0943L118.756 69.9325L118.568 69.8386L118.121 70.7336ZM120.613 70.7515L121.472 71.2627L121.493 71.2276L121.511 71.1909L120.613 70.7515ZM132.667 41.1901L131.675 41.0641L131.675 41.0663L132.667 41.1901ZM124.455 54.6457L123.545 54.2314L123.545 54.2319L124.455 54.6457ZM118.034 68.6321L117.058 68.8508L117.759 71.9797L118.961 69.0068L118.034 68.6321ZM114.524 48.4166L113.529 48.523L113.53 48.531L113.531 48.5391L114.524 48.4166ZM114.11 38.6717L113.111 38.628L113.111 38.6384L113.111 38.6488L114.11 38.6717ZM127.805 31.1745L128.637 30.6198L128.636 30.619L127.805 31.1745ZM92.8893 87.4169L92.6251 86.4525L92.6228 86.4531L92.8893 87.4169ZM119.951 71.2306L120.525 72.0494L120.56 72.0254L120.592 71.9985L119.951 71.2306ZM119.586 68.7126L118.655 68.3477L118.357 69.1096L119.044 69.553L119.586 68.7126ZM119.345 68.2031L119.679 67.2606L119.666 67.256L119.653 67.2518L119.345 68.2031ZM84.9083 66.0857L84.7018 65.1073L84.6948 65.1088L84.6878 65.1103L84.9083 66.0857ZM82.544 83.8184L82.0903 84.7096L82.098 84.7134L82.544 83.8184ZM87.962 68.9426L87.8058 67.9548L87.7899 67.9574L87.774 67.9604L87.962 68.9426ZM97.4566 68.1124L97.4453 67.1125L97.4378 67.1126L97.4566 68.1124ZM117.562 68.9275L118.074 69.7866L120.715 68.213L117.654 67.9317L117.562 68.9275ZM104.871 77.3143L105.416 78.1533L105.421 78.15L104.871 77.3143ZM82.5686 83.8307L83.0202 82.9384L83.0146 82.9356L82.5686 83.8307ZM224.648 87.36C224.646 87.3626 224.649 87.3597 224.645 87.3635C224.64 87.368 224.64 87.3679 224.634 87.3735C224.625 87.3821 224.611 87.3936 224.594 87.408C224.559 87.4372 224.511 87.4741 224.449 87.5191C224.326 87.6094 224.16 87.721 223.95 87.8544C223.53 88.1211 222.961 88.4564 222.246 88.8577C220.817 89.6595 218.843 90.7047 216.394 91.9591C211.498 94.4668 204.736 97.795 196.716 101.656C180.676 109.378 159.623 119.223 138.442 128.88C117.261 138.538 95.9599 148.006 79.4226 154.975C71.1523 158.46 64.0838 161.316 58.8214 163.258C56.1884 164.23 54.0226 164.967 52.3912 165.439C51.5746 165.676 50.9082 165.842 50.3932 165.938C49.8458 166.04 49.5713 166.043 49.4835 166.029L49.1788 168.006C49.6262 168.075 50.1885 168.01 50.7602 167.904C51.3643 167.791 52.0995 167.606 52.9477 167.361C54.6461 166.869 56.8633 166.112 59.5139 165.134C64.8186 163.177 71.9196 160.307 80.1993 156.818C96.7619 149.838 118.083 140.362 139.272 130.7C160.462 121.038 181.529 111.188 197.583 103.458C205.61 99.5942 212.389 96.2578 217.306 93.7391C219.763 92.4803 221.764 91.4219 223.225 90.6018C223.955 90.1922 224.559 89.837 225.022 89.5427C225.457 89.267 225.85 88.9943 226.085 88.7514L224.648 87.36ZM49.4838 166.029C49.5132 166.034 49.3697 166.004 49.0069 165.712C48.6784 165.448 48.2658 165.047 47.7686 164.5C46.7768 163.409 45.5243 161.816 44.0401 159.771C41.0754 155.686 37.2465 149.877 32.8246 142.857C23.984 128.822 12.8112 110.004 1.51308 90.5813L-0.215715 91.5869C11.0851 111.015 22.2722 129.857 31.1324 143.923C35.561 150.954 39.4177 156.806 42.4214 160.945C43.9213 163.012 45.2237 164.673 46.2884 165.845C46.8195 166.43 47.3105 166.914 47.7524 167.27C48.1601 167.598 48.6538 167.925 49.1785 168.006L49.4838 166.029ZM1.0726 91.9898L106.883 42.4653L106.035 40.6539L0.224767 90.1784L1.0726 91.9898ZM105.575 42.0262L116.501 62.7398L118.27 61.8066L107.343 41.093L105.575 42.0262ZM117.386 62.2732C117.374 63.2731 117.374 63.2731 117.375 63.2731C117.376 63.2731 117.376 63.2731 117.378 63.2731C117.38 63.2732 117.384 63.2732 117.388 63.2733C117.398 63.2734 117.412 63.2736 117.431 63.2738C117.469 63.2742 117.526 63.2749 117.6 63.2758C117.75 63.2777 117.972 63.2804 118.262 63.2842C118.843 63.2916 119.696 63.3028 120.784 63.3179C122.962 63.3483 126.083 63.3944 129.858 63.4575C137.408 63.5838 147.572 63.7782 158.03 64.0507C168.49 64.3232 179.237 64.6736 187.955 65.1118C192.315 65.3309 196.16 65.5716 199.204 65.8348C202.278 66.1006 204.458 66.3835 205.539 66.6702L206.051 64.7371C204.776 64.3989 202.426 64.1059 199.377 63.8423C196.298 63.5761 192.426 63.334 188.055 63.1143C179.313 62.6749 168.547 62.324 158.082 62.0513C147.616 61.7787 137.445 61.5841 129.891 61.4578C126.114 61.3946 122.991 61.3485 120.812 61.3181C119.723 61.303 118.869 61.2917 118.288 61.2843C117.997 61.2806 117.775 61.2778 117.625 61.276C117.55 61.2751 117.493 61.2744 117.455 61.2739C117.436 61.2737 117.422 61.2735 117.412 61.2734C117.407 61.2734 117.404 61.2733 117.401 61.2733C117.4 61.2733 117.399 61.2733 117.399 61.2733C117.398 61.2732 117.398 61.2732 117.386 62.2732ZM205.539 66.6702C209.986 67.8498 215.85 72.1057 220.07 76.7282C222.171 79.0292 223.792 81.3445 224.617 83.3171C225.467 85.351 225.336 86.644 224.645 87.3629L226.088 88.7485C227.655 87.1167 227.385 84.7528 226.462 82.5455C225.513 80.2769 223.726 77.7667 221.547 75.3798C217.208 70.6266 211.028 66.0572 206.051 64.7371L205.539 66.6702ZM224.644 87.3596C224.641 87.3622 224.644 87.3592 224.64 87.3631C224.636 87.3675 224.636 87.3675 224.63 87.373C224.62 87.3817 224.607 87.3932 224.589 87.4076C224.554 87.4368 224.507 87.4737 224.445 87.5186C224.321 87.609 224.156 87.7206 223.946 87.854C223.526 88.1207 222.957 88.456 222.241 88.8573C220.813 89.6591 218.839 90.7043 216.39 91.9586C211.494 94.4664 204.732 97.7946 196.711 101.656C180.672 109.378 159.618 119.223 138.438 128.88C117.257 138.538 95.9554 148.005 79.4181 154.974C71.1478 158.46 64.0794 161.316 58.817 163.258C56.184 164.229 54.0181 164.967 52.3868 165.439C51.5701 165.676 50.9038 165.841 50.3887 165.937C49.8413 166.039 49.5669 166.043 49.479 166.029L49.1743 168.006C49.6218 168.075 50.184 168.01 50.7557 167.903C51.3599 167.791 52.0951 167.606 52.9433 167.36C54.6417 166.868 56.8588 166.112 59.5094 165.134C64.8142 163.176 71.9151 160.307 80.1948 156.817C96.7574 149.838 118.078 140.361 139.268 130.7C160.458 121.038 181.524 111.187 197.579 103.458C205.605 99.5938 212.384 96.2574 217.301 93.7387C219.759 92.4799 221.759 91.4215 223.22 90.6014C223.95 90.1918 224.555 89.8366 225.018 89.5423C225.452 89.2666 225.845 88.9938 226.08 88.751L224.644 87.3596ZM49.48 166.029C49.5178 166.035 49.4249 166.024 49.1667 165.836C48.931 165.663 48.6313 165.398 48.2659 165.026C47.5367 164.284 46.6207 163.193 45.5312 161.771C43.3562 158.932 40.5564 154.861 37.2791 149.836C30.7278 139.79 22.3121 125.998 13.2476 110.775L11.5291 111.798C20.5966 127.026 29.0294 140.847 35.6039 150.929C38.8895 155.967 41.722 160.088 43.9436 162.988C45.0525 164.435 46.0259 165.6 46.8392 166.428C47.245 166.841 47.6298 167.19 47.9871 167.451C48.3218 167.695 48.7304 167.937 49.1733 168.006L49.48 166.029ZM12.8122 112.192L117.682 63.1172L116.835 61.3057L11.9645 110.381L12.8122 112.192ZM117.258 62.2115C117.247 63.2114 117.247 63.2114 117.248 63.2114C117.248 63.2114 117.249 63.2114 117.25 63.2115C117.253 63.2115 117.256 63.2115 117.261 63.2116C117.27 63.2117 117.285 63.2119 117.304 63.2121C117.342 63.2125 117.398 63.2132 117.473 63.2141C117.623 63.216 117.845 63.2188 118.135 63.2225C118.715 63.2299 119.568 63.2411 120.657 63.2563C122.834 63.2866 125.955 63.3327 129.73 63.3958C137.281 63.5221 147.445 63.7165 157.903 63.989C168.362 64.2615 179.11 64.6119 187.828 65.0501C192.187 65.2692 196.032 65.5099 199.077 65.7731C202.151 66.0388 204.33 66.3218 205.411 66.6085L205.924 64.6754C204.649 64.3372 202.299 64.0442 199.249 63.7806C196.17 63.5144 192.298 63.2723 187.928 63.0526C179.186 62.6132 168.42 62.2623 157.955 61.9896C147.489 61.717 137.318 61.5224 129.764 61.3961C125.987 61.3329 122.864 61.2868 120.685 61.2565C119.595 61.2413 118.742 61.2301 118.161 61.2226C117.87 61.2189 117.647 61.2161 117.498 61.2143C117.423 61.2134 117.366 61.2127 117.328 61.2122C117.309 61.212 117.294 61.2118 117.285 61.2117C117.28 61.2117 117.276 61.2116 117.274 61.2116C117.273 61.2116 117.272 61.2116 117.271 61.2116C117.271 61.2116 117.27 61.2115 117.258 62.2115ZM205.411 66.6085C209.859 67.7882 215.754 72.0597 220.005 76.6986C222.122 79.0077 223.758 81.3313 224.594 83.3105C225.457 85.3531 225.329 86.6466 224.641 87.3625L226.083 88.7481C227.654 87.1133 227.371 84.7422 226.437 82.5321C225.476 80.2586 223.674 77.7415 221.48 75.3473C217.111 70.5799 210.901 65.9954 205.924 64.6754L205.411 66.6085ZM218.758 81.2329C191.023 93.1968 80.6983 144.2 54.4517 158.302L55.3983 160.064C81.5673 146.003 191.829 95.0275 219.55 83.0693L218.758 81.2329ZM54.4701 158.292C54.3146 158.372 54.1024 158.516 53.9564 158.765C53.8172 159.002 53.6371 159.605 54.1394 160.072C54.5368 160.441 55.0099 160.356 55.1688 160.313C55.3856 160.255 55.5632 160.144 55.6975 160.037L54.4476 158.476C54.4534 158.471 54.5209 158.416 54.6515 158.381C54.7241 158.362 55.135 158.267 55.5001 158.606C55.9701 159.042 55.7875 159.596 55.6814 159.777C55.5686 159.969 55.4252 160.05 55.3799 160.073L54.4701 158.292ZM55.4436 160.185C83.3615 149.031 193.064 96.9913 219.853 83.5309L218.955 81.7438C192.171 95.2015 82.5341 147.208 54.7016 158.328L55.4436 160.185ZM219.882 83.5158C220.122 83.3852 220.373 83.1912 220.54 82.9096C220.712 82.6206 220.825 82.1631 220.581 81.712C220.346 81.2775 219.925 81.1198 219.619 81.0864C219.307 81.0523 219.008 81.124 218.756 81.2338L219.552 83.0684C219.582 83.0552 219.527 83.0881 219.402 83.0745C219.284 83.0616 218.995 82.9836 218.822 82.6634C218.64 82.3265 218.744 82.0176 218.822 81.8868C218.895 81.7634 218.966 81.7372 218.926 81.7589L219.882 83.5158ZM191.409 63.3501C188.186 64.738 185.37 66.8253 183.142 69.4814L184.674 70.7668C186.699 68.3533 189.26 66.4532 192.2 65.187L191.409 63.3501ZM183.142 69.4814C180.914 72.1373 179.328 75.2977 178.478 78.7584L180.421 79.2352C181.2 76.0619 182.649 73.1804 184.674 70.7668L183.142 69.4814ZM178.48 78.7504C176.899 84.9701 177.884 91.841 181.181 97.933L182.94 96.9811C179.859 91.2874 178.973 84.9298 180.419 79.2431L178.48 78.7504ZM181.615 98.352C181.908 98.4985 182.279 98.539 182.616 98.429C182.794 98.3708 183.085 98.2272 183.265 97.8954C183.463 97.5285 183.406 97.1582 183.299 96.9121L181.465 97.7107C181.397 97.5534 181.337 97.2549 181.506 96.9434C181.655 96.6671 181.889 96.5625 181.995 96.5278C182.189 96.4646 182.36 96.4891 182.507 96.562L181.615 98.352ZM183.32 96.9635C181.078 90.923 180.787 84.5923 182.457 78.925L180.539 78.3596C178.736 84.4752 179.066 91.2489 181.445 97.6593L183.32 96.9635ZM182.457 78.925C184.126 73.2615 187.666 68.5534 192.539 65.4953L191.476 63.8012C186.179 67.1252 182.342 72.2401 180.539 78.3596L182.457 78.925ZM192.621 65.438C192.866 65.2483 193.015 64.9784 193.061 64.6937L191.087 64.3763C191.118 64.1834 191.221 63.9934 191.394 63.8586L192.621 65.438ZM193.061 64.6937C193.106 64.4139 193.049 64.144 192.93 63.9226L191.168 64.8686C191.096 64.7357 191.056 64.5641 191.087 64.3763L193.061 64.6937ZM192.93 63.9226C192.811 63.7015 192.628 63.5201 192.404 63.4041L191.482 65.179C191.348 65.1091 191.239 65.0012 191.168 64.8686L192.93 63.9226ZM192.404 63.4041C192.181 63.2881 191.908 63.2335 191.626 63.2845L191.982 65.2526C191.791 65.2871 191.617 65.2488 191.482 65.179L192.404 63.4041ZM129.188 59.3543C117.997 64.3515 107.261 74.5974 105.806 87.7306L107.794 87.9508C109.142 75.7831 119.18 66.0138 130.003 61.1805L129.188 59.3543ZM105.869 87.4759C105.697 87.9149 105.774 88.3648 106.016 88.7057C106.224 88.9982 106.511 89.1573 106.728 89.2401C106.954 89.3264 107.213 89.3719 107.471 89.3544C107.69 89.3395 108.131 89.2601 108.434 88.8602L106.838 87.6545C107.048 87.3758 107.317 87.3602 107.335 87.359C107.392 87.3551 107.422 87.3643 107.44 87.3713C107.45 87.375 107.551 87.4121 107.647 87.5472C107.7 87.6228 107.752 87.73 107.77 87.8634C107.788 87.9988 107.765 88.1177 107.731 88.2056L105.869 87.4759ZM108.466 88.814C114.99 79.0781 122.633 70.2118 131.264 62.3658L129.919 60.8859C121.167 68.8413 113.419 77.8308 106.805 87.7007L108.466 88.814ZM131.335 62.2945C131.627 61.9694 131.77 61.5553 131.77 61.1411L129.77 61.144C129.77 61.098 129.787 61.0249 129.848 60.9572L131.335 62.2945ZM131.77 61.1411C131.769 60.7302 131.629 60.3394 131.396 60.022L129.783 61.2045C129.782 61.203 129.779 61.1986 129.777 61.1901C129.774 61.1815 129.77 61.1662 129.77 61.144L131.77 61.1411ZM131.396 60.022C131.164 59.7045 130.837 59.4582 130.46 59.3269L129.803 61.2159C129.794 61.2128 129.789 61.2096 129.787 61.2084C129.786 61.2072 129.785 61.2061 129.783 61.2045L131.396 60.022ZM130.46 59.3269C130.081 59.1954 129.655 59.1817 129.254 59.3276L129.937 61.2072C129.868 61.2324 129.819 61.2217 129.803 61.2159L130.46 59.3269ZM139.595 58.9784C128.376 63.9644 117.667 74.2228 116.187 87.3412L118.174 87.5654C119.546 75.4072 129.562 65.626 140.407 60.806L139.595 58.9784ZM116.185 87.3539C116.099 88.2165 116.72 88.714 117.171 88.8835C117.404 88.9711 117.67 89.0117 117.934 88.9819C118.179 88.9543 118.566 88.8453 118.839 88.485L117.243 87.2793C117.424 87.0402 117.651 87.0011 117.71 86.9945C117.788 86.9857 117.84 86.9983 117.875 87.0113C117.91 87.0246 117.986 87.0611 118.059 87.1549C118.144 87.2656 118.189 87.4132 118.175 87.5527L116.185 87.3539ZM118.872 88.4385C125.392 78.7002 133.035 69.8338 141.669 61.9908L140.324 60.5105C131.57 68.4632 123.821 77.4531 117.21 87.3258L118.872 88.4385ZM141.74 61.9193C142.032 61.5942 142.176 61.1801 142.175 60.7659L140.175 60.7688C140.175 60.7228 140.192 60.6497 140.253 60.582L141.74 61.9193ZM142.175 60.7659C142.174 60.3552 142.034 59.9644 141.802 59.6469L140.189 60.8294C140.187 60.8278 140.185 60.8234 140.182 60.8147C140.179 60.8061 140.175 60.7909 140.175 60.7688L142.175 60.7659ZM141.802 59.6469C141.569 59.3293 141.242 59.083 140.865 58.9517L140.208 60.8407C140.199 60.8376 140.194 60.8344 140.192 60.8333C140.191 60.8321 140.19 60.831 140.189 60.8294L141.802 59.6469ZM140.865 58.9517C140.486 58.8201 140.06 58.8066 139.659 58.9525L140.343 60.832C140.273 60.8572 140.224 60.8465 140.208 60.8407L140.865 58.9517ZM150.017 58.578C138.799 63.5639 128.089 73.8224 126.609 86.9407L128.597 87.165C129.968 75.0068 139.984 65.2256 150.829 60.4056L150.017 58.578ZM126.608 86.9534C126.523 87.8024 127.12 88.3048 127.586 88.479C127.821 88.5668 128.082 88.6041 128.339 88.5771C128.58 88.5518 128.932 88.4548 129.206 88.1518L127.721 86.8117C127.891 86.6238 128.078 86.5936 128.13 86.5881C128.198 86.581 128.247 86.591 128.287 86.6057C128.326 86.6205 128.408 86.6604 128.483 86.7599C128.572 86.8761 128.611 87.0227 128.598 87.1523L126.608 86.9534ZM129.294 88.0387C135.821 78.3052 143.464 69.439 152.092 61.5899L150.746 60.1105C141.998 68.0688 134.25 77.0578 127.633 86.9248L129.294 88.0387ZM152.163 61.5188C152.455 61.1937 152.598 60.7797 152.598 60.3654L150.598 60.3684C150.597 60.3223 150.615 60.2493 150.676 60.1816L152.163 61.5188ZM152.598 60.3654C152.597 59.9547 152.457 59.5639 152.224 59.2465L150.611 60.429C150.61 60.4275 150.607 60.4231 150.604 60.4144C150.601 60.4058 150.598 60.3904 150.598 60.3684L152.598 60.3654ZM152.224 59.2465C151.992 58.9292 151.665 58.6826 151.287 58.5513L150.63 60.4402C150.621 60.4371 150.617 60.4339 150.615 60.4327C150.613 60.4315 150.612 60.4305 150.611 60.429L152.224 59.2465ZM151.287 58.5513C150.909 58.4196 150.482 58.4062 150.081 58.552L150.765 60.4315C150.696 60.4568 150.647 60.4461 150.63 60.4402L151.287 58.5513ZM160.411 58.2014C149.192 63.1873 138.483 73.4458 137.003 86.5641L138.99 86.7884C140.362 74.6302 150.378 64.849 161.223 60.029L160.411 58.2014ZM137.002 86.5768C136.917 87.4225 137.51 87.9273 137.978 88.1015C138.214 88.1891 138.48 88.2265 138.744 88.1927C138.994 88.1609 139.367 88.0449 139.63 87.6957L138.035 86.49C138.207 86.262 138.423 86.2175 138.491 86.2089C138.573 86.1984 138.633 86.2109 138.676 86.2269C138.72 86.2434 138.802 86.285 138.878 86.3846C138.965 86.5005 139.005 86.6465 138.992 86.7757L137.002 86.5768ZM139.663 87.6492C146.184 77.9109 153.827 69.0445 162.461 61.2016L161.116 59.7212C152.361 67.6739 144.612 76.6639 138.002 86.5365L139.663 87.6492ZM162.431 61.2273C162.792 60.9246 162.993 60.4947 163.022 60.0474L161.027 59.9168C161.031 59.8526 161.064 59.7641 161.145 59.6954L162.431 61.2273ZM163.022 60.0474C163.051 59.6058 162.913 59.1799 162.667 58.8393L161.045 60.0096C161.042 60.0051 161.037 59.9968 161.033 59.983C161.029 59.9693 161.025 59.9471 161.027 59.9168L163.022 60.0474ZM162.667 58.8393C162.422 58.499 162.066 58.2394 161.656 58.1171L161.085 60.034C161.07 60.0296 161.061 60.0242 161.057 60.0209C161.052 60.0175 161.048 60.014 161.045 60.0096L162.667 58.8393ZM161.656 58.1171C161.243 57.9944 160.781 58.014 160.368 58.2218L161.266 60.0085C161.182 60.0511 161.114 60.0425 161.085 60.034L161.656 58.1171ZM124.285 22.5656C122.042 21.9298 120.014 21.9851 118.228 22.5836C116.449 23.1799 114.973 24.2941 113.789 25.6813C111.437 28.4356 110.17 32.3376 109.874 35.832L111.866 36.0009C112.138 32.7977 113.302 29.3322 115.31 26.9799C116.305 25.8138 117.491 24.94 118.864 24.4799C120.23 24.022 121.844 23.9525 123.74 24.4899L124.285 22.5656ZM109.872 35.8511C109.106 47.5582 111.474 59.6474 116.723 70.911L118.536 70.0661C113.419 59.0876 111.125 47.3326 111.868 35.9818L109.872 35.8511ZM116.713 70.8878C116.809 71.1096 116.959 71.297 117.152 71.4354C117.334 71.5666 117.516 71.6247 117.637 71.6538C117.698 71.6684 117.752 71.6774 117.788 71.6831C117.807 71.6859 117.824 71.6883 117.836 71.69C117.849 71.6919 117.855 71.6927 117.862 71.6936C117.914 71.7014 117.805 71.693 117.675 71.6286L118.568 69.8386C118.461 69.7856 118.365 69.7582 118.302 69.7432C118.24 69.7282 118.184 69.7196 118.154 69.7152C118.139 69.7129 118.123 69.7107 118.114 69.7094C118.103 69.7079 118.097 69.707 118.092 69.7063C118.083 69.7048 118.089 69.7055 118.103 69.7089C118.13 69.7154 118.219 69.7393 118.318 69.8107C118.369 69.8471 118.416 69.8914 118.458 69.9429C118.499 69.9941 118.527 70.0448 118.547 70.0892L116.713 70.8878ZM117.352 71.3729C117.607 71.6792 117.925 71.9315 118.283 72.1081L119.167 70.3144C119.065 70.2639 118.969 70.1887 118.89 70.0943L117.352 71.3729ZM118.283 72.1081C118.641 72.2846 119.036 72.3837 119.438 72.3866L119.453 70.3866C119.369 70.386 119.27 70.3649 119.167 70.3144L118.283 72.1081ZM119.438 72.3866C119.842 72.3895 120.243 72.2953 120.602 72.0996L119.646 70.3429C119.6 70.368 119.536 70.3872 119.453 70.3866L119.438 72.3866ZM120.602 72.0996C120.963 71.9034 121.262 71.6158 121.472 71.2627L119.753 70.2403C119.727 70.2839 119.692 70.3182 119.646 70.3429L120.602 72.0996ZM121.511 71.1909C122.649 68.8649 123.881 66.5429 125.124 64.1766C126.363 61.8165 127.608 59.4172 128.755 56.9655C131.047 52.062 132.962 46.9063 133.659 41.3139L131.675 41.0663C131.014 46.3657 129.192 51.3064 126.943 56.1185C125.818 58.5245 124.591 60.8879 123.353 63.247C122.118 65.6 120.868 67.9538 119.714 70.3122L121.511 71.1909ZM133.659 41.316C134.082 37.984 133.901 33.9636 132.551 30.4431C131.19 26.8943 128.618 23.8125 124.289 22.5668L123.736 24.4887C127.33 25.5231 129.494 28.0554 130.684 31.1591C131.885 34.2912 132.069 37.9619 131.675 41.0641L133.659 41.316ZM123.545 54.2319C121.445 58.8522 119.042 63.4706 117.107 68.2573L118.961 69.0068C120.881 64.2569 123.199 59.8263 125.366 55.0594L123.545 54.2319ZM119.01 68.4134C117.511 61.7261 116.345 55.011 115.516 48.2941L113.531 48.5391C114.368 55.3214 115.545 62.1007 117.058 68.8508L119.01 68.4134ZM115.518 48.3102C115.173 45.0891 115.037 41.877 115.11 38.6946L113.111 38.6488C113.036 41.919 113.176 45.2174 113.529 48.523L115.518 48.3102ZM115.11 38.7154C115.159 37.5923 115.503 35.8327 116.136 34.0021C116.769 32.1696 117.656 30.368 118.73 29.1079C119.807 27.8445 120.925 27.2792 122.086 27.4626C123.316 27.657 124.975 28.739 126.973 31.7299L128.636 30.619C126.541 27.4818 124.469 25.8142 122.398 25.4871C120.257 25.1489 118.504 26.29 117.208 27.8104C115.909 29.3341 114.921 31.3935 114.246 33.3488C113.569 35.3059 113.171 37.2607 113.111 38.628L115.11 38.7154ZM126.973 31.7292C128.978 34.7376 128.863 38.8496 127.798 43.1063C126.742 47.3282 124.824 51.4226 123.545 54.2314L125.366 55.0599C126.625 52.2922 128.63 48.0245 129.739 43.5916C130.839 39.1936 131.129 34.3582 128.637 30.6198L126.973 31.7292ZM93.1535 88.3814C98.4854 86.9209 103.226 84.3014 107.674 81.3268C109.899 79.8394 112.06 78.2563 114.187 76.6804C116.319 75.1002 118.412 73.5311 120.525 72.0494L119.377 70.4118C117.236 71.9128 115.115 73.5033 112.996 75.0735C110.871 76.6478 108.744 78.2059 106.563 79.6642C102.2 82.5813 97.6639 85.0722 92.6251 86.4525L93.1535 88.3814ZM120.592 71.9985C120.908 71.7347 121.144 71.3928 121.281 71.0079L119.398 70.3345C119.378 70.3911 119.347 70.4326 119.311 70.4627L120.592 71.9985ZM121.281 71.0079C121.418 70.6241 121.453 70.2151 121.395 69.8176L119.416 70.1047C119.429 70.1991 119.419 70.2769 119.398 70.3345L121.281 71.0079ZM121.395 69.8176C121.337 69.4206 121.189 69.0417 120.97 68.708L119.298 69.8051C119.364 69.9056 119.402 70.0098 119.416 70.1047L121.395 69.8176ZM120.97 68.708C120.752 68.3743 120.464 68.0884 120.128 67.8721L119.044 69.553C119.145 69.6176 119.232 69.7046 119.298 69.8051L120.97 68.708ZM120.517 69.0774C120.53 69.0445 120.576 68.9327 120.606 68.8084C120.638 68.6758 120.671 68.458 120.61 68.2044C120.469 67.6205 119.983 67.3683 119.679 67.2606L119.011 69.1455C119.04 69.156 118.986 69.1421 118.907 69.0749C118.813 68.9946 118.711 68.8596 118.666 68.6746C118.626 68.508 118.652 68.3801 118.662 68.3391C118.67 68.3063 118.679 68.2876 118.655 68.3477L120.517 69.0774ZM119.653 67.2518C108.011 63.4784 95.9577 62.7326 84.7018 65.1073L85.1147 67.0642C96.0055 64.7665 107.704 65.4812 119.037 69.1543L119.653 67.2518ZM84.6878 65.1103C81.3091 65.8742 77.6918 67.6935 75.3454 70.4513C72.9512 73.2654 71.9119 77.0384 73.775 81.4373L75.6166 80.6573C74.0756 77.0189 74.9179 74.0401 76.8687 71.7473C78.8673 69.3981 82.0583 67.7553 85.1288 67.0611L84.6878 65.1103ZM73.775 81.4373C75.6183 85.7894 78.935 87.988 82.5642 88.8481C86.1476 89.6974 90.0258 89.2465 93.1559 88.3808L92.6228 86.4531C89.688 87.2648 86.1716 87.6477 83.0254 86.902C79.925 86.1673 77.1774 84.3423 75.6166 80.6573L73.775 81.4373ZM82.9976 82.9272C79.8319 81.3157 78.5479 79.7847 78.1872 78.5489C77.8433 77.3708 78.257 76.1482 79.3342 74.8923C80.4114 73.6363 82.0379 72.4969 83.7275 71.608C85.4162 70.7196 87.0732 70.1309 88.15 69.9247L87.774 67.9604C86.452 68.2135 84.6061 68.8859 82.7963 69.838C80.9875 70.7896 79.1199 72.0699 77.816 73.5902C76.5121 75.1106 75.6577 77.0208 76.2673 79.1093C76.8601 81.1402 78.751 83.0096 82.0903 84.7096L82.9976 82.9272ZM88.1182 69.9303C91.1871 69.4451 94.3131 69.1717 97.4754 69.1123L97.4378 67.1126C94.1851 67.1737 90.9673 67.455 87.8058 67.9548L88.1182 69.9303ZM97.4679 69.1124C104.1 69.0375 110.776 69.3081 117.471 69.9233L117.654 67.9317C110.892 67.3103 104.147 67.0368 97.4453 67.1125L97.4679 69.1124ZM117.05 68.0685C112.66 70.685 108.495 73.7364 104.322 76.4786L105.421 78.15C109.719 75.3247 113.723 72.3798 118.074 69.7866L117.05 68.0685ZM104.327 76.4753C101.783 78.1252 98.08 80.6031 94.1323 82.2341C90.1517 83.8786 86.1958 84.5458 83.0202 82.9384L82.117 84.7229C86.1025 86.7401 90.7762 85.7846 94.896 84.0825C99.0484 82.3669 102.916 79.7743 105.416 78.1533L104.327 76.4753ZM83.0146 82.9356L82.99 82.9234L82.098 84.7134L82.1226 84.7257L83.0146 82.9356Z" fill="black" fill-opacity="0.2" mask="url(#path-2-inside-1_1727_48267)"/>
<path d="M194.5 14.3333L208.494 33L224.561 1" stroke="#FFD000" stroke-width="2"/>
</svg>
