<svg width="207" height="178" viewBox="0 0 207 178" fill="none" xmlns="http://www.w3.org/2000/svg">
<rect x="0.5" y="2" width="174" height="174" rx="87" fill="#FFF2CB"/>
<mask id="mask0_1727_48283" style="mask-type:alpha" maskUnits="userSpaceOnUse" x="0" y="2" width="175" height="174">
<circle cx="87.5" cy="89" r="87" fill="#D9D9D9"/>
</mask>
<g mask="url(#mask0_1727_48283)">
<path d="M173.489 28.0687C173.011 36.4442 168.124 75.6867 160.188 84.2362C154.728 90.1184 130.695 105.671 116.569 112.294C112.847 114.047 101.712 84.3457 106.845 81.8331C113.338 78.6117 138.448 64.4378 142.428 61.4161C146.245 58.5363 154.785 37.3913 163.923 22.9726C168.627 15.5377 173.993 19.2809 173.489 28.0687Z" fill="#F7A9A0"/>
<path d="M119.026 110.956C115.77 112.888 97.5378 122.095 92.7261 123.152C87.9145 124.208 73.8324 126.218 72.6988 122.507C71.5651 118.796 75.6084 117.914 75.6084 117.914C75.6084 117.914 69.5435 117.798 68.6807 113.977C67.8179 110.157 74.2166 108.933 74.2166 108.933C74.2166 108.933 67.9942 108.353 67.4211 104.481C66.848 100.609 73.4608 100.473 73.4608 100.473C73.4608 100.473 67.7486 100.216 68.5925 96.8203C69.6002 92.7421 80.0799 94.4365 85.3072 92.8645C86.4912 92.5037 108.849 83.8447 108.849 83.8447L119.026 110.956Z" fill="#F7A9A0"/>
<path d="M72.9068 100.517C80.6218 101.741 84.199 100.917 91.2527 97.7919C91.3849 97.734 91.5046 97.9272 91.366 98.0046C84.7406 101.709 80.3951 103.404 72.8313 100.897C72.4597 100.762 72.5416 100.446 72.9068 100.517Z" fill="#263238"/>
<path d="M73.6165 108.828C81.7345 109.389 85.6266 108.525 93.2471 105.813C93.2721 105.803 93.3001 105.803 93.325 105.814C93.3498 105.825 93.3693 105.845 93.3793 105.871C93.3894 105.897 93.389 105.925 93.3784 105.951C93.3678 105.976 93.3477 105.996 93.3227 106.006C86.0675 109.305 81.6904 110.903 73.6542 109.228C73.289 109.176 73.2449 108.803 73.6165 108.828Z" fill="#263238"/>
<path d="M75.9873 117.763C83.8849 117.724 88.1927 116.97 95.259 113.363C95.2924 113.343 95.332 113.338 95.3693 113.348C95.4065 113.358 95.4382 113.383 95.4574 113.417C95.4766 113.451 95.4817 113.492 95.4717 113.53C95.4617 113.568 95.4372 113.601 95.4038 113.62C88.5454 118.014 83.1796 119 76.0125 118.008C75.5276 117.943 75.4898 117.769 75.9873 117.763Z" fill="#263238"/>
<path d="M114.914 83.2555C114.914 83.2555 105.82 79.5767 101.481 78.8616C97.1413 78.1465 79.9921 81.5804 80.5086 85.4138C81.1698 90.3554 91.448 90.3682 96.4864 89.6982C96.4864 89.6982 98.0105 101.14 105.385 102.783C112.76 104.426 114.914 83.2555 114.914 83.2555Z" fill="#F7A9A0"/>
<path d="M81.1242 86.71C84.9029 90.7689 91.4654 89.461 96.3966 89.184C96.4691 89.1774 96.542 89.1887 96.6093 89.2171C96.6766 89.2454 96.7362 89.2899 96.7831 89.3467C96.8301 89.4036 96.8629 89.4712 96.879 89.5438C96.895 89.6164 96.8937 89.6918 96.8753 89.7638C97.8326 94.5121 100.528 100.935 105.126 102.952C105.148 102.967 105.166 102.989 105.175 103.015C105.184 103.041 105.184 103.069 105.175 103.095C105.166 103.122 105.149 103.144 105.127 103.159C105.104 103.174 105.077 103.18 105.05 103.177C99.8353 101.696 96.6801 95.6073 95.9621 90.3372C90.9238 90.698 84.2794 91.7159 81.0864 86.7422L81.1242 86.71Z" fill="#263238"/>
<path d="M-0.0680491 40.7866C3.57215 63.9803 7.9492 92.4313 13.9448 97.3341C23.3161 104.995 40.4906 110.986 50.5358 111.759C54.7176 112.081 67.0741 79.7907 62.6026 79.5008C53.0612 78.8565 37.1401 78.2831 34.9358 76.608C32.8449 75.0231 22.34 53.6269 14.0078 36.9789C4.0256 16.9486 -2.17155 27.3793 -0.0680491 40.7866Z" fill="#EF8F81"/>
<path d="M57.8923 79.2559C57.8923 79.2559 70.5449 79.7326 78.644 81.0147C83.1659 81.7299 90.8179 84.2683 93.9038 86.3493C98.5202 89.4547 115.871 105.471 112.168 109.859C108.811 113.834 95.6106 98.133 95.6106 98.133C95.6106 98.133 110.297 112.771 105.404 116.817C100.51 120.863 87.8956 101.077 87.8956 101.077C87.8956 101.077 102.658 116.456 96.9646 119.761C92.6632 122.293 80.2563 105.027 80.2563 105.027C80.2563 105.027 92.8521 118.337 88.538 121.133C83.7705 124.213 71.3447 109.028 71.3447 109.028C59.2149 114.22 51.6196 113.177 46.2538 110.645C46.2538 110.658 53.6853 88.5076 57.8923 79.2559Z" fill="#EF8F81"/>
<path d="M90.8481 92.7857C92.6304 94.4415 94.4505 96.1037 96.0879 97.9399C97.7254 99.7761 99.2999 101.625 100.767 103.584C104.357 108.39 105.869 111.959 105.749 111.766C102.984 106.773 97.2216 100.169 95.5841 98.3844C93.9467 96.5998 92.4352 94.6799 90.7788 92.8759C90.7221 92.7857 90.804 92.7149 90.8481 92.7857Z" fill="#263238"/>
<path d="M84.3441 98.6797C87.2537 100.406 93.8288 107.474 96.6817 112.441C96.8014 112.647 96.6817 112.647 96.5243 112.441C94.5089 110.077 86.4098 100.954 84.2874 98.699C84.2559 98.6925 84.3063 98.6539 84.3441 98.6797Z" fill="#263238"/>
<path d="M77.8674 102.74C81.3186 105.349 84.4424 109.15 87.1127 113.692C87.2324 113.899 87.056 113.892 86.9049 113.692C83.9008 109.994 81.5642 107.069 77.7603 102.862C77.6973 102.798 77.7855 102.675 77.8674 102.74Z" fill="#263238"/>
</g>
<path d="M82.71 177.314C81.9369 172.032 81.686 166.732 81.9582 161.435C81.6952 156.192 81.9461 150.944 82.71 145.714C83.4738 150.944 83.7248 156.192 83.4618 161.435C83.734 166.732 83.4831 172.032 82.71 177.314Z" fill="#FFD000"/>
<path d="M82.71 177.314C82.71 177.314 82.2197 177.314 81.9132 172.655C81.9132 169.688 81.9132 165.731 81.9132 161.514C81.9132 157.297 81.9132 153.341 81.9132 150.373C81.9132 145.714 82.5261 145.714 82.71 145.714C82.8939 145.714 83.2003 145.714 83.4455 150.373C83.4455 153.341 83.4455 157.297 83.4455 161.514C83.4455 165.731 83.4455 169.688 83.4455 172.655C83.2003 177.314 82.8939 177.314 82.71 177.314ZM82.71 145.818C82.281 146.417 81.8519 152.378 81.8519 161.436C81.8519 170.494 82.281 176.559 82.71 177.054C83.139 176.481 83.5681 170.494 83.5681 161.436C83.5681 152.378 83.139 146.365 82.71 145.766V145.818Z" fill="#FFD000"/>
<path d="M61.2508 136.937C61.4558 136.937 57.4143 143.815 52.2306 152.059C47.0469 160.302 42.6247 166.886 42.3904 166.779C42.1561 166.672 46.2269 159.874 51.4399 151.657C56.6528 143.441 61.0458 136.83 61.2508 136.937Z" fill="#FFD000"/>
<path d="M42.3844 166.78C42.3844 166.78 42.1793 166.78 44.8458 162.232C46.5453 159.412 48.8601 155.662 51.38 151.592C53.9 147.522 56.332 143.931 58.178 141.165C59.009 139.646 60.0423 138.226 61.2547 136.936C61.2547 136.936 61.4597 136.936 58.764 141.484C57.0645 144.304 54.7497 148.054 52.2298 152.124C47.7466 159.146 42.7947 166.647 42.3844 166.754V166.78ZM61.1667 137.175C60.6686 137.627 56.8887 143.16 51.4386 151.725C45.9885 160.29 42.6482 166.036 42.4138 166.674C42.9412 166.222 46.6918 160.689 52.1419 152.097C57.592 143.506 60.9909 137.813 61.1667 137.175Z" fill="#FFD000"/>
<path d="M37.2326 121.135C34.3556 124.461 31.2872 127.559 28.0483 130.407C24.9778 133.41 21.7398 136.177 18.3552 138.691C21.2203 135.426 24.2901 132.409 27.5395 129.665C30.5966 126.568 33.8353 123.717 37.2326 121.135Z" fill="#FFD000"/>
<path d="M18.4086 136.935C18.4086 136.935 18.4086 136.768 21.0825 134.339C22.8205 132.803 25.1468 130.794 27.6869 128.756C30.7172 126.015 33.905 123.47 37.2326 121.135C34.3657 124.124 31.3203 126.922 28.1147 129.509C25.6013 131.603 23.1948 133.529 21.3766 135.093C20.4707 135.843 19.4725 136.462 18.4086 136.935ZM37.1256 121.274C33.779 123.569 30.5648 126.067 27.4998 128.756C24.3141 131.27 21.2614 133.963 18.3552 136.823C21.7224 134.582 24.9631 132.14 28.0613 129.509C31.2524 126.942 34.3053 124.193 37.2059 121.274H37.1256Z" fill="#FFD000"/>
<path d="M123.037 163.27C122.468 161.847 122.053 160.375 121.798 158.876C121.131 156.162 120.178 152.388 118.97 148.288C117.763 144.189 116.587 140.473 115.793 137.789C115.218 136.371 114.772 134.911 114.458 133.425C115.291 134.733 115.952 136.129 116.428 137.583C117.509 140.208 118.811 143.894 120.019 148.052C121.062 151.578 121.911 155.151 122.561 158.758C122.897 160.241 123.057 161.754 123.037 163.27Z" fill="#FFD000"/>
<path d="M123.002 163.27C122.845 163.27 122.657 162.592 121.714 158.822C121.118 156.289 120.144 152.43 118.95 148.247C117.757 144.065 116.5 140.235 115.809 137.791C114.615 134.256 114.395 133.461 114.552 133.431C114.71 133.402 114.552 133.431 115.244 134.521C115.935 135.611 116.06 136.406 116.563 137.614C117.285 139.381 118.699 143.122 120.112 148.041C121.526 152.96 122.28 156.878 122.625 158.763C122.931 160.247 123.068 161.758 123.034 163.27H123.002ZM114.458 133.52C114.458 133.844 115.055 135.581 115.778 137.761C116.594 140.206 117.819 143.947 118.919 148.218C120.018 152.489 121.086 156.289 121.683 158.822C122.28 161.355 122.688 162.857 122.845 163.152C122.793 161.657 122.604 160.169 122.28 158.704C121.934 156.819 121.18 152.813 119.767 148.012C118.353 143.21 116.94 139.381 116.217 137.584C115.745 136.188 115.157 134.829 114.458 133.52Z" fill="#FFD000"/>
<path d="M160.794 133.424C156.813 130.277 153.001 126.888 149.376 123.274C145.565 119.85 141.929 116.206 138.484 112.357C142.454 115.531 146.266 118.929 149.902 122.536C153.702 125.964 157.337 129.598 160.794 133.424Z" fill="#FFD000"/>
<path d="M160.78 133.424C156.836 130.249 153.044 126.861 149.417 123.273C146.458 120.445 143.683 117.815 141.562 115.751C138.368 112.555 138.447 112.471 138.499 112.386C142.442 115.561 146.235 118.949 149.862 122.537C152.82 125.365 155.596 127.995 157.716 130.059C160.91 133.226 160.832 133.34 160.78 133.396V133.424ZM138.656 112.357C138.944 112.895 143.028 117.023 149.469 123.075C155.91 129.126 160.23 132.972 160.753 133.226C160.465 132.689 156.381 128.561 149.94 122.481C143.5 116.401 139.18 112.697 138.656 112.357Z" fill="#FFD000"/>
<path d="M177.955 94.8009C176.35 94.6759 174.755 94.3766 173.186 93.906C170.248 93.2616 166.206 92.4024 161.706 91.7222C157.206 91.0421 153.11 90.6483 150.146 90.3977C148.537 90.3848 146.933 90.1932 145.349 89.8249C146.947 89.5323 148.563 89.4603 150.172 89.6101C153.164 89.6101 157.287 89.9323 161.814 90.6125C166.341 91.2927 170.383 92.295 173.293 93.1184C174.885 93.4742 176.447 94.0378 177.955 94.8009Z" fill="#FFD000"/>
<path d="M177.821 94.8009C177.471 94.8009 176.503 94.5899 174.135 94.0622L173.194 93.8511C169.185 92.9717 165.338 92.2681 161.733 91.7405C158.128 91.2128 154.254 90.7555 150.191 90.4037H149.25C145.995 90.1223 145.349 90.0519 145.349 89.8761C146.954 89.5988 148.575 89.5163 150.191 89.6298C152.236 89.6298 156.487 89.8409 161.814 90.65C167.14 91.459 171.283 92.5496 173.301 93.1124C174.89 93.4623 176.449 94.0161 177.955 94.7658C177.955 94.7658 177.955 94.8009 177.821 94.8009ZM145.537 89.8409C145.806 89.8409 147.313 90.0519 149.304 90.2278H150.245C154.334 90.5796 158.316 91.0017 161.787 91.5646C165.257 92.1274 169.266 92.7958 173.247 93.6752L174.189 93.8863C176.099 94.3084 177.525 94.625 177.902 94.625C176.41 93.9467 174.881 93.4175 173.328 93.042C171.337 92.4792 167.167 91.3887 161.84 90.5796C157.991 89.9858 154.121 89.6453 150.245 89.5595C148.655 89.4838 147.062 89.5779 145.483 89.8409H145.537Z" fill="#FFD000"/>
<path d="M177.955 54.4414C177.955 54.7129 169.215 57.2465 158.317 60.142C147.419 63.0376 138.54 65.1791 138.485 64.9378C138.429 64.6965 147.225 62.1327 158.123 59.2372C169.021 56.3416 177.9 54.2001 177.955 54.4414Z" fill="#FFD000"/>
<path d="M138.484 64.9563C138.484 64.9563 138.484 64.7455 144.234 63.0593C147.938 61.9752 152.885 60.6202 158.054 59.235C163.223 57.8498 168.309 56.555 172.04 55.6516C177.9 54.2363 177.928 54.3869 177.955 54.4772C177.955 54.4772 177.955 54.7181 172.206 56.3743C168.502 57.4583 163.555 58.8134 158.386 60.2287C153.217 61.644 148.131 62.8786 144.4 63.782C142.45 64.2962 140.475 64.6883 138.484 64.9563ZM177.762 54.4471C176.96 54.4471 169.47 56.2237 158.026 59.2651C146.583 62.3065 139.203 64.4745 138.484 64.866C139.286 64.866 146.777 63.0894 158.22 60.0781C169.663 57.0669 177.043 54.8386 177.762 54.4471Z" fill="#FFD000"/>
<path d="M133.329 10.5342C133.517 10.5342 129.449 17.0427 124.231 24.7896C121.213 29.5588 117.953 34.1758 114.464 38.6235C114.277 38.6235 118.344 32.115 123.562 24.3417C128.78 16.5684 133.142 10.5342 133.329 10.5342Z" fill="#FFD000"/>
<path d="M114.458 40.3791C114.458 39.9878 119.083 32.2751 123.548 25.2051C126.221 21.237 128.467 17.5203 130.312 14.7538C133.119 10.5342 133.253 10.5342 133.333 10.5342C133.333 10.5342 133.52 10.5342 130.847 15.0892C129.135 17.8836 126.81 21.712 124.297 25.6802C121.783 29.6483 119.351 33.3929 117.479 36.1594C114.806 40.0158 114.565 40.3791 114.458 40.3791ZM133.253 10.5342C132.771 10.9813 129.029 16.5143 123.575 25.1492C118.121 33.7841 114.806 39.5966 114.512 40.2673C114.993 39.7922 118.736 34.2592 124.19 25.6243C129.643 16.9894 133.065 11.2607 133.253 10.5342Z" fill="#FFD000"/>
<path d="M90.1193 0C90.4766 1.87648 90.4766 3.75777 90.1193 5.63425C90.1193 9.12749 90.1193 14.0856 90.1193 19.2973C90.1193 24.509 90.1193 29.4671 90.1193 32.9885C90.537 34.8644 90.537 36.7469 90.1193 38.6228C89.0162 36.7629 88.4027 34.8787 88.2846 32.9885C87.5507 29.4671 87.0003 24.5372 87.0003 19.2691C87.0003 14.0011 87.459 9.07114 88.1929 5.57791C88.2481 3.70388 88.8932 1.83589 90.1193 0Z" fill="#FFD000"/>
<path d="M90.0573 38.6228C90.0573 38.6228 90.0574 38.6228 89.21 37.0812C89.21 36.0442 88.5321 34.6148 88.1931 32.9611C88.1931 30.6067 87.0916 25.7298 87.0068 19.3114C86.9221 12.8929 87.6847 8.10014 88.1084 5.68972C88.1084 4.03606 88.7863 2.60662 89.0405 1.56957C89.5489 0.084083 89.7184 0 89.8878 0C90.6141 1.86082 90.6141 3.74481 89.8878 5.60563C89.8878 8.88492 89.8878 13.8459 89.8878 19.1993C89.8878 24.5527 89.8878 29.1493 89.8878 32.5967V32.821C89.8878 37.9781 89.8878 38.4266 89.8878 38.4266L90.0573 38.6228ZM90.0573 0.140139C89.234 1.99784 88.7248 3.86929 88.5321 5.74577C88.5321 8.10013 87.4305 13.0051 87.4305 19.3675C87.4305 25.7298 88.1932 30.5787 88.6168 33.0172C88.8622 34.8936 89.3996 36.7646 90.2268 38.6228C90.2268 38.1463 90.2268 35.1193 90.2268 33.0172V32.7929C90.2268 29.3455 90.2268 24.6087 90.2268 19.3955C90.2268 14.1822 90.2268 9.08112 90.2268 5.7738C90.0573 3.64366 90.2268 0.616617 89.8878 0.140139H90.0573Z" fill="#FFD000"/>
<path d="M54.3898 42.1342C54.2041 42.1342 50.6297 36.0417 46.3588 28.2971C42.088 20.5524 38.7921 14.176 38.9545 14.0469C39.117 13.9178 42.7844 20.1394 46.9623 27.884C51.1403 35.6287 54.5291 42.0051 54.3898 42.1342Z" fill="#FFD000"/>
<path d="M54.3545 42.1085C54.3545 42.1085 53.9613 41.7992 51.8566 38.1399C50.3532 35.5629 48.3872 32.0324 46.3287 28.2957C42.6974 21.6728 38.8579 14.4057 38.9504 14.0449C38.9504 14.0449 39.1123 14.0449 41.4715 18.0135C42.9749 20.5905 44.9409 24.121 46.9994 27.8576C49.0579 31.5943 50.9545 35.1506 52.3423 37.8306C54.5164 42.0311 54.4239 42.1085 54.3777 42.1342L54.3545 42.1085ZM38.9967 14.1222C39.1355 14.7407 41.911 20.1524 46.3749 28.2442C50.8389 36.336 53.8688 41.5931 54.3545 41.9538C54.2158 41.3611 51.4402 35.9494 46.9763 27.8319C42.5123 19.7143 39.413 14.5603 38.9967 14.1222Z" fill="#FFD000"/>
<path d="M35.5167 61.4459C34.1274 61.3611 32.75 61.1192 31.4073 60.724C28.7389 60.1465 25.35 59.2225 21.5608 58.0098C17.7717 56.797 14.3294 55.5266 11.9011 54.5159C10.5593 54.0608 9.27002 53.4407 8.05859 52.668C9.43483 52.9436 10.7839 53.3594 12.0879 53.9096C14.5695 54.7758 17.9851 55.9308 21.7743 57.1435C25.5634 58.3563 29.0324 59.3669 31.5407 60.031C32.903 60.3711 34.2338 60.8446 35.5167 61.4459Z" fill="#FFD000"/>
<path d="M36.9779 61.3892H35.9057L32.774 60.6801C30.9683 60.2831 27.1312 59.4323 22.3631 57.9859C17.5949 56.5395 13.8989 55.1498 12.1779 54.5542L9.159 53.3063C8.03044 52.8242 8.05866 52.7391 8.05866 52.6824C8.05866 52.6257 8.67935 52.6824 12.4036 53.8735C14.4914 54.5542 18.4131 55.8021 22.6452 57.0783C26.8773 58.3546 29.9808 59.177 32.9433 59.9144C36.7239 60.9354 37.26 61.1339 37.2318 61.2757C37.2318 61.2757 37.1471 61.3892 36.9779 61.3892ZM8.08687 52.8809C9.38989 53.5516 10.7381 54.1297 12.1214 54.6109C13.8425 55.2916 17.4821 56.6245 22.3067 58.0426C27.1312 59.4606 30.9119 60.3398 32.7176 60.7369C34.1201 61.0699 35.5434 61.3068 36.9779 61.4459C36.6957 61.2757 34.5232 60.6801 32.8022 60.198C29.8115 59.4039 26.3412 58.4396 22.4759 57.3619C18.6106 56.2842 14.3221 54.8378 12.2343 54.1571C10.6543 53.4481 8.45365 52.7391 8.08687 52.7391V52.8809Z" fill="#FFD000"/>
<path d="M26.9358 89.5349C22.9845 90.6954 18.9894 91.4768 14.974 91.8746C10.9742 92.6748 6.94389 93.0657 2.90994 93.0445C6.87041 91.8895 10.8738 91.1081 14.8973 90.7048C18.8885 89.9059 22.9103 89.515 26.9358 89.5349Z" fill="#FFD000"/>
<path d="M3.59931 94.726C3.3717 94.8259 3.13756 94.8259 2.90994 94.726C6.86494 93.0069 10.8643 91.8445 14.8846 91.2458C18.8829 90.1427 22.9071 89.5712 26.9358 89.5342C22.9808 91.2533 18.9814 92.4156 14.9611 93.0144C10.3653 93.8702 5.4121 94.726 3.59931 94.726ZM2.98654 94.726C6.9894 94.6178 10.9867 94.0275 14.9611 92.9573C18.9521 92.3321 22.9244 91.2083 26.8592 89.5912C22.8563 89.7008 18.859 90.2912 14.8846 91.3599C10.8955 91.9096 6.92327 92.9572 2.98654 94.4978V94.726Z" fill="#FFD000"/>
<path d="M175.5 15.3333L189.494 34L205.561 2" stroke="#FFD000" stroke-width="2"/>
</svg>
