<svg width="178" height="174" viewBox="0 0 178 174" fill="none" xmlns="http://www.w3.org/2000/svg">
<rect x="0.5" width="174" height="174" rx="87" fill="#969B9E"/>
<path d="M86.8837 162.118L75.6687 141.003L84.7181 114.938V98.9658L57.0673 114.938V131.18L68.9397 151.754C69.119 152.075 69.4069 152.322 69.7518 152.45L86.8837 162.118Z" fill="#FFD000"/>
<path opacity="0.1" d="M86.8837 162.118L75.6687 141.003L84.7181 114.938V98.9658L57.0673 114.938V131.18L68.9397 151.754C69.119 152.075 69.4069 152.322 69.7518 152.45L86.8837 162.118Z" fill="black"/>
<path d="M74.3925 141.04L86.2649 161.653C86.4368 161.945 86.6884 162.181 86.9901 162.335C87.2919 162.489 87.6312 162.553 87.9683 162.521C88.3054 162.488 88.6263 162.36 88.8931 162.152C89.16 161.943 89.3617 161.663 89.4747 161.344L102.043 125.107V109.136L74.3925 125.107V141.04Z" fill="#FFD000"/>
<path d="M17.8146 56.348L111.905 1.97452C114.47 0.676377 117.305 0 120.181 0C123.056 0 125.891 0.676377 128.456 1.97452L135.224 5.84176C137.634 7.42421 139.638 9.55046 141.075 12.0492C142.513 14.548 143.343 17.3494 143.5 20.2279V91.5785C143.346 94.4525 142.517 97.2497 141.079 99.7427C139.641 102.236 137.635 104.354 135.224 105.926L41.1341 160.338C38.5608 161.634 35.7198 162.309 32.8388 162.309C29.9578 162.309 27.1169 161.634 24.5436 160.338L17.8146 156.471C15.3922 154.908 13.3753 152.792 11.9299 150.298C10.4844 147.804 9.65164 145.002 9.5 142.123V70.6955C9.66086 67.8188 10.4975 65.0206 11.9422 62.5278C13.3868 60.035 15.3986 57.9178 17.8146 56.348Z" fill="#FFD000"/>
<path opacity="0.5" d="M17.8146 56.348L111.905 1.97452C114.47 0.676377 117.305 0 120.181 0C123.056 0 125.891 0.676377 128.456 1.97452L135.224 5.84176C137.634 7.42421 139.638 9.55046 141.075 12.0492C142.513 14.548 143.343 17.3494 143.5 20.2279V91.5785C143.346 94.4525 142.517 97.2497 141.079 99.7427C139.641 102.236 137.635 104.354 135.224 105.926L41.1341 160.338C38.5608 161.634 35.7198 162.309 32.8388 162.309C29.9578 162.309 27.1169 161.634 24.5436 160.338L17.8146 156.471C15.3922 154.908 13.3753 152.792 11.9299 150.298C10.4844 147.804 9.65164 145.002 9.5 142.123V70.6955C9.66086 67.8188 10.4975 65.0206 11.9422 62.5278C13.3868 60.035 15.3986 57.9178 17.8146 56.348Z" fill="white"/>
<path d="M143.384 20.2669C143.384 14.9688 139.517 12.8031 135.108 15.4715L41.0181 69.6129C38.5992 71.1888 36.5858 73.3127 35.1412 75.8122C33.6966 78.3117 32.8614 81.1165 32.7035 83.9991V155.543C32.7035 160.841 36.5707 162.968 41.0181 160.338L135.108 105.965C137.519 104.393 139.525 102.275 140.963 99.7816C142.401 97.2886 143.231 94.4915 143.384 91.6175V20.2669Z" fill="#FFD000"/>
<path d="M110.512 95.2143C108.527 94.3887 106.5 93.6659 104.441 93.0486C100.38 91.6564 96.7062 92.7779 93.5737 98.5014C93.0304 99.7605 92.1004 100.814 90.9184 101.509C89.7365 102.205 88.3639 102.506 86.9994 102.369C83.8177 102.322 80.7064 101.426 77.9869 99.7737C75.2674 98.1216 73.0384 95.7732 71.5304 92.9713C70.7417 91.5336 70.4952 89.8606 70.8359 88.2566C71.1766 86.6526 72.0817 85.2242 73.3867 84.2313C74.3358 83.469 75.1175 82.5193 75.6831 81.4413C76.2486 80.3634 76.5859 79.1805 76.6739 77.9664C76.6739 74.7179 68.4753 66.5967 65.3042 66.5967C63.8991 66.6673 62.5495 67.1666 61.4369 68.0275C54.0118 73.2096 50.918 80.4414 53.7024 86.629C62.5197 104.998 77.9887 114.396 99.2972 115.827C100.386 115.835 101.473 115.745 102.546 115.556C108.223 112.739 112.589 107.832 114.728 101.866C116.313 96.8385 112.949 96.2971 110.319 95.0982L110.512 95.2143Z" fill="#3C474C"/>
<path d="M86.6127 60.331C102.082 57.0825 109.391 61.8779 111.363 76.8441C111.363 78.1976 111.015 80.7114 113.065 79.8993C115.114 79.0871 114.728 77.1922 114.728 75.7226C114.728 60.8724 102.043 51.8617 87.0767 56.8118C85.9552 57.3919 83.5962 57.2759 83.4415 59.8669C83.4415 61.6072 85.3365 60.6017 86.6127 60.331Z" fill="#3C474C"/>
<path d="M89.6677 63.5407C88.1595 63.8887 86.1872 63.9274 85.8005 66.1317C85.4138 68.3361 87.6568 67.408 89.049 67.2146C98.6784 65.8611 102.043 68.1427 103.628 77.1148C103.861 78.4296 103.396 80.7499 105.755 79.5511C107.496 78.6229 106.877 76.9987 107.032 75.6838C107.032 66.4798 99.2972 60.9884 89.6291 63.3474L89.6677 63.5407Z" fill="#3C474C"/>
<path d="M90.5573 70.6945C90.0262 70.8296 89.5352 71.0896 89.1248 71.4529C88.7145 71.8161 88.3969 72.272 88.1983 72.7828C87.6569 74.5617 88.8171 74.523 89.9772 74.291C93.8445 73.4789 96.0101 75.0645 96.3968 78.8544C96.3968 79.8599 97.209 80.4786 98.2145 80.0146C98.7797 79.7131 99.2344 79.2395 99.5125 78.6624C99.7906 78.0853 99.8778 77.4347 99.7614 76.8047C99.7041 75.7328 99.397 74.6892 98.8645 73.7571C98.3321 72.8251 97.589 72.0305 96.6947 71.4368C95.8004 70.8431 94.7797 70.4668 93.714 70.3379C92.6484 70.209 91.5673 70.3311 90.5573 70.6945Z" fill="#3C474C"/>
<path d="M9.5 142.084C9.65164 144.963 10.4844 147.765 11.9299 150.259C13.3753 152.753 15.3922 154.869 17.8146 156.432L24.5436 160.299C26.8801 161.475 29.4396 162.142 32.0528 162.255C34.6661 162.368 37.2737 161.926 39.7032 160.956C35.8359 162.426 32.8195 160.222 32.8195 155.504V84.1917C32.9186 81.2958 33.7574 78.4733 35.2559 75.9931L12.0524 62.5352C10.5555 65.0019 9.71661 67.8114 9.61604 70.695L9.5 142.084Z" fill="#FFD000"/>
<path opacity="0.1" d="M9.5 142.084C9.65164 144.963 10.4844 147.765 11.9299 150.259C13.3753 152.753 15.3922 154.869 17.8146 156.432L24.5436 160.299C26.8801 161.475 29.4396 162.142 32.0528 162.255C34.6661 162.368 37.2737 161.926 39.7032 160.956C35.8359 162.426 32.8195 160.222 32.8195 155.504V84.1917C32.9186 81.2958 33.7574 78.4733 35.2559 75.9931L12.0524 62.5352C10.5555 65.0019 9.71661 67.8114 9.61604 70.695L9.5 142.084Z" fill="black"/>
</svg>
