<svg width="197" height="174" viewBox="0 0 197 174" fill="none" xmlns="http://www.w3.org/2000/svg">
<rect x="8.5" width="174" height="174" rx="87" fill="#969B9E"/>
<path d="M150.459 111.119C149.154 111.452 147.804 111.572 146.461 111.475C143.235 111.254 140.211 109.825 137.993 107.474C135.774 105.122 134.523 102.021 134.491 98.7878C134.458 95.5549 135.645 92.4285 137.816 90.0323C139.986 87.6362 142.98 86.1464 146.201 85.8604C149.421 85.5743 152.631 86.513 155.19 88.489C157.748 90.4651 159.468 93.3333 160.006 96.5213C160.543 99.7094 159.859 102.983 158.089 105.689C156.32 108.395 153.595 110.334 150.459 111.119Z" fill="#DBDBDB"/>
<path d="M151.511 98.4736C151.276 99.2091 150.829 99.8585 150.225 100.34C149.621 100.821 148.888 101.112 148.119 101.177C147.35 101.242 146.578 101.077 145.903 100.703C145.227 100.329 144.678 99.7637 144.324 99.0777C143.969 98.3916 143.827 97.616 143.913 96.8489C144 96.0817 144.312 95.3575 144.81 94.7678C145.309 94.1781 145.971 93.7494 146.713 93.5359C147.455 93.3224 148.243 93.3337 148.979 93.5684C149.965 93.8831 150.786 94.5767 151.261 95.4966C151.736 96.4165 151.826 97.4874 151.511 98.4736Z" fill="white"/>
<path d="M150.947 109.591L150.459 111.119C149.154 111.452 147.804 111.571 146.461 111.474C144.765 111.358 143.109 110.904 141.59 110.14C140.072 109.375 138.721 108.315 137.618 107.022L138.106 105.494C138.345 104.615 138.759 103.794 139.324 103.08C139.889 102.366 140.592 101.773 141.392 101.338C142.191 100.903 143.071 100.635 143.977 100.549C144.884 100.463 145.798 100.561 146.666 100.838C147.533 101.114 148.335 101.564 149.024 102.159C149.713 102.754 150.275 103.482 150.675 104.3C151.075 105.118 151.305 106.009 151.352 106.918C151.399 107.827 151.261 108.736 150.947 109.591Z" fill="white"/>
<path d="M184.661 149.798L166.866 142.609L180.907 115.848L196.92 126.421L184.661 149.798Z" fill="#FFC727"/>
<path d="M174.983 105.99L154.266 145.485L124.107 133.992L45.3981 123.637L95.1767 28.7989L148.396 87.7074L174.983 105.99Z" fill="#FFC727"/>
<path d="M174.983 105.99L154.266 145.485L136 136.5L148.396 97.0002L95.1767 50.0002L95.1767 28.7988L148.396 87.7074L174.983 105.99Z" fill="black" fill-opacity="0.2"/>
<path d="M84.0549 83.4742C97.8687 57.1586 102.211 32.2268 93.7547 27.7876C85.2978 23.3484 67.2439 41.0827 53.43 67.3983C39.6162 93.7139 35.2734 118.646 43.7302 123.085C52.1871 127.524 70.241 109.79 84.0549 83.4742Z" fill="#FFC727"/>
<path d="M80.9239 80.7844C93.1878 57.4216 97.5159 35.5355 90.5911 31.9005C83.6663 28.2654 68.1108 44.2579 55.8469 67.6207C43.5831 90.9835 39.2549 112.87 46.1798 116.505C53.1046 120.14 68.6601 104.147 80.9239 80.7844Z" fill="#3C474C"/>
<path d="M78.9011 79.6418C77.2593 82.7512 75.6279 85.7445 73.8462 88.5441C71.867 88.9414 69.8157 88.7701 67.9299 88.0499C66.044 87.3296 64.4007 86.09 63.1902 84.4745C61.9797 82.859 61.2515 80.9337 61.0899 78.9215C60.9283 76.9093 61.34 74.8924 62.2772 73.1044L64.6205 68.6277C65.5523 66.8436 66.9696 65.3594 68.7087 64.3462C70.4479 63.333 72.4381 62.8321 74.4496 62.9014C76.4612 62.9707 78.4122 63.6074 80.0775 64.7378C81.7428 65.8683 83.0545 67.4466 83.8614 69.2905C82.3834 72.7174 80.703 76.2387 78.9011 79.6418Z" fill="#FFC727"/>
<path d="M168.417 155.701L134 141.802L161.158 90.0551L192.152 110.486L168.417 155.701Z" fill="#3C474C"/>
<path opacity="0.2" d="M96.2055 37.6258C96.9763 41.6035 97.0208 45.6878 96.3369 49.6813C95.7303 53.6799 94.8045 57.6236 93.5686 61.4745C92.9542 63.4001 92.2796 65.3064 91.6089 67.2008C90.9382 69.0951 90.1312 70.9592 89.3161 72.8074C88.5009 74.6557 87.6858 76.504 86.7902 78.3133C85.8947 80.1226 85.0112 81.9358 84.0714 83.7177C80.3291 90.8816 75.9382 97.6875 70.9539 104.05C68.4453 107.224 65.6597 110.169 62.6298 112.851C59.643 115.595 56.1095 117.676 52.2614 118.957C56.0148 117.497 59.429 115.283 62.293 112.451C65.2199 109.717 67.8993 106.729 70.2999 103.523C75.1225 97.1171 79.3918 90.3127 83.0617 83.1834C86.8873 76.1383 90.12 68.7871 92.7261 61.2057C94.0486 57.4225 95.0699 53.5407 95.7805 49.5966C96.6125 45.6608 96.7562 41.6107 96.2055 37.6258Z" fill="black"/>
<path d="M62.3317 17.2051C63.8877 19.5181 65.3368 21.9165 66.7018 24.288C68.0667 26.6594 69.4731 29.1502 70.8304 31.5457C72.1876 33.9413 73.4704 36.4456 74.7132 38.9505L76.5552 42.6941C77.1309 43.9651 77.7504 45.2236 78.2943 46.511C77.4964 45.3547 76.774 44.1695 76.0078 42.9968L73.8521 39.4051C72.4232 37.0264 71.0807 34.5428 69.7235 32.1473C68.3662 29.7517 67.0835 27.2474 65.8527 24.7463C64.622 22.2453 63.4355 19.7717 62.3317 17.2051Z" fill="#263238"/>
<path d="M52.3591 99.5756C49.2168 99.4084 46.0806 99.0972 42.9642 98.7659C39.8478 98.4345 36.7072 98.0955 33.609 97.624C30.5107 97.1526 27.3932 96.7414 24.2901 96.2021L19.6452 95.383C18.115 95.0672 16.5613 94.7836 15.0306 94.4278C16.5976 94.5035 18.1657 94.659 19.7371 94.7626L24.4255 95.2375C27.5496 95.5448 30.6824 95.9079 33.7807 96.3793C36.879 96.8508 39.9964 97.262 43.0957 97.8134C46.195 98.3647 49.29 98.8881 52.3591 99.5756Z" fill="#263238"/>
<path d="M0.569254 71.5552C5.06946 72.6198 9.53126 73.8047 14.0456 75.0329C18.5599 76.2611 22.9346 77.5111 27.3618 78.8044C31.7891 80.0977 36.213 81.4429 40.65 82.8719L47.245 84.9762C49.4474 85.6789 51.6498 86.3816 53.8022 87.2407C51.5422 86.7186 49.3174 86.128 47.0689 85.5697L40.3702 83.7903C35.9122 82.5934 31.485 81.3001 26.9937 79.9997C22.5025 78.6992 18.1464 77.3491 13.7094 75.9202C9.27244 74.4912 4.92406 73.117 0.569254 71.5552Z" fill="#263238"/>
<path d="M37.4884 10.2461C40.4753 13.8511 43.3515 17.5534 46.2119 21.2639C49.0723 24.9744 51.8812 28.7216 54.6742 32.4769C57.4673 36.2322 60.2209 40.028 62.8951 43.8648L66.9204 49.6177C68.22 51.5706 69.5591 53.4829 70.8389 55.456C69.3335 53.6496 67.8762 51.8587 66.4178 49.9878L62.1155 44.4381C59.2392 40.7358 56.4462 36.9805 53.6531 33.2252C50.8601 29.4698 48.1103 25.662 45.4323 21.8373C42.7542 18.0126 40.0444 14.2042 37.4884 10.2461Z" fill="#263238"/>
<path d="M60.8854 70.8177C56.0054 68.4915 51.1797 66.0368 46.3813 63.5379C41.583 61.0389 36.812 58.4956 32.0295 55.9884C27.2471 53.4812 22.5265 50.8214 17.818 48.1655L10.7512 44.1736C8.43231 42.7972 6.07396 41.4613 3.76657 40.0488C6.20658 41.2119 8.62739 42.4352 11.0477 43.6185L18.2937 47.2564C23.1036 49.7193 27.863 52.2987 32.6455 54.8059C37.428 57.3131 42.1485 59.9729 46.857 62.6288C51.5655 65.2848 56.2832 68.0365 60.8854 70.8177Z" fill="#263238"/>
</svg>
