<svg width="258" height="226" viewBox="0 0 258 226" fill="none" xmlns="http://www.w3.org/2000/svg">
<rect x="25" y="10" width="209" height="211.508" rx="25.0826" fill="#FFF2CB"/>
<path d="M76.1829 100.548C75.4604 100.548 65.1475 104.665 62.4324 114.782C59.7173 124.899 52.3056 162.016 52.3056 162.016L44.4341 172.921C44.4341 172.921 46.9849 192.815 61.4471 189.027C61.4471 189.027 71.1031 190.713 74.1795 180.924C77.2558 171.136 83.2224 141.935 83.2224 141.935L76.1829 100.548Z" fill="#B9B8B6"/>
<path d="M106.015 83.917L100.535 92.4584L75.8711 101.497L82.9303 175.229V219.22C105.005 230.279 162.803 222.799 167.064 222.469C169.004 222.413 169.351 218.207 169.669 215.473C169.943 213.018 169.734 210.532 169.055 208.163L164.967 193.385C165.57 202.581 162.895 138.521 162.774 136.182L168.748 103.226L140.687 91.5206L136.302 84.6175L123.674 94.5146L106.015 83.917Z" fill="#B9B8B6"/>
<path d="M168.41 102.481C168.41 102.481 174.179 107.452 175.131 111.278C176.083 115.105 196.827 159.188 196.827 159.188L207.132 161.915L209.887 167.523C211.497 170.738 211.93 174.399 211.114 177.892C210.298 181.384 208.283 184.494 205.407 186.699C205.049 186.967 204.675 187.213 204.287 187.436C198.686 190.735 188.717 190.559 182.882 183.808C177.36 177.408 161.197 154.404 161.197 154.404V126.255L168.41 102.481Z" fill="#B9B8B6"/>
<path d="M205.995 181.998C209.495 184.498 211.864 174.247 219.557 170.543C227.25 166.839 236.609 165.346 245.801 164.615C248.412 164.408 251.146 164.233 253.376 163.235C257.786 161.28 258.463 156.568 255.75 153.498C253.038 150.427 247.784 148.862 242.655 148.549C242.655 148.549 204.215 154.878 201.495 164.615" fill="#FFA093"/>
<path d="M205.995 181.998C209.495 184.498 211.864 174.247 219.557 170.543C227.25 166.839 236.609 165.346 245.801 164.615C248.412 164.408 251.146 164.233 253.376 163.235C257.786 161.28 258.463 156.568 255.75 153.498C253.038 150.427 247.784 148.862 242.655 148.549C242.655 148.549 204.215 154.878 201.495 164.615C199.761 165.707 199.361 168.535 198.995 174.998C201.434 179.751 202.918 181.618 205.995 181.998Z" fill="#FFA093"/>
<path d="M242.897 154.925C245.061 155.205 247.268 155.287 249.462 155.17C253.101 154.902 255.723 153.813 255.782 153.918C255.277 154.213 254.706 154.448 254.093 154.613C251.167 155.526 247.913 155.782 244.773 155.345C244.118 155.283 243.483 155.14 242.897 154.925Z" fill="#263238"/>
<path d="M243.477 159.411C245.587 159.923 247.783 160.236 250.009 160.344C252.24 160.342 254.461 160.136 256.616 159.732C256.044 159.974 255.421 160.152 254.77 160.257C253.215 160.565 251.602 160.701 249.988 160.661C248.377 160.619 246.785 160.406 245.265 160.028C244.623 159.896 244.018 159.688 243.477 159.411Z" fill="#263238"/>
<path d="M197.328 158.707C197.328 158.849 196.091 158.707 194.274 159.32C191.925 160.132 189.846 161.576 188.263 163.492C186.699 165.45 185.41 167.612 184.431 169.919C184.063 170.907 183.604 171.86 183.063 172.765C183.209 171.714 183.504 170.69 183.939 169.722C184.799 167.287 186.069 165.017 187.694 163.01C189.355 160.981 191.604 159.516 194.131 158.817C195.165 158.476 196.274 158.438 197.328 158.707Z" fill="#263238"/>
<path d="M140.171 92.9658C139.439 93.8803 138.626 94.7268 137.741 95.495C136.197 97.006 134.084 99.1191 131.851 101.528C131.38 102.042 130.91 102.546 130.472 103.039L130.176 103.356L129.902 103.017C128.173 100.827 126.673 98.8125 125.622 97.3782C125.005 96.6493 124.479 95.8478 124.056 94.9914C124.783 95.6124 125.437 96.3139 126.005 97.0826C127.154 98.4403 128.731 100.367 130.483 102.557H129.924L131.293 101.035C133.217 98.9555 135.248 96.9783 137.38 95.1118C138.22 94.2856 139.157 93.5649 140.171 92.9658Z" fill="#263238"/>
<path d="M77.728 119.484C77.9293 119.967 78.0655 120.475 78.1331 120.995C78.3411 121.98 78.6039 123.415 78.8885 125.188C79.4578 128.736 80.0599 133.663 80.5635 139.115C81.0671 144.568 81.4394 149.517 81.724 153.097C81.8335 154.761 81.943 156.174 82.0196 157.334C82.0882 157.854 82.0882 158.38 82.0196 158.9C81.8635 158.401 81.7607 157.888 81.7131 157.367C81.5598 156.371 81.3737 154.926 81.1766 153.141C80.7606 149.582 80.3008 144.644 79.7972 139.192C79.2936 133.739 78.8009 128.823 78.374 125.32C78.166 123.666 77.9908 122.254 77.8485 121.104C77.7353 120.572 77.6948 120.027 77.728 119.484Z" fill="#263238"/>
<path d="M163.382 117.001C163.538 117.622 163.63 118.257 163.656 118.896C163.776 120.133 163.908 121.907 164.017 124.118C164.269 128.498 164.389 134.629 164.411 141.352V163.808C164.446 164.448 164.421 165.089 164.335 165.724C164.193 165.099 164.123 164.46 164.127 163.819C164.039 162.582 163.951 160.797 163.886 158.596C163.733 154.217 163.678 148.085 163.667 141.363C163.656 134.64 163.601 128.542 163.492 124.14C163.437 122.049 163.393 120.297 163.36 118.918C163.308 118.28 163.316 117.638 163.382 117.001Z" fill="#263238"/>
<path d="M66.6135 180.181C66.2709 178.938 66.0184 177.672 65.8581 176.392C65.345 173.337 64.3549 170.381 62.924 167.633C61.4638 164.939 59.2696 162.715 56.5961 161.217C55.4465 160.669 54.2571 160.207 53.0381 159.838C53.3988 159.759 53.7722 159.759 54.1329 159.838C55.0814 159.996 56.0028 160.287 56.8698 160.703C59.7465 162.137 62.104 164.434 63.6137 167.272C65.0625 170.092 65.9827 173.153 66.3288 176.305C66.5865 177.58 66.6821 178.882 66.6135 180.181Z" fill="#263238"/>
<path d="M70.1292 165.383C69.9759 165.558 67.7973 163.314 64.2502 162.099C60.703 160.883 57.6814 161.299 57.6157 161.069C57.5501 160.839 60.7578 160.095 64.491 161.398C68.2242 162.701 70.2934 165.296 70.1292 165.383Z" fill="#263238"/>
<path d="M125.687 216.263C125.621 215.858 125.592 215.448 125.6 215.037C125.6 214.172 125.6 213.001 125.523 211.533C125.457 208.413 125.37 204.023 125.26 198.625C125.008 187.676 124.658 172.643 124.264 156.044C123.87 139.446 123.662 124.347 123.684 113.442C123.684 107.968 123.738 103.588 123.804 100.522C123.804 99.0553 123.881 97.8837 123.914 97.0188C123.904 96.6082 123.934 96.1976 124.001 95.7925C124.032 96.2007 124.032 96.6106 124.001 97.0188C124.001 97.8837 124.001 99.0553 124.001 100.522C124.001 103.643 124.067 108.044 124.111 113.431C124.22 124.38 124.538 139.391 124.91 156.022C125.282 172.654 125.611 187.709 125.698 198.614C125.698 204.088 125.698 208.468 125.698 211.533C125.698 213.001 125.698 214.172 125.643 215.037C125.686 215.444 125.701 215.854 125.687 216.263Z" fill="#263238"/>
<path d="M56.4744 164.186C56.4744 164.098 57.5691 164.919 58.445 166.737C58.9817 167.773 59.3723 168.878 59.6055 170.021C59.8303 171.472 59.8303 172.95 59.6055 174.401C59.4421 175.854 59.0115 177.265 58.3355 178.561C57.7502 179.613 56.9433 180.524 55.9708 181.233C55.1155 181.943 54.0386 182.33 52.9272 182.328C53.8894 181.93 54.8008 181.419 55.6423 180.806C56.5057 180.098 57.217 179.223 57.7334 178.233C58.3192 176.995 58.6894 175.665 58.8282 174.302C59.0252 172.937 59.0252 171.551 58.8282 170.186C58.6401 169.057 58.3204 167.955 57.8757 166.901C57.1969 165.16 56.3649 164.251 56.4744 164.186Z" fill="#263238"/>
<path d="M205.991 182.684C205.991 182.684 205.64 182.684 205.082 182.41C204.298 182.064 203.562 181.619 202.893 181.085C200.598 179.318 199.029 176.773 198.481 173.93C197.933 171.087 198.442 168.141 199.915 165.647C200.344 164.898 200.866 164.206 201.469 163.589C201.896 163.173 202.17 162.976 202.203 163.008C202.236 163.041 201.327 164.027 200.375 165.899C199.101 168.321 198.69 171.104 199.209 173.791C199.729 176.478 201.147 178.907 203.232 180.68C204.797 182.06 206.046 182.563 205.991 182.684Z" fill="#263238"/>
<path d="M22.6679 158.085C22.6679 158.282 19.0223 158.479 14.5227 158.26C10.0231 158.041 6.41033 157.515 6.43223 157.307C6.45412 157.099 10.0779 157.307 14.5556 157.515C19.0332 157.723 22.6679 157.866 22.6679 158.085Z" fill="#FF9A6C"/>
<path d="M123.168 94.2782C122.731 95.736 122.178 97.1566 121.515 98.5264C121.22 99.1834 120.913 99.895 120.596 100.629C120.282 101.464 119.916 102.28 119.501 103.07C119.343 103.33 119.113 103.538 118.839 103.671C118.565 103.803 118.259 103.853 117.957 103.815C117.427 103.675 116.934 103.421 116.512 103.07L113.928 101.307C110.403 98.8768 107.239 96.6323 104.962 94.9899C103.689 94.1577 102.488 93.2201 101.371 92.187C102.727 92.8707 104.027 93.6615 105.258 94.552C107.611 96.0958 110.83 98.2527 114.355 100.694L116.928 102.468C117.264 102.759 117.655 102.979 118.078 103.114C118.25 103.135 118.425 103.103 118.579 103.023C118.734 102.943 118.86 102.818 118.942 102.665C119.774 101.154 120.464 99.5228 121.132 98.2856C121.698 96.8955 122.379 95.5551 123.168 94.2782Z" fill="#263238"/>
<path d="M112.546 15.9587C112.265 11.1949 111.98 6.43096 111.692 1.66707C111.656 1.09088 111.569 0.427223 111.075 0.123692C110.834 0.0287765 110.576 -0.0112377 110.317 0.00656233C110.059 0.0243623 109.808 0.0995341 109.583 0.226591C101.136 3.62716 94.9365 13.0521 94.1956 22.122" fill="#FFA093"/>
<g opacity="0.3">
<path d="M109.675 5.06563C107.696 6.36222 106.044 8.09899 104.848 10.1401C103.652 12.1812 102.945 14.4713 102.781 16.8313C102.687 17.4015 102.808 17.9862 103.12 18.4724C103.281 18.6468 103.476 18.7858 103.693 18.8806C103.91 18.9754 104.144 19.0238 104.381 19.0229C104.855 19.0178 105.326 18.945 105.78 18.8068C106.917 18.5136 108.116 18.1946 108.959 17.3715C109.731 16.554 110.172 15.4802 110.199 14.3568C110.22 13.2428 110.106 12.1303 109.86 11.0436L108.419 13.5028L109.963 5.53893C109.987 5.46898 109.996 5.39463 109.989 5.32093C109.982 5.24724 109.959 5.17595 109.922 5.11193C109.834 4.99875 109.587 5.0399 109.603 5.18395" fill="white"/>
</g>
<path d="M161.517 26.1027C165.925 20.8686 168.46 14.3125 168.719 7.47412L164.012 9.69144L165.19 8.2561C158.321 8.82873 151.947 12.061 147.426 17.2643" fill="#FFA093"/>
<g opacity="0.3">
<path d="M158.911 24.0259C160.76 22.6823 162.313 20.9736 163.475 19.0056C164.637 17.0376 165.382 14.8521 165.666 12.5843C165.702 12.2756 165.666 11.8692 165.378 11.7663C165.27 11.7475 165.16 11.753 165.055 11.7824C164.95 11.8117 164.853 11.8643 164.771 11.9361L156.277 17.4871C156.646 16.9575 156.876 16.3436 156.946 15.7019L153.344 18.3411C153.208 18.4172 153.087 18.5195 152.99 18.6422C152.893 18.7649 152.821 18.9056 152.779 19.0562C152.777 19.2255 152.815 19.3928 152.891 19.5441C152.968 19.6954 153.079 19.8262 153.216 19.9256C153.816 20.4672 154.546 20.8438 155.335 21.0188C156.124 21.1937 156.945 21.1609 157.717 20.9237L156.174 22.2664C156.634 22.5634 157.149 22.7643 157.688 22.8571C158.227 22.9499 158.78 22.9328 159.312 22.8066C159.364 23.0603 159.339 23.3238 159.24 23.5631C159.141 23.8025 158.973 24.0066 158.757 24.1494" fill="white"/>
</g>
<path d="M66.0248 86.5061C89.4541 83.8215 81.9132 75.1319 55.997 77.2446C65.5903 77.9112 80.1549 64.4342 67.0248 53.0061C70.2377 51.2693 76.6899 50.215 78.2114 42.0762C76.241 38.6808 74.4867 34.8378 73.6841 30.9536C75.8958 33.5188 78.417 35.7998 81.1901 37.7445C81.4165 37.4255 81.648 37.1117 81.8846 36.7927C79.5578 34.6875 78.0067 31.8607 77.4808 28.7672L87.8781 28.3196C87.5525 27.851 87.2586 27.3612 86.9983 26.8534C92.1059 22.4634 97.8248 18.8397 103.975 16.0961C115.937 9.28976 142.56 7.04158 155.524 18.1076C167.136 24.8779 170.248 33.5413 179.395 35.6866L184.818 35.095C184.818 35.095 186.927 46.4131 179.997 51.4703L185.142 50.2767C185.142 50.2767 184.195 54.7834 179.133 59.753L182.292 59.3672C182.292 59.3672 180.923 66.4564 176.55 68.1593C176.55 68.1593 183.382 69.0133 185.296 66.4564C193.904 99.8865 148.496 73.0043 123.997 95.0061C113.813 86.5848 102.925 86.043 73.6841 93.0061C100.518 75.4808 97.5397 86.6403 66.0248 86.5061Z" fill="#FFA093"/>
<path d="M130.468 67.0054C130.188 67.4642 130.032 67.9405 130.004 68.421C129.971 68.6483 130.034 68.8766 130.188 69.0903C130.343 69.3041 130.586 69.4982 130.9 69.6596C131.225 69.8579 131.632 70.0171 132.091 70.126C132.55 70.235 133.05 70.2909 133.556 70.29C134.468 70.2891 135.35 70.1215 136.043 69.8174C136.735 69.5134 137.193 69.0927 137.335 68.6311L137.659 67.586C135.769 67.3095 130.608 67.0773 130.468 67.0054Z" fill="#FF9A6C"/>
<path d="M136.241 69.0405C136.241 69.0405 135.976 69.0405 135.538 69.0621C134.923 69.0919 134.297 69.0919 133.682 69.0621C132.794 69.0183 131.992 68.8712 131.434 68.6501C130.771 68.3734 130.455 68.0299 130.547 67.6849C130.573 67.4908 130.735 67.3009 131.019 67.1283L130.743 67.168C132.714 67.262 134.443 67.3379 135.665 67.3813C136.322 67.4198 136.99 67.4356 137.659 67.4283C137.036 67.3524 136.385 67.3014 135.722 67.2765C134.5 67.2042 132.794 67.1066 130.823 67.0054H130.639L130.558 67.056C130.116 67.3246 129.928 67.6271 130.016 67.9281C130.104 68.2291 130.464 68.5159 131.054 68.7549C131.701 68.9996 132.628 69.1553 133.636 69.1887C134.291 69.2067 134.951 69.1871 135.584 69.1308C135.821 69.1159 136.045 69.085 136.241 69.0405Z" fill="#263238"/>
<path d="M138.581 3.62744C138.535 3.62744 138.493 4.20878 138.339 5.12966C138.135 6.32813 137.808 7.50223 137.362 8.63313C136.905 9.76186 136.335 10.841 135.659 11.8536C135.351 12.257 135.064 12.6759 134.8 13.1089C134.8 13.1089 134.918 13.0215 135.098 12.826C135.354 12.5531 135.593 12.2645 135.813 11.9617C136.545 10.9663 137.148 9.88254 137.609 8.73602C138.07 7.5808 138.378 6.37007 138.524 5.1348C138.573 4.76452 138.6 4.39181 138.607 4.01843C138.617 3.88754 138.608 3.75585 138.581 3.62744Z" fill="#FFA093"/>
<path d="M135.22 2.34353C135.174 2.34353 135.379 2.85799 135.58 3.71713C135.834 4.82642 135.919 5.96764 135.832 7.10227C135.739 8.23519 135.474 9.34726 135.045 10.4C134.716 11.2128 134.433 11.681 134.474 11.7015C134.515 11.7221 134.572 11.6038 134.711 11.398C134.904 11.1038 135.076 10.7961 135.225 10.4771C136.212 8.34575 136.404 5.93128 135.765 3.67083C135.673 3.33261 135.555 3.00229 135.41 2.68307C135.302 2.43613 135.235 2.31266 135.22 2.34353Z" fill="#FFA093"/>
<path d="M124.438 4.577C124.438 4.6233 125.317 4.33006 126.748 3.98023C127.579 3.77569 128.433 3.67376 129.289 3.6767C130.329 3.68394 131.348 3.9738 132.237 4.51527C132.688 4.79618 133.081 5.16121 133.394 5.59048C133.676 5.9965 133.874 6.45479 133.976 6.93836C134.123 7.77655 134.086 8.6367 133.868 9.45922C133.513 10.8791 133.132 11.7228 133.183 11.7434C133.3 11.5614 133.395 11.3663 133.466 11.1621C133.7 10.6241 133.896 10.0706 134.053 9.50552C134.304 8.65788 134.36 7.7645 134.218 6.89207C134.117 6.37201 133.91 5.87822 133.61 5.4413C133.279 4.97983 132.862 4.58678 132.381 4.28376C131.45 3.71997 130.382 3.42442 129.294 3.42976C128.424 3.43819 127.559 3.56276 126.722 3.80017C126.007 3.99052 125.441 4.18601 125.05 4.31463C124.838 4.3813 124.632 4.4692 124.438 4.577Z" fill="#FFA093"/>
<g opacity="0.3">
<path d="M141.775 11.3008C139.203 18.7141 138.879 26.7346 139.157 34.5492C139.296 38.4488 139.589 42.3895 140.808 46.0988C142.027 49.808 144.265 53.3012 147.589 55.359C150.727 57.2986 154.606 57.8079 158.269 57.3243C161.932 56.8407 165.41 55.4362 168.707 53.7797C172.473 51.8865 176.1 49.6228 179.022 46.5772C181.944 43.5316 184.342 39.2771 184.825 35.0945L179.403 35.6861C179.403 35.6861 175.231 35.2437 168.743 28.9673C161.654 22.1147 160.363 21.2761 155.053 17.7058C150.936 14.9829 146.469 12.8284 141.775 11.3008Z" fill="white"/>
</g>
<path d="M127.535 53.1138C127.504 53.1909 128.832 53.7517 130.298 54.7343C131.764 55.7169 132.798 56.7201 132.87 56.6584C131.465 55.0008 129.621 53.7723 127.551 53.1138H127.535Z" fill="#263238"/>
<path d="M118.831 55.9066C118.831 55.9581 119.592 55.6134 120.853 55.2945C122.495 54.8656 124.196 54.7092 125.889 54.8314C127.583 54.9022 129.241 55.3429 130.746 56.1227C131.345 56.4834 131.861 56.9674 132.258 57.5426C132.206 57.3554 132.117 57.1806 131.996 57.0282C131.684 56.6012 131.292 56.238 130.844 55.9581C129.722 55.2224 127.916 54.7131 125.91 54.5588C124.188 54.4341 122.458 54.6188 120.801 55.1041C120.302 55.2436 119.812 55.4154 119.335 55.6185C119.157 55.696 118.988 55.7926 118.831 55.9066Z" fill="#263238"/>
<path d="M144.139 54.9493C143.683 54.0316 143.041 53.219 142.253 52.5635C141.466 51.908 140.55 51.424 139.565 51.1424C136.283 50.2781 132.877 53.7146 132.877 53.7146C132.877 53.7146 136.844 52.5468 136.787 54.5172C136.73 56.4876 135.563 56.4413 136.88 57.7377C138.197 59.0342 140.455 57.6708 140.995 56.1429L142.055 54.651L144.139 54.9493Z" fill="#263238"/>
<path d="M136.901 51.6216C137.242 51.6726 137.586 51.6881 137.93 51.6679C138.762 51.6591 139.592 51.7665 140.394 51.9868C141.187 52.2182 141.907 52.6506 142.483 53.2421C142.91 53.7103 143.064 54.0858 143.105 54.0704C143.038 53.7137 142.87 53.3836 142.622 53.1186C142.061 52.4503 141.311 51.9663 140.471 51.7296C139.643 51.5 138.782 51.4147 137.925 51.4775C137.578 51.472 137.233 51.5206 136.901 51.6216Z" fill="white"/>
<path d="M146.767 47.5186C145.281 41.2862 149.129 35.0293 155.361 33.5434C161.594 32.0574 167.85 35.9052 169.336 42.1376C170.822 48.37 166.975 54.6269 160.742 56.1129C154.51 57.5988 148.253 53.751 146.767 47.5186Z" fill="#F5F5F5"/>
<path d="M146.445 44.8409C146.445 50.4382 150.227 54.9809 153.426 54.9809C156.626 54.9809 159.209 50.4382 159.209 44.8409C159.209 39.2436 156.637 34.6958 153.406 34.6958C150.175 34.6958 146.445 39.2385 146.445 44.8409Z" fill="#263238"/>
<path d="M150.851 41.0908C149.754 41.0908 148.865 40.2017 148.865 39.105C148.865 38.0082 149.754 37.1191 150.851 37.1191C151.948 37.1191 152.837 38.0082 152.837 39.105C152.837 40.2017 151.948 41.0908 150.851 41.0908Z" fill="white"/>
<path d="M155.983 52.2087C156.099 52.0601 156.195 51.8977 156.271 51.7251C156.514 51.2697 156.722 50.7968 156.894 50.3104C157.16 49.591 157.369 48.8512 157.516 48.0982C157.691 47.1751 157.787 46.2389 157.804 45.2995C157.807 44.3583 157.73 43.4186 157.573 42.4906C157.441 41.7355 157.248 40.9922 156.996 40.2681C156.835 39.7788 156.638 39.3025 156.405 38.8431C156.335 38.6602 156.242 38.4873 156.127 38.3286C156.081 38.3286 156.436 39.0746 156.816 40.3093C157.037 41.0308 157.209 41.7664 157.331 42.5112C157.471 43.4253 157.54 44.349 157.537 45.2738C157.52 46.1983 157.432 47.1202 157.274 48.0313C157.139 48.7758 156.952 49.5099 156.713 50.2281C156.307 51.473 155.937 52.1881 155.983 52.2087Z" fill="white"/>
<path d="M160.989 30.0655C161.02 30.4411 161.452 30.7292 162.018 30.9967C162.584 31.2642 163.35 31.5111 164.107 31.8558C164.863 32.2005 165.526 32.4989 166.092 32.7561C166.658 33.0133 167.121 33.1677 167.456 32.967C167.79 32.7664 167.831 32.2057 167.456 31.4597C166.948 30.5184 166.122 29.7889 165.125 29.4018C164.171 28.9812 163.105 28.8837 162.09 29.124C161.365 29.3195 160.958 29.7054 160.989 30.0655Z" fill="#263238"/>
<path d="M111.824 62.9241C113.02 61.0818 113.458 58.8493 113.048 56.6919C112.637 54.5345 111.411 52.6187 109.623 51.3436C108.203 50.3147 106.489 49.7642 105.147 48.653C104.326 47.9329 103.657 47.0557 103.18 46.0733C102.703 45.0908 102.427 44.0229 102.369 42.9322C102.27 40.7441 102.754 38.5691 103.773 36.6301L102.343 35.9253L102.219 36.0796C101.27 37.3266 100.609 38.7686 100.283 40.3018C99.9576 41.835 99.9761 43.4213 100.337 44.9465C100.698 46.4717 101.393 47.8978 102.372 49.1223C103.35 50.3468 104.588 51.3391 105.996 52.0279C107.067 52.5194 108.074 53.1396 108.995 53.8748C110.78 55.4181 110.05 57.1725 110.05 57.1725" fill="#FFA093"/>
<path d="M108.472 53.3382C108.544 53.3639 108.771 52.9164 109.193 52.4945C109.614 52.0726 110.057 51.836 110.031 51.764C110.005 51.6919 109.47 51.8308 109.002 52.3041C108.534 52.7774 108.405 53.3176 108.472 53.3382Z" fill="#FFA093"/>
<path d="M103.421 50.3582C103.493 50.3839 103.678 49.8849 104.085 49.3962C104.491 48.9074 104.928 48.6193 104.892 48.5524C104.856 48.4856 104.316 48.6862 103.864 49.2315C103.411 49.7768 103.349 50.3479 103.421 50.3582Z" fill="#FFA093"/>
<path d="M100.044 43.9567C100.438 43.9293 100.828 43.869 101.212 43.7766C101.606 43.7677 101.998 43.7247 102.385 43.648C101.999 43.5031 101.584 43.4555 101.176 43.5093C100.767 43.5631 100.379 43.7168 100.044 43.9567Z" fill="#FFA093"/>
<path d="M101.188 37.7743C101.188 37.8515 101.625 37.8258 102.104 37.9698C102.582 38.1139 102.937 38.3454 102.989 38.2888C103.04 38.2322 102.731 37.8669 102.181 37.7126C101.63 37.5582 101.167 37.7074 101.188 37.7743Z" fill="#FFA093"/>
<path d="M112.172 49.2042C107.641 44.6737 107.641 37.3283 112.172 32.7978C116.702 28.2673 124.048 28.2673 128.578 32.7978C133.109 37.3283 133.109 44.6737 128.578 49.2042C124.048 53.7347 116.702 53.7346 112.172 49.2042Z" fill="#F5F5F5"/>
<path d="M108.787 41.4883C108.787 47.0908 111.73 51.7775 115.007 51.7775C118.284 51.7775 120.944 47.2349 120.944 41.6375C120.944 36.0402 118.284 31.4976 115.007 31.4976C111.73 31.4976 108.787 35.891 108.787 41.4883Z" fill="#263238"/>
<path d="M117.894 46.2981C117.991 46.1834 118.071 46.0552 118.131 45.9174C118.317 45.5538 118.477 45.1773 118.609 44.7908C119.505 42.2087 119.43 39.3886 118.398 36.8578C118.246 36.4786 118.063 36.1121 117.853 35.762C117.788 35.6267 117.703 35.5019 117.601 35.3916C117.559 35.3916 117.868 35.9678 118.218 36.935C118.669 38.184 118.919 39.4968 118.959 40.8243C118.993 42.1499 118.819 43.4726 118.444 44.7445C118.131 45.7065 117.848 46.2775 117.894 46.2981Z" fill="white"/>
<path d="M113.527 37.1176C112.43 37.1176 111.541 36.2285 111.541 35.1318C111.541 34.0351 112.43 33.146 113.527 33.146C114.624 33.146 115.513 34.0351 115.513 35.1318C115.513 36.2285 114.624 37.1176 113.527 37.1176Z" fill="white"/>
<path d="M112.866 26.6809C113.087 26.9844 113.648 26.9792 114.353 26.8661C115.057 26.7529 115.942 26.5471 116.899 26.3928C117.856 26.2384 118.72 26.1458 119.415 26.0481C120.109 25.9503 120.644 25.8114 120.783 25.4616C120.922 25.1117 120.588 24.6127 119.806 24.196C119.346 23.9609 118.851 23.8028 118.34 23.7279C117.716 23.6304 117.081 23.6304 116.457 23.7279C115.332 23.8985 114.285 24.4041 113.452 25.1786C112.835 25.8166 112.655 26.3876 112.866 26.6809Z" fill="#263238"/>
<path d="M118.121 55.4859C119.016 53.6459 119.213 51.5434 118.676 49.569C118.138 47.5946 116.902 45.8826 115.197 44.751C113.492 43.6194 111.434 43.1451 109.406 43.4163C107.377 43.6876 105.516 44.6858 104.169 46.2256" fill="#FFA093"/>
<path d="M104.157 46.2244C104.157 46.2244 104.404 45.9929 104.862 45.5968C105.516 45.0416 106.252 44.5904 107.044 44.2592C108.213 43.7647 109.473 43.5227 110.742 43.5492C112.303 43.5348 113.832 43.987 115.134 44.8477C116.435 45.7085 117.45 46.9385 118.048 48.38C118.564 49.5393 118.831 50.7944 118.83 52.0635C118.83 52.9202 118.7 53.7719 118.444 54.5895C118.259 55.1657 118.115 55.4744 118.14 55.4847C118.188 55.4195 118.228 55.3486 118.259 55.2737C118.367 55.0639 118.461 54.8474 118.542 54.6255C118.845 53.8013 119.005 52.9313 119.015 52.0532C119.049 50.752 118.796 49.4592 118.274 48.2668C117.67 46.7782 116.632 45.5064 115.293 44.6178C113.955 43.7293 112.38 43.2654 110.773 43.2868C109.472 43.2717 108.184 43.5403 106.997 44.074C106.198 44.4251 105.464 44.9086 104.826 45.5042C104.651 45.664 104.488 45.8359 104.337 46.0186C104.269 46.0794 104.209 46.1486 104.157 46.2244Z" fill="#263238"/>
<path d="M141.161 11.5576C141.243 11.6008 141.331 11.6304 141.423 11.6451L142.19 11.8509C142.524 11.9332 142.93 12.0515 143.399 12.1955L144.144 12.4168L144.978 12.6997C148.002 13.7565 150.903 15.1364 153.631 16.8154C156.363 18.5002 158.975 20.3704 161.451 22.4127C162.403 23.1947 163.169 23.8326 163.689 24.2853L164.301 24.7998C164.44 24.9181 164.517 24.9747 164.527 24.9644C164.471 24.8908 164.408 24.8235 164.337 24.7638L163.761 24.2133C163.246 23.74 162.511 23.0815 161.574 22.2738C159.122 20.1899 156.513 18.2979 153.77 16.6147C151.027 14.9119 148.091 13.5407 145.024 12.5299L144.186 12.2573L143.424 12.0566C142.951 11.9229 142.545 11.82 142.205 11.7531L141.423 11.5988C141.338 11.5745 141.249 11.5607 141.161 11.5576Z" fill="#263238"/>
<path d="M51.3618 180.08C47.8618 182.58 45.493 172.329 37.7999 168.625C30.1068 164.921 20.7478 163.428 11.556 162.697C8.94542 162.491 6.21141 162.316 3.98077 161.317C-0.428663 159.363 -1.10562 154.651 1.60663 151.58C4.31889 148.509 9.57276 146.945 14.7017 146.631C14.7017 146.631 53.1424 152.96 55.8618 162.697" fill="#FFA093"/>
<path d="M51.3618 180.08C47.8618 182.58 45.493 172.329 37.7999 168.625C30.1068 164.921 20.7478 163.428 11.556 162.697C8.94542 162.491 6.21141 162.316 3.98077 161.317C-0.428663 159.363 -1.10562 154.651 1.60663 151.58C4.31889 148.509 9.57276 146.945 14.7017 146.631C14.7017 146.631 53.1424 152.96 55.8618 162.697C57.5961 163.79 57.9956 166.618 58.3618 173.08C55.9231 177.833 54.4393 179.701 51.3618 180.08Z" fill="#FFA093"/>
<path d="M14.4597 153.007C12.2953 153.287 10.0887 153.369 7.89435 153.252C4.25571 152.985 1.63364 151.896 1.57467 152.001C2.08013 152.296 2.65058 152.53 3.26346 152.696C6.18947 153.609 9.44395 153.865 12.5835 153.427C13.2387 153.365 13.8736 153.223 14.4597 153.007Z" fill="#263238"/>
<path d="M13.8805 157.494C11.7705 158.005 9.57405 158.319 7.34787 158.426C5.11721 158.424 2.89629 158.219 0.740723 157.814C1.31333 158.057 1.93659 158.234 2.58757 158.34C4.14233 158.647 5.75534 158.784 7.36926 158.743C8.97985 158.702 10.5722 158.488 12.0919 158.11C12.7339 157.979 13.3389 157.77 13.8805 157.494Z" fill="#263238"/>
</svg>
