<svg width="254" height="215" viewBox="0 0 254 215" fill="none" xmlns="http://www.w3.org/2000/svg">
<rect x="22" width="209" height="211.508" rx="25.0826" fill="#FFF2CB"/>
<path d="M116.118 6.61462L117.3 6.54893C123.004 6.22231 128.622 8.05499 133.036 11.6824C137.45 15.3098 140.337 20.4661 141.123 26.1256C142.634 37.0745 138.915 40.3626 139.156 46.2421C139.714 58.4392 129.886 65.9637 129.886 65.9637L133.317 74.7388C133.488 76.6844 133.273 78.6446 132.684 80.5069C132.096 82.3692 131.145 84.0967 129.886 85.5903C128.628 87.0839 127.087 88.3141 125.351 89.2101C123.616 90.1062 121.721 90.6505 119.774 90.8118C115.896 91.1228 112.051 89.8965 109.069 87.3975C106.087 84.8985 104.207 81.3272 103.834 77.4541L99.4552 32.2241C97.6816 19.6329 103.484 8.09273 116.118 6.61462Z" fill="#FFBF9D"/>
<path d="M129.636 65.9646C123.993 66.2924 118.252 64.8063 113.316 62.125C113.316 62.125 118.918 70.4284 130.996 68.6848L129.636 65.9646Z" fill="#FF9A6C"/>
<path d="M121.471 38.5255C121.51 39.0783 121.338 39.625 120.99 40.0469C120.643 40.4689 120.149 40.7322 119.616 40.7798C119.357 40.8171 119.093 40.8001 118.84 40.7299C118.587 40.6597 118.35 40.5376 118.143 40.371C117.937 40.2043 117.765 39.9964 117.637 39.7596C117.509 39.5228 117.429 39.2619 117.4 38.9924C117.368 38.4411 117.543 37.8982 117.889 37.4778C118.235 37.0574 118.725 36.7922 119.255 36.738C119.515 36.7007 119.779 36.7177 120.032 36.7879C120.285 36.8581 120.521 36.9802 120.728 37.1469C120.935 37.3135 121.107 37.5214 121.234 37.7582C121.362 37.995 121.442 38.2559 121.471 38.5255Z" fill="#263238"/>
<path d="M138.867 32.2354C138.659 32.4763 137.291 31.5675 135.419 31.688C133.547 31.8084 132.222 32.7828 132.014 32.5967C131.806 32.4106 132.101 32.0821 132.671 31.6113C133.449 31.0004 134.398 30.6448 135.386 30.5931C136.358 30.5392 137.323 30.7919 138.145 31.3157C138.725 31.7208 138.944 32.115 138.867 32.2354Z" fill="#263238"/>
<path d="M137.791 38.5255C137.824 39.0768 137.648 39.6196 137.302 40.04C136.956 40.4604 136.466 40.7256 135.936 40.7798C135.676 40.8171 135.412 40.8001 135.159 40.7299C134.906 40.6597 134.669 40.5376 134.463 40.371C134.256 40.2043 134.084 39.9964 133.956 39.7596C133.828 39.5228 133.748 39.2619 133.719 38.9923C133.684 38.4403 133.858 37.8955 134.204 37.4744C134.551 37.0532 135.043 36.789 135.575 36.738C135.834 36.7007 136.098 36.7177 136.351 36.7879C136.604 36.8581 136.841 36.9802 137.048 37.1468C137.254 37.3135 137.427 37.5214 137.554 37.7582C137.682 37.995 137.762 38.2559 137.791 38.5255Z" fill="#263238"/>
<path d="M120.463 33.6367C120.266 33.8776 118.887 32.9798 117.015 33.0893C115.143 33.1988 113.829 34.1842 113.61 33.998C113.391 33.8119 113.698 33.4834 114.278 33.0126C115.05 32.4074 115.991 32.0556 116.971 32.0053C117.944 31.9431 118.912 32.1965 119.73 32.728C120.343 33.1331 120.562 33.5272 120.463 33.6367Z" fill="#263238"/>
<path d="M128.051 47.1387C129.018 46.7655 130.03 46.519 131.061 46.4051C131.543 46.3285 131.981 46.208 132.047 45.8796C132.063 45.383 131.925 44.8934 131.653 44.4781C131.127 43.3832 130.558 42.1679 130.021 40.9197C127.766 35.8504 126.102 31.6788 126.299 31.5912C126.496 31.5037 128.489 35.5329 130.766 40.6022C131.313 41.8504 131.861 43.0438 132.331 44.1825C132.661 44.7434 132.788 45.4003 132.693 46.0438C132.633 46.2182 132.534 46.3763 132.403 46.5055C132.272 46.6348 132.112 46.7316 131.937 46.7883C131.679 46.8786 131.411 46.9338 131.138 46.9526C130.12 47.136 129.084 47.1985 128.051 47.1387Z" fill="#263238"/>
<path d="M120.604 27.7466C120.44 28.2612 118.557 28.1298 116.378 28.524C114.199 28.9181 112.459 29.6189 112.141 29.17C111.999 28.9619 112.284 28.4692 112.962 27.9327C113.883 27.2721 114.943 26.8301 116.06 26.6404C117.177 26.4506 118.323 26.5182 119.411 26.8378C120.232 27.1225 120.67 27.4948 120.604 27.7466Z" fill="#263238"/>
<path d="M137.913 28.323C137.618 28.7609 136.304 28.3996 134.75 28.4653C133.195 28.531 131.903 28.9142 131.575 28.4653C131.432 28.2573 131.575 27.8193 132.155 27.3704C132.897 26.8389 133.782 26.5449 134.695 26.5273C135.609 26.4887 136.513 26.7376 137.278 27.239C137.848 27.677 138.056 28.104 137.913 28.323Z" fill="#263238"/>
<path d="M139.622 20.6081C139.622 20.6081 135.976 13.1629 132.188 11.5862C127.612 9.69206 125.981 14.6957 121.667 13.776C117.354 12.8563 112.986 11.0169 108.837 14.5424C104.304 18.4074 106.647 20.8052 106.647 26.2249C106.713 48.1994 103.067 54.6264 101.337 44.3782C101.151 43.2833 97.9543 42.5279 97.2208 37.8089C96.2574 31.6556 95.5896 24.1446 96.7172 19.6665C97.6697 15.9001 99.6294 13.2176 103.286 10.1738C109.012 5.37819 117.212 4.80885 122.828 5.04972C128.444 5.2906 139.589 11.0169 139.622 20.6081Z" fill="#263238"/>
<path d="M102.137 43.9623C102.1 43.5124 101.971 43.075 101.757 42.6772C101.544 42.2795 101.251 41.93 100.897 41.6506C100.542 41.3711 100.134 41.1677 99.6975 41.0531C99.261 40.9384 98.8055 40.9149 98.3595 40.9842C96.1043 41.3345 93.652 42.7688 94.068 47.455C94.8124 55.7652 103.001 53.3017 103.001 53.0608C103.001 52.8199 102.476 47.444 102.137 43.9623Z" fill="#FFBF9D"/>
<path d="M100.932 50.0906C100.932 50.0906 100.801 50.2111 100.56 50.3424C100.224 50.5222 99.8321 50.5653 99.4653 50.4629C98.5675 50.222 97.7027 48.8862 97.5275 47.3972C97.4408 46.6853 97.5157 45.963 97.7465 45.284C97.801 45.0185 97.9192 44.7703 98.0908 44.5605C98.2624 44.3507 98.4823 44.1857 98.7318 44.0797C98.8935 44.0222 99.0701 44.0225 99.2317 44.0803C99.3933 44.1382 99.53 44.2501 99.6185 44.3972C99.7609 44.6162 99.7171 44.7913 99.7609 44.8023C99.8047 44.8132 99.9251 44.649 99.8265 44.3096C99.7646 44.1065 99.6327 43.9319 99.4543 43.8169C99.2101 43.663 98.915 43.6119 98.6332 43.6745C98.2996 43.774 97.9968 43.9569 97.7535 44.2059C97.5102 44.455 97.3345 44.762 97.2429 45.0979C96.9527 45.8503 96.8512 46.6622 96.9473 47.4629C97.1553 49.1381 98.1515 50.6271 99.3777 50.868C99.6064 50.9135 99.8424 50.9066 100.068 50.8478C100.294 50.789 100.503 50.6799 100.68 50.5286C100.932 50.2986 100.965 50.1125 100.932 50.0906Z" fill="#FF9A6C"/>
<path d="M141.396 11.587C140.115 10.6235 138.352 10.4921 137.083 9.51761C131.426 5.17415 122.309 -3.11586 114.524 1.21846C111.562 2.86779 107.823 3.00918 105.18 4.89717C104.412 5.5051 103.779 6.26735 103.322 7.1348C102.866 8.00226 102.596 8.95568 102.531 9.93367C102.531 9.93367 101.666 9.49571 99.0386 11.576C97.3636 12.9008 95.9951 15.7585 95.382 17.795C94.4733 20.8497 95.798 24.0687 97.1008 26.9702C97.8015 28.5359 98.6773 30.2549 100.309 30.8132C102.29 31.4811 104.48 29.9264 105.257 27.9775C106.034 26.0286 107.26 24.0687 108.202 22.1965C109.844 18.9118 111.486 15.9118 110.14 13.8315C114.58 12.3891 117.524 14.9688 121.471 16.3607C123.131 16.9461 129.829 18.0568 131.676 17.6152C132.273 17.4725 132.83 17.1972 133.305 16.8096C134.057 18.035 135.244 18.9319 136.627 19.3215C138.011 19.7112 139.491 19.5649 140.772 18.9118C143.246 17.3789 143.684 13.3169 141.396 11.587Z" fill="#263238"/>
<path d="M96.2695 25.0074C96.6537 25.6086 96.9765 26.2468 97.233 26.9126C97.5332 27.585 98.0051 28.1666 98.6014 28.5987C99.3985 29.0066 100.317 29.1116 101.185 28.8943C102.088 28.7191 102.941 28.3451 103.681 27.7994C104.278 27.3359 104.822 26.807 105.302 26.2228C105.721 25.6496 106.186 25.1113 106.692 24.6133C106.425 25.2764 106.056 25.8934 105.597 26.4417C105.139 27.0865 104.593 27.6649 103.977 28.1607C103.187 28.7577 102.268 29.1625 101.295 29.3432C100.308 29.5877 99.265 29.4427 98.3825 28.9381C97.723 28.4552 97.2204 27.7888 96.9374 27.022C96.6327 26.3806 96.4084 25.7039 96.2695 25.0074Z" fill="#B9B8B6"/>
<path d="M96.587 31.4384C97.0881 31.8184 97.6411 32.1245 98.2292 32.3472C98.8689 32.5499 99.5453 32.6097 100.211 32.5224C101.028 32.3983 101.808 32.0995 102.499 31.6465C103.754 30.7746 104.819 29.6572 105.63 28.3618C105.939 27.7999 106.306 27.2715 106.725 26.7852C106.533 27.4115 106.249 28.0057 105.882 28.5479C105.138 29.9739 104.06 31.1986 102.74 32.1173C101.988 32.6148 101.129 32.9263 100.233 33.026C99.4896 33.1078 98.7378 33.0063 98.043 32.7304C96.9264 32.1939 96.5322 31.4494 96.587 31.4384Z" fill="#B9B8B6"/>
<path d="M122.432 53.9023C122.152 54.3612 121.996 54.8374 121.968 55.318C121.934 55.5453 121.997 55.7736 122.152 55.9873C122.307 56.2011 122.549 56.3952 122.864 56.5566C123.189 56.7549 123.596 56.9141 124.055 57.023C124.514 57.1319 125.014 57.1879 125.52 57.187C126.432 57.1861 127.314 57.0185 128.006 56.7144C128.699 56.4103 129.157 55.9897 129.299 55.5281L129.623 54.483C127.733 54.2065 122.572 53.9742 122.432 53.9023Z" fill="#FF9A6C"/>
<path d="M128.205 55.9374C128.205 55.9374 127.94 55.9374 127.502 55.9591C126.887 55.9889 126.261 55.9889 125.646 55.9591C124.758 55.9153 123.955 55.7682 123.398 55.547C122.734 55.2704 122.419 54.9269 122.511 54.5819C122.537 54.3878 122.699 54.1978 122.983 54.0252L122.707 54.065C124.678 54.159 126.407 54.2349 127.628 54.2783C128.286 54.3168 128.954 54.3326 129.623 54.3253C129 54.2494 128.349 54.1983 127.686 54.1734C126.464 54.1012 124.758 54.0036 122.787 53.9023H122.603L122.522 53.9529C122.08 54.2215 121.892 54.5241 121.98 54.8251C122.068 55.126 122.428 55.4129 123.018 55.6519C123.665 55.8966 124.592 56.0522 125.6 56.0856C126.255 56.1037 126.915 56.0841 127.548 56.0278C127.785 56.0128 128.009 55.982 128.205 55.9374Z" fill="#263238"/>
<path d="M73.1805 90.5508C72.4579 90.5508 62.145 94.6676 59.43 104.784C56.7149 114.901 49.3032 152.018 49.3032 152.018L41.4316 162.923C41.4316 162.923 43.9825 182.817 58.4447 179.029C58.4447 179.029 68.1007 180.715 71.177 170.927C74.2534 161.138 80.22 131.938 80.22 131.938L73.1805 90.5508Z" fill="#B9B8B6"/>
<path d="M102.635 73.4453L97.1591 81.872L72.5156 90.7891L79.5691 163.53L73.5 211.999C121.518 219.4 184.619 208.502 163.5 211.999C165.439 211.944 165.92 205.931 166.237 203.234C166.511 200.812 166.303 198.36 165.624 196.022L161.539 181.443C162.141 190.516 159.469 127.316 159.348 125.008L165.317 92.4945L137.279 80.9468L132.898 74.1364L120.28 83.9006L102.635 73.4453Z" fill="#B9B8B6"/>
<path d="M165.411 92.4883C165.411 92.4883 171.179 97.4585 172.131 101.285C173.083 105.112 193.827 149.194 193.827 149.194L204.132 151.921L206.888 157.529C208.497 160.745 208.93 164.406 208.114 167.898C207.298 171.391 205.283 174.501 202.407 176.706C202.049 176.973 201.675 177.219 201.287 177.443C195.687 180.742 185.718 180.566 179.882 173.814C174.36 167.415 158.197 144.411 158.197 144.411V116.262L165.411 92.4883Z" fill="#B9B8B6"/>
<path d="M198.929 153.133L213.413 144.582L220.397 153.133L218.952 157.272L200.275 171.166C197.956 169.273 196.401 166.605 195.896 163.655C195.075 158.432 198.929 153.133 198.929 153.133Z" fill="#FFBF9D"/>
<path d="M194.328 148.709C194.328 148.851 193.09 148.709 191.273 149.322C188.925 150.134 186.845 151.577 185.263 153.493C183.699 155.451 182.41 157.613 181.431 159.92C181.062 160.909 180.604 161.861 180.062 162.767C180.209 161.716 180.503 160.691 180.938 159.723C181.799 157.288 183.069 155.018 184.693 153.011C186.355 150.983 188.604 149.518 191.131 148.818C192.164 148.477 193.273 148.439 194.328 148.709Z" fill="#263238"/>
<path d="M213.171 149.327C212.81 147.436 212.939 145.484 213.547 143.658C214.154 141.831 215.22 140.19 216.641 138.893C220.061 136.079 223.928 133.859 228.082 132.323C230.622 131.228 235.909 126.772 236.84 127.845C237.771 128.918 238.187 130.517 236.84 132.466C235.493 134.414 227.841 137.316 228.914 139.779C229.352 140.776 231.76 140.962 231.76 140.962C236.132 141.27 240.517 141.357 244.898 141.225C248.773 140.885 252.255 141.63 252.047 142.966C251.839 144.301 251.116 145.035 247.908 145.309C244.701 145.582 239.478 145.374 239.15 146.108C238.822 146.841 239.96 147.312 241.832 147.203C243.704 147.093 252.528 147.06 253.13 148.068C253.277 148.323 253.365 148.608 253.388 148.902C253.411 149.196 253.369 149.491 253.264 149.766C253.159 150.042 252.995 150.291 252.782 150.495C252.57 150.699 252.315 150.854 252.036 150.947L249.967 151.681C249.967 151.681 251.171 153.356 250.164 154.287C249.156 155.217 246.879 154.889 246.879 154.889L235.176 154.56C235.176 154.56 234.508 155.261 234.837 155.743C235.165 156.225 244.339 155.557 244.405 156.564C244.471 157.571 245.27 158.031 242.533 158.754C238.524 159.422 234.433 159.422 230.425 158.754C227.95 158.075 217.583 157.659 217.583 157.659L213.171 149.327Z" fill="#FFBF9D"/>
<path d="M54.1085 154.655L40.566 143.422L32.793 152.181L33.7454 156.462L50.6709 172.404C53.1801 170.965 55.0735 168.654 55.9915 165.911C57.6775 161.082 54.1085 154.655 54.1085 154.655Z" fill="#FFBF9D"/>
<path d="M40.4132 149.266C40.9955 147.432 41.1001 145.48 40.7169 143.595C40.3337 141.71 39.4755 139.953 38.2236 138.492C35.143 135.294 31.5409 132.643 27.5713 130.653C25.1846 129.219 20.4552 124.226 19.3932 125.178C18.7636 125.746 18.362 126.524 18.2633 127.366C18.1646 128.208 18.3755 129.057 18.8568 129.755C19.9516 131.846 25.2284 134.277 25.0423 136.96C25.0229 137.219 24.9526 137.472 24.8354 137.705C24.7181 137.937 24.5563 138.144 24.359 138.314C24.1618 138.483 23.9331 138.613 23.6859 138.694C23.4387 138.775 23.1779 138.807 22.9184 138.788C18.5501 138.588 14.1946 138.167 9.86855 137.529C6.04774 136.741 2.51158 137.069 2.55537 138.416C2.59916 139.762 3.24509 140.606 6.39808 141.23C9.55107 141.854 14.7623 142.324 14.9374 143.036C15.1126 143.748 14.0069 144.131 12.1567 143.792C10.3065 143.452 1.54817 142.412 0.836553 143.343C0.660158 143.577 0.537883 143.847 0.478541 144.134C0.419198 144.421 0.424266 144.718 0.493379 145.003C0.562492 145.288 0.693929 145.554 0.878217 145.781C1.06251 146.009 1.29506 146.194 1.55911 146.321L3.52973 147.295C3.52973 147.295 2.13935 148.817 3.02613 149.857C3.91291 150.897 6.21197 150.843 6.21197 150.843L17.8824 151.872C17.8824 151.872 18.4626 152.649 18.0685 153.087C17.6744 153.525 8.66429 151.795 8.47818 152.792C8.29206 153.788 7.43812 154.149 10.0875 155.135C13.9962 156.267 18.0655 156.745 22.1302 156.547C24.6701 156.164 35.0268 156.908 35.0268 156.908L40.4132 149.266Z" fill="#FFBF9D"/>
<path d="M137.17 82.9727C136.438 83.8872 135.624 84.7337 134.74 85.5019C133.196 87.0128 131.083 89.126 128.85 91.5347C128.379 92.0493 127.908 92.553 127.47 93.0457L127.175 93.3632L126.901 93.0238C125.171 90.834 123.671 88.8194 122.62 87.3851C122.003 86.6562 121.477 85.8546 121.055 84.9982C121.781 85.6192 122.435 86.3208 123.003 87.0895C124.153 88.4471 125.729 90.3741 127.481 92.5639H126.923L128.291 91.042C130.215 88.9624 132.247 86.9852 134.378 85.1187C135.218 84.2924 136.156 83.5718 137.17 82.9727Z" fill="#263238"/>
<path d="M74.7261 109.492C74.9273 109.976 75.0635 110.484 75.1312 111.003C75.3392 111.989 75.6019 113.423 75.8866 115.197C76.4559 118.744 77.058 123.671 77.5616 129.124C78.0652 134.576 78.4374 139.525 78.7221 143.105C78.8315 144.77 78.941 146.182 79.0177 147.343C79.0863 147.862 79.0863 148.389 79.0177 148.908C78.8615 148.41 78.7588 147.896 78.7111 147.375C78.5579 146.379 78.3717 144.934 78.1747 143.149C77.7587 139.591 77.2988 134.653 76.7952 129.2C76.2916 123.748 75.799 118.832 75.372 115.328C75.164 113.675 74.9888 112.262 74.8465 111.113C74.7334 110.58 74.6929 110.035 74.7261 109.492Z" fill="#263238"/>
<path d="M160.38 107.008C160.537 107.628 160.628 108.263 160.654 108.902C160.774 110.139 160.906 111.913 161.015 114.125C161.267 118.504 161.387 124.636 161.409 131.358V153.814C161.445 154.454 161.419 155.096 161.333 155.73C161.191 155.105 161.121 154.466 161.125 153.825C161.037 152.588 160.95 150.803 160.884 148.603C160.731 144.223 160.676 138.092 160.665 131.369C160.654 124.647 160.599 118.548 160.49 114.147C160.435 112.055 160.391 110.303 160.358 108.924C160.306 108.286 160.314 107.644 160.38 107.008Z" fill="#263238"/>
<path d="M63.6125 170.183C63.2699 168.94 63.0174 167.674 62.8571 166.395C62.3441 163.339 61.354 160.384 59.923 157.636C58.4628 154.942 56.2686 152.717 53.5952 151.22C52.4455 150.671 51.2561 150.21 50.0371 149.84C50.3978 149.762 50.7712 149.762 51.1319 149.84C52.0804 149.998 53.0018 150.289 53.8689 150.705C56.7455 152.14 59.103 154.436 60.6128 157.274C62.0615 160.094 62.9817 163.156 63.3278 166.307C63.5855 167.582 63.6811 168.884 63.6125 170.183Z" fill="#263238"/>
<path d="M67.1258 155.391C66.9725 155.566 64.7938 153.321 61.2467 152.106C57.6996 150.891 54.678 151.307 54.6123 151.077C54.5466 150.847 57.7544 150.102 61.4876 151.405C65.2208 152.708 67.29 155.303 67.1258 155.391Z" fill="#263238"/>
<path d="M122.687 206.268C122.62 205.863 122.591 205.452 122.599 205.042C122.599 204.177 122.599 203.005 122.522 201.538C122.457 198.417 122.369 194.027 122.26 188.629C122.008 177.68 121.658 162.647 121.263 146.049C120.869 129.45 120.661 114.352 120.683 103.447C120.683 97.9721 120.738 93.5925 120.804 90.5268C120.804 89.0597 120.88 87.8881 120.913 87.0231C120.904 86.6125 120.933 86.202 121.001 85.7969C121.031 86.2051 121.031 86.615 121.001 87.0231C121.001 87.8881 121.001 89.0597 121.001 90.5268C121.001 93.6473 121.066 98.0487 121.11 103.436C121.22 114.384 121.537 129.395 121.909 146.027C122.282 162.658 122.61 177.713 122.698 188.618C122.698 194.093 122.698 198.472 122.698 201.538C122.698 203.005 122.698 204.177 122.643 205.042C122.685 205.449 122.7 205.858 122.687 206.268Z" fill="#263238"/>
<path d="M53.4729 154.194C53.4729 154.106 54.5677 154.927 55.4435 156.745C55.9803 157.781 56.3708 158.886 56.604 160.03C56.8289 161.481 56.8289 162.958 56.604 164.409C56.4406 165.862 56.01 167.273 55.334 168.57C54.7488 169.621 53.9419 170.533 52.9693 171.241C52.114 171.951 51.0371 172.338 49.9258 172.336C50.8879 171.938 51.7993 171.427 52.6409 170.814C53.5043 170.106 54.2155 169.231 54.7319 168.241C55.3177 167.003 55.688 165.674 55.8267 164.311C56.0237 162.945 56.0237 161.559 55.8267 160.194C55.6386 159.065 55.3189 157.963 54.8742 156.909C54.1955 155.168 53.3634 154.26 53.4729 154.194Z" fill="#263238"/>
<path d="M202.99 172.69C202.99 172.69 202.64 172.69 202.082 172.417C201.298 172.071 200.562 171.626 199.892 171.092C197.598 169.325 196.029 166.78 195.48 163.937C194.932 161.093 195.442 158.147 196.914 155.654C197.343 154.905 197.866 154.213 198.469 153.596C198.896 153.179 199.17 152.982 199.202 153.015C199.235 153.048 198.327 154.033 197.374 155.906C196.1 158.328 195.69 161.111 196.209 163.798C196.728 166.484 198.147 168.914 200.231 170.687C201.797 172.066 203.045 172.57 202.99 172.69Z" fill="#263238"/>
<path d="M230.829 136.57C230.917 136.658 230.282 137.26 229.483 138.322C229.023 138.93 228.705 139.634 228.552 140.381C228.377 141.224 228.399 142.209 228.246 143.293C228.115 144.223 227.801 145.119 227.322 145.927C226.843 146.735 226.208 147.44 225.454 148.001C224.878 148.52 224.147 148.836 223.374 148.899C223.319 148.778 224.129 148.472 225.125 147.585C226.408 146.449 227.252 144.899 227.512 143.205C227.584 142.214 227.708 141.227 227.884 140.249C228.094 139.434 228.5 138.682 229.067 138.059C229.526 137.429 230.131 136.918 230.829 136.57Z" fill="#FF9A6C"/>
<path d="M19.6674 148.086C19.6674 148.283 16.0218 148.48 11.5222 148.261C7.02264 148.042 3.40984 147.517 3.43174 147.309C3.45364 147.101 7.07738 147.309 11.5551 147.517C16.0328 147.725 19.6674 147.867 19.6674 148.086Z" fill="#FF9A6C"/>
<path d="M27.9542 147.461C27.9542 147.538 27.0893 147.395 26.0602 146.53C25.3937 145.951 24.8635 145.232 24.5077 144.423C24.1519 143.615 23.9792 142.738 24.002 141.855C24.08 140.921 24.2487 139.997 24.5056 139.096C24.6972 138.382 24.7893 137.645 24.7793 136.906C24.7165 136.247 24.5655 135.599 24.3304 134.979C24.3304 134.903 25.1296 135.483 25.3048 136.863C25.3933 137.638 25.3489 138.423 25.1734 139.184C24.9674 140.052 24.8247 140.934 24.7465 141.822C24.7232 143.41 25.3248 144.944 26.4215 146.092C27.2645 147.078 28.0089 147.352 27.9542 147.461Z" fill="#FF9A6C"/>
<path d="M232.865 150.058C232.865 149.85 236.774 150.003 241.547 150.397C246.32 150.791 250.185 151.295 250.174 151.492C250.163 151.689 246.265 151.547 241.492 151.142C236.719 150.737 232.854 150.255 232.865 150.058Z" fill="#FF9A6C"/>
<path d="M120.168 84.2865C119.731 85.7443 119.178 87.1649 118.515 88.5347C118.22 89.1917 117.913 89.9033 117.596 90.6369C117.282 91.4727 116.916 92.2881 116.501 93.0785C116.343 93.3383 116.113 93.5468 115.839 93.6789C115.565 93.811 115.259 93.8611 114.957 93.8231C114.427 93.6834 113.934 93.4292 113.512 93.0785L110.928 91.3158C107.403 88.8851 104.239 86.6406 101.962 84.9982C100.689 84.166 99.4876 83.2284 98.3711 82.1953C99.7274 82.879 101.027 83.6698 102.258 84.5603C104.611 86.1041 107.83 88.261 111.355 90.7026L113.928 92.4763C114.264 92.7672 114.655 92.9869 115.078 93.1223C115.25 93.1431 115.425 93.1113 115.579 93.0313C115.734 92.9512 115.86 92.8265 115.942 92.6734C116.774 91.1625 117.464 89.5311 118.132 88.2938C118.698 86.9038 119.379 85.5634 120.168 84.2865Z" fill="#263238"/>
</svg>
