<svg width="239" height="219" viewBox="0 0 239 219" fill="none" xmlns="http://www.w3.org/2000/svg">
<rect x="14" y="1" width="209" height="211.508" rx="25.0826" fill="#FFF2CB"/>
<path d="M162.5 93.9992L195 128.498C201.406 115.539 200.639 104.226 211.606 67.9979L224.5 67.9979C220.204 59.5561 227.121 149.594 200.5 151.998C187.5 140.999 151.491 135.988 141.289 102.419C146.612 96.3478 144.175 87.8328 162.5 93.9992Z" fill="#FFBE9D"/>
<path d="M123.22 3C126.171 6.87266 127.381 11.2402 126.702 15.5683C126.249 18.3848 125.093 21.4888 127.418 23.857C130.259 26.7242 136.92 37.5 145.127 32.5C149.124 36.6782 136.619 39.9015 139.837 44.3672C141.961 47.3274 147.529 48.207 151.312 50.2877C156.591 53.1887 146.13 54.9149 143 59C108.949 58.5185 121.892 65.4058 141.596 70.6964L129.857 75.4581C127.758 76.3039 125.445 77.192 123.032 76.9636C118.708 76.5576 116.747 73.0223 112.8 71.7113C107.974 70.0874 102.368 72.3456 96.9883 72.5571C94.9883 72.6443 92.9837 72.4432 91.1085 71.9672C89.2333 71.4912 87.5308 70.7512 86.1148 69.7968C84.6988 68.8424 83.602 67.6955 82.8977 66.4329C82.1935 65.1703 81.898 63.821 82.031 62.4754" fill="#79725B"/>
<path d="M128.2 24.7284C129.566 27.8204 131.62 30.5594 134.206 32.7363C136.791 34.9131 139.841 36.4701 143.12 37.2884C143.645 32.8352 143.615 28.3341 143.03 23.8884C142.44 19.4187 140.439 15.2537 137.32 11.9984C134.1 8.88839 129.32 7.20838 125 8.36838" fill="#79725B"/>
<path d="M112.118 7.61462L113.3 7.54893C119.004 7.22231 124.622 9.05499 129.036 12.6824C133.45 16.3098 136.337 21.4661 137.123 27.1256C138.634 38.0745 138.259 46.6204 138.5 52.5C131.184 67 124.5 66.5 124.5 66.5L125.886 75C126.057 76.9456 129.273 79.6446 128.684 81.5069C128.096 83.3692 127.145 85.0967 125.886 86.5903C124.628 88.0839 123.087 89.3141 121.351 90.2101C119.616 91.1062 117.721 91.6505 115.774 91.8118C111.896 92.1228 108.051 90.8965 105.069 88.3975C102.087 85.8985 100.207 82.3272 99.8343 78.4541C100.029 57.9455 98.7419 48.5182 95.4552 33.2241C93.6816 20.6329 99.484 9.09273 112.118 7.61462Z" fill="#FFBF9D"/>
<path d="M137.357 74.9991C137.301 74.9317 137.508 71.7469 137.581 66.4246C137.6 65.1078 137.626 63.6318 137.64 62.1007C137.675 60.5412 137.62 58.9717 137.479 57.5011C137.437 57.1434 137.383 56.8079 137.318 56.5028C137.248 56.1714 137.171 55.8584 137.09 55.5657C136.982 55.173 136.895 54.7025 136.835 54.1815C136.777 53.5953 136.764 52.9566 136.8 52.3441C136.875 51.3431 136.984 50.3821 137.122 49.4839C137.176 49.0952 137.218 48.6842 137.248 48.259C137.258 48.0567 137.265 47.8522 137.268 47.6465C137.268 47.4506 137.26 47.2484 137.26 47.0341C137.207 46.1735 137.106 45.367 136.963 44.67C136.819 43.9044 136.652 43.1572 136.497 42.3671C136.331 41.5725 136.196 40.6893 136.097 39.7458C135.999 38.7692 135.975 37.7096 136.026 36.6835C136.076 35.7811 136.156 34.9065 136.264 34.0805L136.547 31.9063C136.718 30.5405 136.815 29.2359 136.75 28.0784C136.675 26.9707 136.555 25.9133 136.396 24.9426C136.27 24.1439 136.169 23.2932 136.093 22.407C136.047 21.8262 136.035 21.2132 136.058 20.6125C136.084 20.2082 136.11 20 136.122 20C136.159 20 136.098 20.8636 136.246 22.1742C136.346 22.9726 136.463 23.7369 136.597 24.4587C136.792 25.4747 136.942 26.6068 137.04 27.8089C137.088 28.5677 137.093 29.3573 137.054 30.124C137.015 30.9154 136.951 31.6863 136.864 32.4207C136.703 33.9029 136.475 35.3606 136.407 36.904C136.372 37.6673 136.395 38.4527 136.472 39.1701C136.561 39.9682 136.68 40.7146 136.824 41.3872C136.972 42.1283 137.146 42.8632 137.307 43.7084C137.491 44.6073 137.619 45.6549 137.68 46.7707C137.69 47.0737 137.694 47.3784 137.693 47.6833C137.689 47.9863 137.679 48.2875 137.661 48.5836C137.624 49.1262 137.57 49.6504 137.5 50.1454C137.376 50.9159 137.276 51.7379 137.201 52.5952C137.182 52.9339 137.188 53.286 137.22 53.6111C137.251 53.9362 137.306 54.221 137.378 54.4326C137.469 54.7732 137.553 55.1375 137.631 55.5228C137.711 55.9262 137.777 56.3691 137.827 56.8396C137.919 57.7073 137.973 58.6255 137.988 59.5589C138.004 60.3989 138.004 61.2423 137.988 62.0823C137.957 63.6808 137.915 65.1078 137.875 66.4491C137.818 68.5626 137.72 70.6569 137.581 72.7146C137.476 74.2703 137.383 75.0297 137.357 74.9991Z" fill="#455A64"/>
<path d="M110.825 34.7998C110.552 34.9978 110.227 35.0516 109.922 34.9494C109.617 34.8472 109.356 34.5974 109.197 34.2546C109.051 33.9032 108.984 33.5084 109.003 33.1126C109.022 32.7169 109.127 32.3351 109.306 32.0085C109.676 31.3591 110.191 30.8621 110.786 30.5802C111.992 29.9389 113.334 29.8256 114.598 30.2585C115.626 30.6129 116.642 31.4415 116.933 32.7281C117.002 32.9491 117.018 33.1906 116.98 33.4229C116.941 33.6553 116.849 33.8686 116.716 34.0366C116.351 34.3964 115.826 34.1347 115.392 33.933C114.053 33.3081 112.579 33.3198 111.246 33.9657" fill="#B9B8B6"/>
<path d="M127.798 33.9261C127.482 34.0484 127.142 34.0182 126.841 33.8409C126.54 33.6637 126.298 33.3513 126.159 32.9607C126.029 32.5668 125.978 32.1366 126.009 31.7099C126.04 31.2831 126.153 30.8733 126.337 30.5182C126.715 29.8132 127.238 29.2625 127.846 28.9301C129.003 28.3117 130.244 28.0031 131.495 28.0226C132.369 27.9419 133.248 28.0778 134.085 28.4232C134.503 28.6009 134.884 28.9006 135.2 29.2996C135.517 29.6986 135.759 30.1863 135.909 30.7258C136.045 31.2714 136.028 31.8627 135.861 32.3935C135.693 32.9243 135.386 33.3599 134.995 33.622C134.136 34.1047 133.178 33.4772 132.275 33.1393C131.085 32.7058 129.818 32.7905 128.668 33.3807" fill="#B9B8B6"/>
<path d="M122.32 66.8396C116.677 67.1674 110.935 65.6813 106 63C106 63 111.601 71.3034 123.68 69.5598L122.32 66.8396Z" fill="#FF9A6C"/>
<path d="M117.074 36.8067C117.114 37.3596 116.941 37.9062 116.594 38.3282C116.247 38.7501 115.753 39.0134 115.219 39.0611C114.96 39.0984 114.696 39.0814 114.443 39.0112C114.19 38.9409 113.953 38.8189 113.747 38.6522C113.54 38.4856 113.368 38.2777 113.24 38.0409C113.113 37.8041 113.032 37.5432 113.004 37.2736C112.971 36.7223 113.146 36.1794 113.492 35.759C113.838 35.3386 114.328 35.0735 114.859 35.0193C115.118 34.982 115.382 34.9989 115.635 35.0692C115.888 35.1394 116.125 35.2614 116.331 35.4281C116.538 35.5948 116.71 35.8027 116.838 36.0395C116.965 36.2763 117.046 36.5372 117.074 36.8067Z" fill="#263238"/>
<path d="M134.867 33.2354C134.659 33.4763 133.291 32.5675 131.419 32.688C129.547 32.8084 128.222 33.7828 128.014 33.5967C127.806 33.4106 128.101 33.0821 128.671 32.6113C129.449 32.0004 130.398 31.6448 131.386 31.5931C132.358 31.5392 133.323 31.7919 134.145 32.3157C134.725 32.7208 134.944 33.115 134.867 33.2354Z" fill="#263238"/>
<path d="M135.076 36.8067C135.109 37.358 134.934 37.9009 134.588 38.3213C134.242 38.7417 133.752 39.0069 133.221 39.0611C132.961 39.0984 132.697 39.0814 132.444 39.0112C132.191 38.9409 131.954 38.8189 131.748 38.6522C131.541 38.4856 131.369 38.2777 131.241 38.0409C131.114 37.8041 131.033 37.5432 131.005 37.2736C130.969 36.7215 131.143 36.1768 131.489 35.7556C131.836 35.3345 132.328 35.0702 132.86 35.0193C133.119 34.982 133.383 34.9989 133.636 35.0692C133.889 35.1394 134.126 35.2614 134.333 35.4281C134.54 35.5948 134.712 35.8026 134.839 36.0394C134.967 36.2762 135.048 36.5372 135.076 36.8067Z" fill="#263238"/>
<path d="M116.463 34.6367C116.266 34.8776 114.887 33.9798 113.015 34.0893C111.143 34.1988 109.829 35.1842 109.61 34.998C109.391 34.8119 109.698 34.4834 110.278 34.0126C111.05 33.4074 111.991 33.0556 112.971 33.0053C113.944 32.9431 114.912 33.1965 115.73 33.728C116.343 34.1331 116.562 34.5272 116.463 34.6367Z" fill="#263238"/>
<path d="M124.051 48.1387C125.018 47.7655 126.107 46.1138 127.138 46C130.394 44.077 127.46 43.5758 126.021 41.9197C123.766 36.8504 122.102 32.6788 122.299 32.5912C122.496 32.5037 124.489 36.5329 126.766 41.6022C127.698 43.404 130.928 43.8069 127.5 46.5C126.482 46.6834 125.084 48.1985 124.051 48.1387Z" fill="#263238"/>
<path d="M116.604 28.7466C116.44 29.2612 114.557 29.1298 112.378 29.524C110.199 29.9181 108.459 30.6189 108.141 30.17C107.999 29.9619 108.284 29.4692 108.962 28.9327C109.883 28.2721 110.943 27.8301 112.06 27.6404C113.177 27.4506 114.323 27.5182 115.411 27.8378C116.232 28.1225 116.67 28.4948 116.604 28.7466Z" fill="#263238"/>
<path d="M133.913 29.323C133.618 29.7609 132.304 29.3996 130.75 29.4653C129.195 29.531 127.903 29.9142 127.575 29.4653C127.432 29.2573 127.575 28.8193 128.155 28.3704C128.897 27.8389 129.782 27.5449 130.695 27.5273C131.609 27.4887 132.513 27.7376 133.278 28.239C133.848 28.677 134.056 29.104 133.913 29.323Z" fill="#263238"/>
<path d="M98.1366 44.9623C98.0998 44.5124 97.9707 44.075 97.7573 43.6772C97.544 43.2795 97.251 42.93 96.8966 42.6506C96.5422 42.3711 96.134 42.1677 95.6975 42.0531C95.261 41.9384 94.8055 41.9149 94.3595 41.9842C92.1043 42.3345 89.652 43.7688 90.068 48.455C90.8124 56.7652 99.0014 54.3017 99.0014 54.0608C99.0014 53.8199 98.4759 48.444 98.1366 44.9623Z" fill="#FFBF9D"/>
<path d="M96.9323 51.0906C96.9323 51.0906 96.8009 51.2111 96.5601 51.3424C96.2243 51.5222 95.8321 51.5653 95.4653 51.4629C94.5675 51.222 93.7027 49.8862 93.5275 48.3972C93.4408 47.6853 93.5157 46.963 93.7465 46.284C93.801 46.0185 93.9192 45.7703 94.0908 45.5605C94.2624 45.3507 94.4823 45.1857 94.7318 45.0797C94.8935 45.0222 95.0701 45.0225 95.2317 45.0803C95.3933 45.1382 95.53 45.2501 95.6185 45.3972C95.7609 45.6162 95.7171 45.7913 95.7609 45.8023C95.8047 45.8132 95.9251 45.649 95.8265 45.3096C95.7646 45.1065 95.6327 44.9319 95.4543 44.8169C95.2101 44.663 94.915 44.6119 94.6332 44.6745C94.2996 44.774 93.9968 44.9569 93.7535 45.2059C93.5102 45.455 93.3345 45.762 93.2429 46.0979C92.9527 46.8503 92.8512 47.6622 92.9473 48.4629C93.1553 50.1381 94.1515 51.6271 95.3777 51.868C95.6064 51.9135 95.8424 51.9066 96.068 51.8478C96.2937 51.789 96.5031 51.6799 96.6805 51.5286C96.9323 51.2986 96.9651 51.1125 96.9323 51.0906Z" fill="#FF9A6C"/>
<path d="M124.983 54.9738C124.853 54.3141 124.383 53.7113 123.665 53.2798C123.011 52.8769 122.319 53.9612 121.453 53.9219C120.587 53.8826 119.595 52.722 118.873 53.0625C117.41 53.7631 116.8 53.6212 117.057 54.9738C117.867 55.772 118.867 57.9006 120.248 57.9937C120.458 58.0021 120.667 58.0021 120.876 57.9937C121.959 57.9951 123.003 57.7104 123.803 57.1955C124.225 56.9123 124.55 56.5652 124.755 56.1804C124.959 55.7956 125.037 55.383 124.983 54.9738Z" fill="#FF725E"/>
<path d="M118.494 54C118.201 54.1397 118.038 54.2847 118.009 54.431C117.974 54.5002 118.04 54.5697 118.202 54.6348C118.363 54.6998 118.616 54.7589 118.944 54.8081C119.284 54.8684 119.709 54.9169 120.188 54.9501C120.667 54.9832 121.189 55.0003 121.717 55C122.669 54.9997 123.59 54.9487 124.313 54.8561C125.036 54.7635 125.514 54.6355 125.662 54.4949L126 54.1768C124.028 54.0926 118.64 54.0219 118.494 54Z" fill="#FFF0EE"/>
<path d="M124.15 55.8587C124.15 55.8587 123.804 55.8587 123.232 55.8785C122.43 55.9057 121.613 55.9057 120.811 55.8785C119.652 55.8385 118.605 55.7041 117.878 55.5022C117.012 55.2495 116.6 54.9357 116.72 54.6207C116.755 54.4434 116.965 54.2699 117.337 54.1122L116.976 54.1486C119.547 54.2344 121.804 54.3037 123.398 54.3433C124.256 54.3786 125.128 54.3929 126 54.3863C125.188 54.3169 124.339 54.2704 123.473 54.2476C121.879 54.1816 119.653 54.0924 117.081 54H116.84L116.735 54.0462C116.158 54.2915 115.913 54.5679 116.027 54.8428C116.142 55.1176 116.612 55.3796 117.382 55.5979C118.226 55.8214 119.435 55.9636 120.751 55.9941C121.606 56.0105 122.467 55.9926 123.293 55.9412C123.602 55.9276 123.895 55.8994 124.15 55.8587Z" fill="#263238"/>
<path d="M69.4394 92C68.766 92 62.9478 98.3862 60.4174 109.464C57.887 120.541 52.0296 169.138 52.0296 169.138C49.4132 174.015 40.3793 185.697 55.706 188.879C55.706 188.879 64.7051 190.725 67.5722 180.007C70.4393 169.29 76 137.316 76 137.316L69.4394 92Z" fill="#FFBE9D"/>
<path d="M100 62C98.3668 80.564 95.9244 83.216 93.1591 82.8736L68.5156 91.7907C58.5722 125.096 134.176 175.632 155.348 126.01L161.317 93.4961L133.279 81.9485L127 79L116.28 84.9022L100 62Z" fill="#FFBF9D"/>
<path d="M214.031 71.289C212.437 70.5451 211.074 69.4063 210.073 67.9812C209.071 66.556 208.465 64.892 208.311 63.1479C208.169 59.1173 208.714 55.0732 209.926 51.1835C210.551 48.7215 210.253 42.4327 211.567 42.3186C212.88 42.2044 214.291 42.7514 214.965 44.788C215.64 46.8246 213.463 54.0298 215.879 54.5537C216.859 54.7626 218.353 53.0824 218.353 53.0824C221.043 50.0164 223.578 46.8234 225.949 43.5156C227.883 40.4706 230.393 38.2961 231.258 39.1637C232.124 40.0313 232.256 40.9572 230.65 43.4737C229.044 45.9902 225.948 49.7377 226.303 50.3724C226.657 51.0072 227.645 50.4175 228.619 48.9757C229.594 47.5339 234.542 40.9963 235.622 41.0897C235.893 41.1182 236.152 41.2055 236.381 41.3454C236.61 41.4854 236.803 41.6744 236.947 41.899C237.09 42.1235 237.181 42.378 237.211 42.6441C237.242 42.9101 237.212 43.1812 237.123 43.4377L236.497 45.3586C236.497 45.3586 238.408 45.3641 238.525 46.6057C238.642 47.8474 237.117 49.3544 237.117 49.3544L230.281 57.8264C230.281 57.8264 230.42 58.6944 230.96 58.7092C231.499 58.724 236.177 51.5881 236.955 52.0779C237.733 52.5677 238.522 52.223 237.511 54.6315C235.744 57.9505 233.439 60.9736 230.688 63.5784C228.795 65.0438 222.647 72.4821 222.647 72.4821L214.031 71.289Z" fill="#FFBF9D"/>
<path d="M217.266 53.9549C217.383 53.958 217.338 54.763 217.479 55.9796C217.558 56.6777 217.796 57.3496 218.176 57.9462C218.603 58.6213 219.257 59.2669 219.855 60.0894C220.369 60.7947 220.735 61.5926 220.93 62.4369C221.126 63.2811 221.148 64.1548 220.995 65.0073C220.936 65.7196 220.64 66.3934 220.151 66.9249C220.035 66.8789 220.392 66.161 220.5 64.9368C220.642 63.3645 220.216 61.793 219.295 60.4951C218.702 59.7861 218.147 59.047 217.633 58.281C217.248 57.6027 217.038 56.8426 217.023 56.0671C216.93 55.3542 217.013 54.6298 217.266 53.9549Z" fill="#FF9A6C"/>
<path d="M51.0625 168.441C44.4644 160.326 40.8739 157.504 34.5625 153.941L26.5625 161.441C32.2397 171.673 49 186.5 50 186.5C50.5 187 55.3014 184.011 57.5 181.5C59.186 176.672 51.0625 168.441 51.0625 168.441Z" fill="#FFBF9D"/>
<path d="M34.5419 155.281C35.0451 153.669 35.1355 151.953 34.8044 150.296C34.4733 148.638 33.7317 147.094 32.65 145.81C29.9882 142.998 26.8756 140.668 23.4456 138.918C21.3834 137.657 17.2967 133.268 16.3791 134.105C15.8351 134.605 15.4881 135.288 15.4028 136.028C15.3175 136.769 15.4998 137.515 15.9156 138.129C16.8616 139.967 21.4212 142.104 21.2604 144.462C21.2436 144.691 21.1829 144.913 21.0816 145.117C20.9803 145.322 20.8404 145.504 20.67 145.653C20.4996 145.802 20.3019 145.916 20.0884 145.987C19.8748 146.059 19.6494 146.087 19.4252 146.07C15.6506 145.894 11.8872 145.524 8.14913 144.963C4.84767 144.27 1.79216 144.559 1.83 145.743C1.86784 146.927 2.42596 147.668 5.15038 148.216C7.8748 148.765 12.3777 149.179 12.529 149.805C12.6804 150.43 11.7249 150.767 10.1262 150.469C8.52752 150.17 0.959697 149.256 0.344811 150.074C0.192393 150.28 0.0867382 150.517 0.0354622 150.77C-0.0158139 151.022 -0.0114351 151.283 0.0482836 151.533C0.108002 151.784 0.221574 152.018 0.380813 152.218C0.540052 152.418 0.740993 152.58 0.969157 152.692L2.67192 153.549C2.67192 153.549 1.47053 154.887 2.23677 155.801C3.00301 156.716 4.98957 156.667 4.98957 156.667L15.0737 157.572C15.0737 157.572 15.5751 158.256 15.2345 158.641C14.894 159.026 7.10856 157.505 6.94774 158.381C6.78693 159.257 6.04906 159.574 8.33833 160.441C11.7157 161.437 15.2319 161.856 18.7441 161.682C20.9388 161.345 29.8877 162 29.8877 162L34.5419 155.281Z" fill="#FFBF9D"/>
<path d="M16 153.761C16 153.935 12.8564 154.108 8.97644 153.915C5.09649 153.722 1.9812 153.259 2.00009 153.076C2.01897 152.893 5.14369 153.076 9.00476 153.259C12.8658 153.443 16 153.568 16 153.761Z" fill="#FF9A6C"/>
<path d="M23.9978 152.986C23.9978 153.047 23.3421 152.933 22.5619 152.241C22.0566 151.778 21.6547 151.203 21.3849 150.557C21.1151 149.91 20.9842 149.209 21.0015 148.503C21.0607 147.757 21.1885 147.018 21.3833 146.297C21.5286 145.726 21.5984 145.137 21.5908 144.546C21.5432 144.019 21.4287 143.501 21.2505 143.005C21.2505 142.944 21.8564 143.408 21.9892 144.511C22.0563 145.131 22.0226 145.759 21.8896 146.367C21.7334 147.061 21.6253 147.766 21.5659 148.477C21.5483 149.747 22.0044 150.973 22.8358 151.891C23.4749 152.679 24.0393 152.898 23.9978 152.986Z" fill="#FF9A6C"/>
<path d="M93.1591 82.8705L68.5156 91.7876C66.8756 106.915 71.1879 109.337 72.5 126C87.7126 172.271 90.5679 206.781 86 215C112.803 219.131 154.788 223.782 157 205C139.989 166.186 155.834 145.996 159.5 126C158.517 116.721 155.433 109.458 161.317 93.493L133.279 81.9453C133.046 134.474 101.915 131.885 93.1591 82.8705Z" fill="#B9B8B6"/>
<path opacity="0.2" d="M93.2033 141.605C100.772 142.119 105.502 139.509 109.169 137.295C112.837 135.081 116.942 132.817 121.199 133.416C124.656 133.905 127.465 136.183 130.531 137.764C135.176 140.144 140.531 140.97 145.752 140.111C143.801 141.679 141.529 142.836 139.086 143.506C136.643 144.176 134.085 144.343 131.58 143.996C126.129 143.207 121.083 139.99 115.587 140.363C111.234 140.665 107.384 143.173 103.177 144.327C95.4702 146.453 86.5869 143.478 82 137.246C82.0058 137.25 89.4563 141.352 93.2033 141.605Z" fill="black"/>
<path d="M62.5691 179.928C62.453 180.057 59.9995 178.084 57.2437 175.346C54.4879 172.608 52.4814 170.18 52.618 170.057C52.7546 169.933 54.9553 172.159 57.7035 174.877C60.4517 177.595 62.6981 179.784 62.5691 179.928Z" fill="#FF9A6C"/>
<path d="M141.162 6.82198C142.159 8.62113 142.27 10.5903 141.476 12.4353C140.682 14.2804 139.028 15.9021 136.759 17.0584C132.127 19.3024 125.98 19.2081 120.372 19.8685C114.763 20.5289 108.497 22.7999 108.119 26.6478C107.889 28.9727 109.952 31.365 108.706 33.5619C107.252 36.1092 102.112 36.8573 100.289 39.2967C97.3797 43.2188 97.0759 44.0477 96 48.374C95.3525 50.9415 101.046 56.946 100.289 59.5C99.4681 68.4525 79.3897 82.6707 75.6829 81C85.0435 71.0984 84.5283 67.0795 69.128 77.5C65.4123 76.1724 79.7374 66.6297 75.6829 67.371C73.2423 67.809 71.3595 69.1029 69.128 69.8913C67.0871 70.614 64.7758 70.9121 62.485 70.7481C60.1942 70.5841 58.0263 69.9654 56.2542 68.9698C54.4821 67.9741 53.185 66.6461 52.5261 65.1529C51.8673 63.6597 46.3821 55.0424 47.0575 53.5526C48.0537 51.3624 55.8589 56.6157 57.8014 54.7423C59.744 52.8689 61.4176 50.6248 60.79 48.374C60.3218 46.6489 58.5884 45.227 57.2735 43.7107C55.9585 42.1945 55.0619 40.2604 56.3271 38.7239C59.2743 40.7728 66.1486 43.1038 68.0023 34.3638C71.9073 31.0618 58.1601 24.3731 60.79 20.532C63.6135 21.6112 82.1201 24.2938 85.2562 15.1176C86.352 13.5339 85.7941 11.6672 86.342 9.95556C87.5773 6.05374 94.1023 3.99164 99.9897 3.74904C105.877 3.50644 111.814 4.46337 117.642 3.87708C120.84 3.55362 123.898 2.77864 127.056 2.32713C130.214 1.87563 133.651 1.78128 136.54 2.76516C139.429 3.74904 141.521 6.06048 140.524 8.15628" fill="#79725B"/>
<path d="M96.9992 35.7152C97.0256 35.0048 96.3828 33.2865 95.7796 33.1499C94.1648 32.7704 91.2303 32.7613 91.0116 37.5154C90.7087 44.012 96.4329 43.0223 96.4513 42.8371C96.4697 42.6519 96.9044 38.165 96.9992 35.7152Z" fill="#FFBF9D"/>
<path d="M62.1552 95.0761C61.7743 94.7894 61.4632 94.4202 61.2452 93.9961C60.9852 93.3715 60.8804 92.6932 60.9396 92.0193C60.9988 91.3454 61.2203 90.6958 61.5852 90.1261C62.1018 89.2831 62.8335 88.5928 63.7052 88.1261C64.738 87.5729 65.8233 87.124 66.9452 86.7861C68.262 86.4069 69.533 85.8837 70.7352 85.2261C71.4347 84.8643 72.0522 84.3624 72.5494 83.7517C73.0466 83.1409 73.4128 82.4344 73.6252 81.6761C73.9037 79.9434 73.5487 78.1684 72.6252 76.6761C71.8452 75.0961 70.7952 73.5861 70.1052 71.8661C69.4151 70.0149 69.1677 68.0278 69.3831 66.0639C69.5984 64.1 70.2703 62.2138 71.3452 60.5561C72.4716 58.7419 74.068 57.2664 75.9652 56.2861C77.9152 55.2861 80.1452 54.8061 82.2852 53.8661C83.4057 53.4008 84.4247 52.7215 85.2852 51.8661C86.1428 50.9685 86.7077 49.8317 86.9052 48.6061C87.3052 46.1361 86.5352 43.7461 86.2552 41.3661C85.9374 38.9925 86.2549 36.577 87.1752 34.3661C88.0674 32.2308 89.3646 30.2884 90.9952 28.6461C94.1752 25.5906 98.0654 23.3741 102.315 22.1961C106.159 21.0934 110.066 20.2251 114.015 19.5961C117.473 19.0309 120.887 18.229 124.235 17.1961C127.002 16.3207 129.626 15.0474 132.025 13.4161C133.829 12.1716 135.431 10.6573 136.775 8.9261C137.63 7.83775 138.33 6.63634 138.855 5.35609C139.046 4.91548 139.204 4.4608 139.325 3.99609C139.325 3.99609 139.145 4.4561 138.755 5.3161C138.193 6.56576 137.474 7.73856 136.615 8.80609C133.342 12.6623 128.988 15.4489 124.115 16.8061C120.782 17.8118 117.384 18.5903 113.945 19.1361C109.973 19.7487 106.042 20.607 102.175 21.7061C97.8418 22.8859 93.8739 25.1346 90.6352 28.2461C88.9569 29.9391 87.6194 31.9386 86.6952 34.1361C85.7302 36.4123 85.3852 38.9033 85.6952 41.3561C85.9952 43.7961 86.6952 46.1661 86.3552 48.4561C86.1781 49.5853 85.6579 50.6327 84.8652 51.4561C84.0638 52.2549 83.1122 52.887 82.0652 53.3161C79.9852 54.2361 77.7552 54.7561 75.7352 55.7661C73.7573 56.7856 72.097 58.3282 70.9352 60.2261C69.8251 61.946 69.1346 63.9027 68.9192 65.9384C68.7038 67.9741 68.9696 70.0319 69.6952 71.9461C70.4252 73.7261 71.4852 75.2261 72.2552 76.7761C73.1303 78.1729 73.4844 79.8338 73.2552 81.4661C73.0571 82.1804 72.7143 82.8463 72.2481 83.4225C71.7819 83.9988 71.2023 84.4731 70.5452 84.8161C69.368 85.4701 68.1242 85.9964 66.8352 86.3861C65.6958 86.7365 64.5964 87.2057 63.5552 87.7861C62.6619 88.2771 61.9135 88.9944 61.3852 89.8661C61.0202 90.4618 60.8066 91.1378 60.7631 91.835C60.7195 92.5323 60.8472 93.2296 61.1352 93.8661C61.3198 94.3783 61.6816 94.8075 62.1552 95.0761Z" fill="#455A64"/>
<path d="M66.4452 39.1552C66.4452 39.1552 66.5152 39.1551 66.6652 39.2151L67.3252 39.3551C67.9152 39.4551 68.7852 39.6152 69.9152 39.7151C71.2921 39.8691 72.6844 39.8152 74.0452 39.5551C75.8819 39.1843 77.5346 38.1919 78.7252 36.7451C80.1185 34.9929 81.1239 32.9649 81.6752 30.7952C82.2696 28.3461 82.9906 25.9295 83.8352 23.5551C84.9465 21.0129 86.6631 18.7813 88.8352 17.0551C91.1503 15.205 93.7646 13.7642 96.5652 12.7952C102.365 10.7952 108.315 10.5251 113.615 10.0251C116.275 9.79515 118.815 9.53515 121.165 9.13515C123.353 8.77852 125.507 8.23999 127.605 7.52515C130.669 6.53593 133.509 4.9562 135.965 2.87515C136.859 2.11005 137.658 1.24051 138.345 0.285156C138.279 0.331043 138.219 0.384755 138.165 0.445145C138.045 0.575145 137.895 0.74515 137.705 0.93515C137.122 1.57229 136.493 2.16712 135.825 2.71515C133.356 4.72097 130.525 6.23495 127.485 7.17516C125.401 7.86094 123.264 8.37269 121.095 8.70515C118.755 9.09515 116.235 9.33514 113.575 9.55515C108.275 10.0151 102.305 10.2551 96.3952 12.3051C93.5236 13.2979 90.842 14.7723 88.4652 16.6651C86.2515 18.4573 84.5108 20.7646 83.3952 23.3851C82.5487 25.7766 81.8376 28.2138 81.2652 30.6852C80.7405 32.8064 79.7802 34.7952 78.4452 36.5251C77.3109 37.9202 75.7398 38.8925 73.9852 39.2852C72.6508 39.5624 71.283 39.6432 69.9252 39.5251C68.8052 39.4551 67.9252 39.3352 67.3452 39.2552C67.0478 39.2015 66.7471 39.1681 66.4452 39.1552Z" fill="#455A64"/>
<path d="M99.357 65.9994C99.3006 65.9528 99.5083 63.7524 99.5807 60.0752C99.6 59.1654 99.6258 58.1456 99.6402 57.0877C99.6749 56.0103 99.62 54.9259 99.4793 53.9098C99.4371 53.6627 99.383 53.4309 99.3183 53.2201C99.2477 52.9912 99.1713 52.7749 99.0898 52.5727C98.9817 52.3014 98.8953 51.9763 98.8355 51.6163C98.7768 51.2113 98.7645 50.77 98.8 50.3469C98.8754 49.6552 98.9835 48.9913 99.122 48.3707C99.176 48.1021 99.2181 47.8182 99.2475 47.5244C99.2578 47.3846 99.2648 47.2433 99.2684 47.1012C99.2684 46.9658 99.2604 46.8262 99.2604 46.6781C99.2071 46.0835 99.1055 45.5263 98.9626 45.0447C98.8194 44.5158 98.652 43.9995 98.4974 43.4536C98.3309 42.9046 98.1959 42.2944 98.0967 41.6425C97.9995 40.9678 97.975 40.2357 98.0258 39.5268C98.0761 38.9033 98.1561 38.299 98.2641 37.7284L98.5473 36.2261C98.718 35.2825 98.8145 34.3812 98.7501 33.5814C98.6747 32.8161 98.5553 32.0855 98.396 31.4149C98.2702 30.8631 98.1687 30.2753 98.0934 29.663C98.0468 29.2617 98.0347 28.8382 98.058 28.4232C98.0838 28.1439 98.1095 28 98.1224 28C98.1594 28 98.0983 28.5967 98.2464 29.5022C98.3459 30.0538 98.4633 30.5818 98.5972 31.0806C98.7924 31.7825 98.942 32.5647 99.0399 33.3952C99.0883 33.9195 99.0932 34.465 99.0544 34.9948C99.0151 35.5416 98.9513 36.0742 98.8644 36.5816C98.7035 37.6056 98.4749 38.6127 98.4073 39.6791C98.3724 40.2065 98.3947 40.7492 98.4717 41.2448C98.5613 41.7962 98.68 42.3119 98.8242 42.7766C98.9723 43.2886 99.1461 43.7964 99.3071 44.3804C99.4913 45.0014 99.6191 45.7252 99.6805 46.4961C99.6895 46.7054 99.6938 46.916 99.6934 47.1266C99.6893 47.336 99.6785 47.5441 99.6612 47.7487C99.6237 48.1236 99.5696 48.4857 99.5002 48.8277C99.3762 49.3601 99.2758 49.928 99.2008 50.5203C99.1818 50.7543 99.1884 50.9976 99.2197 51.2222C99.251 51.4468 99.3059 51.6436 99.3779 51.7898C99.4687 52.0251 99.5531 52.2768 99.6306 52.543C99.7113 52.8217 99.7773 53.1277 99.8269 53.4528C99.9186 54.0523 99.9729 54.6867 99.9879 55.3316C100.004 55.912 100.004 56.4947 99.9879 57.075C99.9573 58.1795 99.9155 59.1654 99.8752 60.0921C99.8181 61.5523 99.7196 62.9993 99.5807 64.421C99.4761 65.4958 99.3827 66.0205 99.357 65.9994Z" fill="#455A64"/>
</svg>
