<svg width="235" height="239" viewBox="0 0 235 239" fill="none" xmlns="http://www.w3.org/2000/svg">
<rect x="16" y="19" width="209" height="211.508" rx="25.0826" fill="#FFF2CB"/>
<path d="M123.634 84.9646C117.991 85.2924 112.249 83.8063 107.314 81.125C107.314 81.125 112.915 89.4284 124.993 87.6848L123.634 84.9646Z" fill="#FF9A6C"/>
<path d="M115.472 57.5284C115.511 58.0813 115.339 58.6279 114.992 59.0499C114.644 59.4718 114.151 59.7351 113.617 59.7827C113.358 59.82 113.094 59.8031 112.841 59.7329C112.588 59.6626 112.351 59.5406 112.145 59.3739C111.938 59.2072 111.766 58.9994 111.638 58.7626C111.511 58.5258 111.43 58.2649 111.402 57.9953C111.369 57.444 111.544 56.9011 111.89 56.4807C112.236 56.0603 112.726 55.7951 113.257 55.7409C113.516 55.7037 113.78 55.7206 114.033 55.7908C114.286 55.8611 114.523 55.9831 114.729 56.1498C114.936 56.3165 115.108 56.5243 115.236 56.7611C115.363 56.9979 115.444 57.2588 115.472 57.5284Z" fill="#263238"/>
<path d="M132.868 51.2315C132.66 51.4724 131.292 50.5636 129.42 50.684C127.548 50.8045 126.223 51.7789 126.015 51.5928C125.807 51.4067 126.103 51.0782 126.672 50.6074C127.451 49.9965 128.399 49.6409 129.387 49.5892C130.36 49.5353 131.325 49.788 132.146 50.3118C132.726 50.7169 132.945 51.1111 132.868 51.2315Z" fill="#263238"/>
<path d="M131.792 57.5284C131.825 58.0797 131.65 58.6226 131.304 59.043C130.958 59.4634 130.468 59.7285 129.937 59.7827C129.677 59.82 129.413 59.8031 129.16 59.7328C128.907 59.6626 128.67 59.5406 128.464 59.3739C128.257 59.2072 128.085 58.9994 127.957 58.7626C127.83 58.5258 127.749 58.2648 127.721 57.9953C127.685 57.4432 127.859 56.8985 128.205 56.4773C128.552 56.0561 129.044 55.7919 129.576 55.7409C129.835 55.7037 130.1 55.7206 130.353 55.7908C130.606 55.8611 130.842 55.9831 131.049 56.1498C131.256 56.3164 131.428 56.5243 131.555 56.7611C131.683 56.9979 131.764 57.2588 131.792 57.5284Z" fill="#263238"/>
<path d="M114.465 52.6382C114.267 52.8791 112.888 51.9813 111.016 52.0908C109.144 52.2002 107.83 53.1856 107.611 52.9995C107.392 52.8134 107.699 52.4849 108.279 52.0141C109.052 51.4089 109.992 51.057 110.972 51.0068C111.946 50.9445 112.913 51.1979 113.731 51.7294C114.344 52.1345 114.563 52.5287 114.465 52.6382Z" fill="#263238"/>
<path d="M122.049 66.1392C123.017 65.766 124.029 65.5195 125.06 65.4056C125.541 65.329 125.979 65.2085 126.045 64.8801C126.061 64.3834 125.924 63.8939 125.651 63.4786C125.125 62.3837 124.556 61.1684 124.02 59.9202C121.764 54.8509 120.1 50.6793 120.297 50.5917C120.494 50.5041 122.487 54.5333 124.764 59.6027C125.311 60.8509 125.859 62.0443 126.33 63.183C126.659 63.7439 126.787 64.4008 126.691 65.0443C126.632 65.2187 126.533 65.3768 126.401 65.506C126.27 65.6353 126.111 65.7321 125.935 65.7888C125.678 65.8791 125.409 65.9343 125.136 65.9531C124.118 66.1365 123.082 66.1989 122.049 66.1392Z" fill="#263238"/>
<path d="M114.606 46.7417C114.441 47.2563 112.558 47.1249 110.38 47.5191C108.201 47.9132 106.46 48.614 106.143 48.1651C106.001 47.957 106.285 47.4643 106.964 46.9278C107.885 46.2672 108.944 45.8252 110.062 45.6355C111.179 45.4457 112.325 45.5133 113.412 45.833C114.233 46.1176 114.671 46.4899 114.606 46.7417Z" fill="#263238"/>
<path d="M131.914 47.3259C131.619 47.7638 130.305 47.4025 128.75 47.4682C127.196 47.5339 125.904 47.9171 125.575 47.4682C125.433 47.2602 125.575 46.8222 126.156 46.3733C126.897 45.8418 127.783 45.5479 128.695 45.5303C129.61 45.4916 130.513 45.7405 131.279 46.242C131.848 46.6799 132.057 47.1069 131.914 47.3259Z" fill="#263238"/>
<path d="M96.1363 62.9603C96.0995 62.5105 95.9704 62.073 95.7571 61.6753C95.5438 61.2775 95.2507 60.9281 94.8963 60.6486C94.5419 60.3692 94.1337 60.1658 93.6972 60.0511C93.2607 59.9365 92.8053 59.913 92.3593 59.9822C90.104 60.3326 87.6517 61.7669 88.0677 66.453C88.8122 74.7632 97.0012 72.2997 97.0012 72.0588C97.0012 71.818 96.4757 66.4421 96.1363 62.9603Z" fill="#FFBF9D"/>
<path d="M94.9328 69.0935C94.9328 69.0935 94.8014 69.214 94.5605 69.3454C94.2248 69.5251 93.8326 69.5682 93.4658 69.4658C92.568 69.2249 91.7031 67.8892 91.528 66.4001C91.4413 65.6882 91.5162 64.966 91.7469 64.287C91.8015 64.0215 91.9197 63.7732 92.0913 63.5634C92.2629 63.3536 92.4828 63.1886 92.7322 63.0826C92.894 63.0252 93.0706 63.0254 93.2322 63.0833C93.3938 63.1411 93.5305 63.2531 93.619 63.4001C93.7613 63.6191 93.7176 63.7943 93.7613 63.8052C93.8051 63.8162 93.9256 63.6519 93.827 63.3125C93.7651 63.1094 93.6332 62.9349 93.4548 62.8198C93.2106 62.666 92.9155 62.6148 92.6337 62.6775C92.3001 62.7769 91.9973 62.9598 91.754 63.2089C91.5107 63.4579 91.335 63.7649 91.2433 64.1008C90.9532 64.8532 90.8517 65.6652 90.9477 66.4658C91.1558 68.141 92.152 69.63 93.3782 69.8709C93.6069 69.9164 93.8429 69.9095 94.0685 69.8507C94.2942 69.7919 94.5035 69.6828 94.681 69.5315C94.9328 69.3016 94.9656 69.1154 94.9328 69.0935Z" fill="#FF9A6C"/>
<path d="M90.2695 44.007C90.6537 44.6081 90.9765 45.2463 91.2329 45.9121C91.5332 46.5845 92.0051 47.1661 92.6014 47.5982C93.3985 48.0061 94.3165 48.1111 95.1851 47.8938C96.0881 47.7187 96.9408 47.3446 97.6813 46.7989C98.2784 46.3354 98.8218 45.8065 99.3015 45.2223C99.7207 44.6491 100.186 44.1108 100.692 43.6128C100.425 44.2759 100.056 44.8929 99.5971 45.4413C99.1386 46.086 98.5934 46.6645 97.9768 47.1602C97.1866 47.7572 96.2683 48.162 95.2946 48.3427C94.3079 48.5873 93.265 48.4422 92.3825 47.9376C91.723 47.4548 91.2204 46.7883 90.9374 46.0216C90.6327 45.3801 90.4084 44.7034 90.2695 44.007Z" fill="#B9B8B6"/>
<path d="M90.5865 50.4365C91.0876 50.8165 91.6406 51.1225 92.2287 51.3453C92.8684 51.5479 93.5449 51.6077 94.2102 51.5204C95.027 51.3963 95.8075 51.0976 96.4983 50.6445C97.7534 49.7727 98.8186 48.6552 99.6294 47.3598C99.939 46.7979 100.306 46.2696 100.724 45.7832C100.533 46.4095 100.249 47.0037 99.8812 47.546C99.1373 48.972 98.0593 50.1966 96.7392 51.1153C95.9874 51.6129 95.1281 51.9244 94.2321 52.0241C93.4891 52.1059 92.7373 52.0044 92.0426 51.7285C90.9259 51.192 90.5317 50.4474 90.5865 50.4365Z" fill="#B9B8B6"/>
<path d="M116.433 72.9023C116.153 73.3612 115.997 73.8374 115.969 74.318C115.936 74.5453 115.999 74.7736 116.154 74.9873C116.308 75.2011 116.551 75.3952 116.865 75.5566C117.191 75.7549 117.597 75.9141 118.056 76.023C118.515 76.1319 119.015 76.1879 119.521 76.187C120.433 76.1861 121.315 76.0185 122.008 75.7144C122.701 75.4103 123.159 74.9897 123.3 74.5281L123.624 73.483C121.735 73.2065 116.574 72.9742 116.433 72.9023Z" fill="#FF9A6C"/>
<path d="M122.206 74.9374C122.206 74.9374 121.941 74.9374 121.503 74.9591C120.888 74.9889 120.262 74.9889 119.647 74.9591C118.759 74.9153 117.957 74.7682 117.4 74.547C116.736 74.2704 116.42 73.9269 116.512 73.5819C116.539 73.3878 116.7 73.1978 116.985 73.0252L116.708 73.065C118.679 73.159 120.408 73.2349 121.63 73.2783C122.287 73.3168 122.956 73.3326 123.624 73.3253C123.001 73.2494 122.351 73.1984 121.688 73.1734C120.466 73.1012 118.76 73.0036 116.789 72.9023H116.604L116.524 72.9529C116.082 73.2215 115.894 73.5241 115.981 73.8251C116.069 74.126 116.429 74.4129 117.019 74.6519C117.666 74.8966 118.593 75.0522 119.601 75.0856C120.256 75.1037 120.916 75.0841 121.549 75.0278C121.786 75.0128 122.01 74.982 122.206 74.9374Z" fill="#263238"/>
<path d="M70.2383 110.185C69.5158 110.185 56.145 113.665 53.43 123.782C50.7149 133.898 43.3032 171.015 43.3032 171.015L35.4316 181.92C35.4316 181.92 37.9825 201.814 52.4447 198.026C52.4447 198.026 62.1007 199.712 65.177 189.924C68.2534 180.136 74.22 150.935 74.22 150.935L70.2383 110.185Z" fill="#B9B8B6"/>
<path d="M91.6408 91.7075V101.588L66.9773 110.989L74.0365 187.673L71.4277 227.813C94.199 241.106 154.443 238.547 158.17 236.805C160.11 236.746 160.457 232.372 160.775 229.528C161.049 226.975 160.841 224.39 160.161 221.926L156.073 206.556C156.676 216.121 154.001 149.495 153.881 147.063L159.855 112.786L143.023 103.727V95.9243L114.781 103.727L91.6408 91.7075Z" fill="#B9B8B6"/>
<path d="M158.935 112.826C158.935 112.826 165.176 116.453 166.128 120.279C167.08 124.106 187.824 168.189 187.824 168.189L198.129 170.916L200.885 176.524C202.494 179.739 202.927 183.401 202.111 186.893C201.296 190.385 199.28 193.495 196.404 195.701C196.046 195.968 195.672 196.214 195.284 196.437C189.684 199.736 179.715 199.56 173.879 192.809C168.357 186.409 152.194 163.406 152.194 163.406V135.256L158.935 112.826Z" fill="#B9B8B6"/>
<path d="M188.33 167.708C188.33 167.85 187.092 167.708 185.275 168.321C182.927 169.133 180.847 170.576 179.265 172.492C177.701 174.45 176.412 176.612 175.433 178.919C175.064 179.908 174.606 180.861 174.064 181.766C174.21 180.715 174.505 179.69 174.94 178.722C175.801 176.287 177.071 174.017 178.695 172.01C180.357 169.982 182.606 168.517 185.133 167.817C186.166 167.476 187.275 167.438 188.33 167.708Z" fill="#263238"/>
<path d="M140.998 104.998C140.225 106.054 139.367 107.032 138.434 107.919C136.806 109.664 134.577 112.104 132.221 114.886C131.724 115.481 131.227 116.062 130.765 116.631L130.454 116.998L130.165 116.606C128.34 114.077 126.758 111.75 125.649 110.094C124.998 109.252 124.444 108.326 123.998 107.337C124.764 108.055 125.454 108.865 126.054 109.753C127.266 111.321 128.929 113.546 130.777 116.075H130.188L131.632 114.317C133.661 111.916 135.805 109.632 138.053 107.476C138.939 106.522 139.928 105.69 140.998 104.998Z" fill="#263238"/>
<path d="M68.7232 128.488C68.9244 128.972 69.0606 129.48 69.1282 129.999C69.3362 130.985 69.599 132.419 69.8836 134.193C70.4529 137.74 71.0551 142.667 71.5587 148.12C72.0623 153.572 72.4345 158.521 72.7191 162.101C72.8286 163.766 72.9381 165.178 73.0147 166.339C73.0834 166.858 73.0834 167.385 73.0147 167.904C72.8586 167.406 72.7558 166.892 72.7082 166.372C72.5549 165.375 72.3688 163.93 72.1717 162.145C71.7557 158.587 71.2959 153.649 70.7923 148.196C70.2887 142.744 69.7961 137.828 69.3691 134.324C69.1611 132.671 68.9859 131.258 68.8436 130.109C68.7304 129.576 68.6899 129.031 68.7232 128.488Z" fill="#263238"/>
<path d="M154.38 126.005C154.537 126.626 154.628 127.26 154.654 127.9C154.774 129.137 154.906 130.91 155.015 133.122C155.267 137.502 155.387 143.633 155.409 150.356V172.812C155.445 173.452 155.419 174.093 155.333 174.728C155.191 174.103 155.121 173.464 155.125 172.823C155.037 171.586 154.95 169.801 154.884 167.6C154.731 163.221 154.676 157.089 154.665 150.367C154.654 143.644 154.599 137.546 154.49 133.144C154.435 131.053 154.391 129.301 154.358 127.921C154.306 127.283 154.314 126.642 154.38 126.005Z" fill="#263238"/>
<path d="M57.6139 189.181C57.2714 187.938 57.0189 186.672 56.8585 185.393C56.3455 182.338 55.3554 179.382 53.9245 176.634C52.4643 173.94 50.2701 171.715 47.5966 170.218C46.447 169.669 45.2576 169.208 44.0386 168.838C44.3993 168.76 44.7727 168.76 45.1334 168.838C46.0818 168.996 47.0033 169.287 47.8703 169.703C50.747 171.138 53.1045 173.434 54.6142 176.273C56.063 179.092 56.9832 182.154 57.3293 185.305C57.5869 186.58 57.6826 187.882 57.6139 189.181Z" fill="#263238"/>
<path d="M61.1267 174.387C60.9735 174.562 58.7948 172.318 55.2477 171.103C51.7006 169.887 48.679 170.303 48.6133 170.073C48.5476 169.843 51.7553 169.099 55.4886 170.402C59.2218 171.705 61.2909 174.3 61.1267 174.387Z" fill="#263238"/>
<path d="M116.684 225.267C116.618 224.862 116.589 224.452 116.597 224.041C116.597 223.176 116.597 222.005 116.52 220.537C116.455 217.417 116.367 213.026 116.258 207.629C116.006 196.68 115.655 181.647 115.261 165.048C114.867 148.45 114.659 133.351 114.681 122.446C114.681 116.972 114.736 112.592 114.801 109.526C114.801 108.059 114.878 106.888 114.911 106.023C114.902 105.612 114.931 105.202 114.998 104.796C115.029 105.205 115.029 105.614 114.998 106.023C114.998 106.888 114.998 108.059 114.998 109.526C114.998 112.647 115.064 117.048 115.108 122.435C115.217 133.384 115.535 148.395 115.907 165.026C116.279 181.658 116.608 196.713 116.695 207.618C116.695 213.092 116.695 217.472 116.695 220.537C116.695 222.005 116.695 223.176 116.641 224.041C116.683 224.448 116.698 224.858 116.684 225.267Z" fill="#263238"/>
<path d="M47.4729 173.193C47.4729 173.106 48.5677 173.927 49.4435 175.744C49.9803 176.78 50.3708 177.886 50.604 179.029C50.8289 180.48 50.8289 181.957 50.604 183.409C50.4406 184.862 50.01 186.272 49.334 187.569C48.7488 188.621 47.9419 189.532 46.9693 190.241C46.114 190.95 45.0371 191.338 43.9258 191.336C44.8879 190.938 45.7993 190.427 46.6409 189.814C47.5043 189.106 48.2155 188.231 48.7319 187.241C49.3177 186.002 49.688 184.673 49.8267 183.31C50.0237 181.945 50.0237 180.559 49.8267 179.193C49.6386 178.065 49.3189 176.963 48.8742 175.909C48.1955 174.168 47.3634 173.259 47.4729 173.193Z" fill="#263238"/>
<path d="M196.992 191.684C196.992 191.684 196.641 191.684 196.083 191.41C195.299 191.064 194.563 190.619 193.893 190.085C191.599 188.318 190.03 185.773 189.482 182.93C188.933 180.087 189.443 177.141 190.915 174.647C191.345 173.898 191.867 173.206 192.47 172.589C192.897 172.173 193.171 171.976 193.204 172.008C193.236 172.041 192.328 173.027 191.375 174.899C190.102 177.321 189.691 180.104 190.21 182.791C190.73 185.478 192.148 187.907 194.233 189.68C195.798 191.06 197.046 191.563 196.992 191.684Z" fill="#263238"/>
<path d="M114.169 103.29C113.732 104.748 113.179 106.169 112.516 107.539C112.22 108.196 111.914 108.907 111.596 109.641C111.282 110.477 110.916 111.292 110.501 112.082C110.343 112.342 110.113 112.551 109.839 112.683C109.566 112.815 109.259 112.865 108.958 112.827C108.427 112.687 107.934 112.433 107.512 112.082L104.929 110.32C101.404 107.889 98.2396 105.644 95.9625 104.002C94.6893 103.17 93.4881 102.232 92.3716 101.199C93.7279 101.883 95.0275 102.674 96.2581 103.564C98.6119 105.108 101.831 107.265 105.356 109.707L107.929 111.48C108.264 111.771 108.655 111.991 109.078 112.126C109.251 112.147 109.425 112.115 109.58 112.035C109.734 111.955 109.861 111.83 109.943 111.677C110.775 110.166 111.465 108.535 112.133 107.298C112.699 105.908 113.38 104.567 114.169 103.29Z" fill="#263238"/>
<path d="M142.151 101.238C142.151 101.238 152.849 75.6775 152.997 64.5307C153.146 53.384 143.851 45.1188 143.851 45.1188C142.405 38.0474 140.357 31.1167 137.729 24.4048C133.652 14.3793 121.337 -1.04771 117.896 0.0615457C114.455 1.1708 112.874 3.07581 112.856 12.1186C112.839 21.1614 111.727 26.3821 111.727 26.3821C111.727 26.3821 103.627 28.1907 101.029 31.1447C101.029 31.1447 99.1928 30.9759 96.9166 28.9624C94.6403 26.9488 78.4924 12.6371 73.8626 16.0372C69.2328 19.4373 70.8078 35.7023 74.4094 42.6471C78.011 49.592 83.9186 58.5384 84.1148 59.3643C84.3109 60.1902 81.9039 70.5532 83.2292 75.8885C84.5546 81.2237 88.3642 87.9456 94.771 92.9794C101.178 98.0132 120.327 109.98 129.456 107.725C138.585 105.471 142.151 101.238 142.151 101.238Z" fill="#C7A302"/>
<path d="M141.833 99.3638C141.833 99.3638 152.484 74.2762 152.632 63.3358C152.779 52.3955 143.525 44.2834 143.525 44.2834C142.086 37.3429 140.047 30.5406 137.431 23.9529C133.372 14.1131 121.112 -1.02821 117.686 0.0604964C114.26 1.14921 112.687 3.01895 112.669 11.8943C112.651 20.7696 111.545 25.8937 111.545 25.8937C111.545 25.8937 103.48 27.6687 100.894 30.568C100.894 30.568 99.0659 30.4024 96.7997 28.4261C94.5335 26.4499 78.4573 12.4031 73.8481 15.7403C69.2388 19.0774 70.8068 35.0412 74.3924 41.8575C77.978 48.6737 83.8594 57.4544 84.0547 58.265C84.25 59.0756 81.8536 69.2468 83.1731 74.4832C84.4925 79.7197 88.2853 86.317 94.6637 91.2577C91.582 92.4851 113.97 105.533 129.195 105.73C138.283 103.517 141.833 99.3638 141.833 99.3638Z" fill="white"/>
<path d="M74.4059 41.8768C70.8203 35.0605 69.276 19.0967 73.8616 15.7596C78.4472 12.4224 94.5411 26.4455 96.8132 28.4454C99.0853 30.4453 100.908 30.5873 100.908 30.5873C101.186 30.2803 101.496 30.0027 101.831 29.759C104.568 31.7777 107.012 34.1674 109.091 36.8592C111.796 40.3376 113.508 44.4846 114.043 48.8587C114.244 50.8172 114.138 52.894 113.15 54.604C111.919 56.7282 109.546 57.9175 107.197 58.6216C99.0498 61.0712 83.5771 55.0714 87.8432 73.9227C87.8432 73.9227 91.1803 82.5554 94.2867 87.9043C95.0855 89.2829 95.6003 92.3065 96.0618 93.8212C95.5293 93.4366 92.8016 94.2295 92.3756 93.8981C85.9912 88.9694 76.8851 82.8454 78.6069 77.7272C81.3583 69.5501 84.299 59.0772 84.0801 58.2725C83.8611 57.4678 77.9916 48.6871 74.4059 41.8768Z" fill="#C7A302"/>
<path d="M74.9307 18.859C76.0253 18.1194 77.4986 18.5099 78.7057 19.0425C85.2688 22.0255 90.8736 26.774 94.8943 32.7578C94.8288 39.029 92.9484 45.1471 89.4803 50.3724C88.9419 51.1771 88.1668 52.0528 87.2082 51.9227C86.8648 51.8269 86.5438 51.6641 86.2635 51.4438C85.9832 51.2234 85.7493 50.9498 85.5752 50.6387C79.5518 42.4793 74.9543 33.0359 73.8242 22.9535C73.6585 21.4743 73.7 19.6933 74.9307 18.859Z" fill="white"/>
<path d="M122.111 45.1431C119.43 41.5575 116.987 37.7884 114.052 34.4099C111.782 31.6976 109.057 29.4011 105.999 27.6232C107.809 26.9363 109.663 26.371 111.549 25.931C111.549 25.931 112.655 20.8424 112.673 11.9316C112.691 3.02074 114.271 1.16284 117.691 0.0977951C121.111 -0.967247 133.376 14.1504 137.435 23.9902C139.703 29.6697 141.531 35.515 142.903 41.4747L142.79 41.5279C140.27 43.303 138.276 45.7171 135.814 47.5632C133.353 49.4092 130.116 50.6873 127.211 49.6696C125.045 48.8649 123.489 46.9833 122.111 45.1431Z" fill="#C7A302"/>
<path d="M121.655 56.6228C123.048 55.5928 124.612 54.8176 126.276 54.333C127.293 53.9957 128.536 53.7768 129.335 54.4927C129.633 54.8061 129.833 55.2002 129.91 55.6261C129.987 56.0521 129.937 56.4912 129.767 56.8891C129.413 57.6808 128.883 58.381 128.216 58.9363C127.588 59.6112 126.804 60.1212 125.933 60.4215C124.465 60.8238 123.731 60.5516 122.382 59.8653C121.758 59.5521 121.181 59.1538 120.667 58.6819C120.294 58.321 120.241 57.3624 121.655 56.6228Z" fill="#263238"/>
<path d="M114.045 64.1219C116.453 65.9857 117.098 68.6365 117.85 71.589C118.601 74.5415 119.128 77.6302 120.761 80.1981C122.394 82.766 125.536 84.7009 128.453 83.8311C129.241 83.5672 129.969 83.1501 130.596 82.6038C131.222 82.0575 131.735 81.3928 132.103 80.6478C132.831 79.1502 133.213 77.5083 133.222 75.8433C133.319 73.2918 132.863 70.7495 131.884 68.3912C130.906 66.0328 129.428 63.9142 127.553 62.1812C126.721 62.3075 125.912 62.5546 125.151 62.9148C124.477 63.3645 120.678 65.6248 117.915 64.9503C115.152 64.2757 114.045 64.1219 114.045 64.1219Z" fill="#A84F42"/>
<path d="M115.349 64.0111C117.757 65.8749 118.402 68.5256 119.154 71.4782C119.905 74.4307 120.432 77.5193 122.065 80.0873C123.698 82.6552 126.84 84.59 129.757 83.7202C130.545 83.4564 131.274 83.0393 131.9 82.493C132.527 81.9467 133.039 81.2819 133.408 80.537C134.135 79.0394 134.518 77.3975 134.526 75.7324C134.623 73.181 134.167 70.6387 133.189 68.2803C132.21 65.9219 130.733 63.8034 128.858 62.0703C128.025 62.1966 127.216 62.4438 126.455 62.804C125.781 63.2537 121.982 65.5139 119.219 64.8394C116.456 64.1649 115.349 64.0111 115.349 64.0111Z" fill="#FF8B7B"/>
<path d="M127.895 73.7414C127.981 73.2223 127.981 72.6925 127.895 72.1734C127.758 70.9099 127.422 69.6758 126.901 68.5168C126.388 67.3524 125.697 66.2746 124.854 65.3216C124.519 64.912 124.119 64.5601 123.67 64.2803C123.635 64.3217 124.079 64.724 124.682 65.4637C125.459 66.4352 126.108 67.5032 126.611 68.641C127.12 69.7722 127.476 70.9661 127.67 72.1912C127.854 73.1438 127.854 73.7414 127.895 73.7414Z" fill="#263238"/>
<path d="M111.037 61.2827C111.083 61.3885 111.143 61.4879 111.215 61.5785C111.401 61.8467 111.618 62.0928 111.86 62.3122C112.778 63.107 113.858 63.6925 115.025 64.0281C115.817 64.2781 116.621 64.4874 117.433 64.6553C118.361 64.8968 119.315 65.022 120.274 65.0281C122.493 65.0147 124.653 64.3025 126.445 62.9927C126.887 62.6624 127.39 62.4212 127.924 62.2827C128.445 62.1762 129.007 62.2827 129.575 62.1702C130.112 62.072 130.622 61.8575 131.067 61.5417C131.513 61.2258 131.884 60.8163 132.155 60.3419C132.674 59.512 132.947 58.5517 132.942 57.5728C132.932 56.7273 132.747 55.8931 132.397 55.1232C131.899 54.0095 131.099 53.0568 130.09 52.3719C129.814 52.1915 129.523 52.0351 129.22 51.9044C129.117 51.8566 129.01 51.8189 128.9 51.792C128.9 51.792 129.332 51.9873 130.019 52.4724C130.976 53.1726 131.728 54.1166 132.196 55.206C132.516 55.9543 132.683 56.759 132.687 57.5728C132.678 58.5008 132.412 59.4081 131.918 60.194C131.667 60.6272 131.325 61.0015 130.917 61.2914C130.509 61.5813 130.043 61.7801 129.551 61.8744C129.042 61.9631 128.48 61.8744 127.889 61.9809C127.314 62.1283 126.774 62.3855 126.297 62.7383C124.554 64.0132 122.457 64.7142 120.297 64.7441C119.358 64.7445 118.422 64.6313 117.51 64.4068C116.641 64.2234 115.83 64.04 115.114 63.8151C113.966 63.5087 112.894 62.9666 111.966 62.2235C111.639 61.9274 111.329 61.6133 111.037 61.2827Z" fill="#263238"/>
<path d="M127.228 62.3874C127.61 61.9471 127.811 61.3783 127.79 60.7957C127.854 60.2148 127.7 59.631 127.358 59.1567C127.264 59.1922 127.518 59.8964 127.483 60.778C127.447 61.6596 127.139 62.3459 127.228 62.3874Z" fill="#263238"/>
<path d="M104.075 41.2747C105.449 40.982 106.875 41.0472 108.217 41.464C108.467 41.5188 108.702 41.6271 108.906 41.7813C109.11 41.9355 109.279 42.132 109.4 42.3575C109.678 43.0971 108.998 43.8426 108.335 44.2746C107.069 45.0885 105.622 45.5801 104.122 45.7064C103.591 45.7723 103.051 45.73 102.536 45.5822C102.28 45.5074 102.043 45.3797 101.839 45.2075C101.635 45.0353 101.47 44.8223 101.353 44.5822C101.223 44.1979 101.21 43.7838 101.315 43.392C101.421 43.0003 101.64 42.6485 101.945 42.3811C102.56 41.8493 103.277 41.4468 104.051 41.1978" fill="white"/>
<path d="M138.617 38.6998C132.912 34.1595 126.744 30.2327 120.216 26.9843C119.255 26.5837 118.381 26.001 117.642 25.2684C116.79 24.2921 116.494 22.9727 116.228 21.7183C115.24 17.0498 114.252 12.1625 115.53 7.56506C115.979 5.94975 117.003 4.1806 118.677 4.05634C119.737 3.97351 120.707 4.58886 121.553 5.23972C127.582 9.86674 131.127 16.9433 134.476 23.7714C136.73 28.3748 139.032 33.1438 139.28 38.2678" fill="white"/>
<path d="M124.014 34.9544C125.388 34.6603 126.815 34.7255 128.156 35.1437C128.412 35.1946 128.653 35.301 128.862 35.4554C129.072 35.6098 129.245 35.8084 129.369 36.0372C129.653 36.7768 128.973 37.5223 128.31 37.9542C127.043 38.7673 125.597 39.2588 124.097 39.3861C123.566 39.4519 123.026 39.4097 122.512 39.2619C122.256 39.1864 122.018 39.0585 121.815 38.8863C121.611 38.7142 121.445 38.5015 121.328 38.2619C121.2 37.8774 121.188 37.4637 121.293 37.0723C121.398 36.6809 121.616 36.3292 121.92 36.0608C122.535 35.5277 123.251 35.1251 124.026 34.8774" fill="white"/>
<path d="M122.81 13.5093C122.768 13.5507 123.508 14.3081 124.467 15.7104C125.026 16.5288 125.524 17.3871 125.958 18.2783C127.025 20.4697 127.692 22.8341 127.928 25.2602C128.022 26.2435 128.045 27.2321 127.999 28.2187C127.91 29.9109 127.679 30.9464 127.739 30.9582C127.83 30.7254 127.895 30.4833 127.934 30.2364C128 29.9533 128.052 29.6669 128.088 29.3784C128.129 29.0411 128.2 28.6565 128.218 28.2305C128.3 27.2283 128.3 26.221 128.218 25.2188C128.008 22.7589 127.327 20.3624 126.212 18.16C125.761 17.2624 125.236 16.4035 124.644 15.592C124.401 15.237 124.147 14.9412 123.934 14.6808C123.749 14.4531 123.551 14.2359 123.342 14.03C123.185 13.8373 123.006 13.6627 122.81 13.5093Z" fill="#263238"/>
<path d="M105.489 51.4959C105.499 52.025 105.667 52.539 105.969 52.9729C106.272 53.4067 106.697 53.741 107.19 53.9334C107.683 54.1258 108.222 54.1677 108.739 54.0536C109.255 53.9396 109.727 53.6749 110.093 53.2929C110.459 52.911 110.704 52.429 110.796 51.9079C110.888 51.3868 110.824 50.8501 110.611 50.3657C110.398 49.8813 110.046 49.4709 109.6 49.1866C109.153 48.9022 108.633 48.7566 108.104 48.7682C107.753 48.7751 107.407 48.8512 107.085 48.9921C106.764 49.1331 106.473 49.336 106.23 49.5894C105.987 49.8428 105.797 50.1416 105.669 50.4688C105.542 50.7959 105.481 51.145 105.489 51.4959Z" fill="#263238"/>
<path d="M125.846 44.3919C125.856 44.921 126.024 45.435 126.327 45.8688C126.63 46.3027 127.054 46.637 127.547 46.8294C128.04 47.0218 128.579 47.0636 129.096 46.9496C129.613 46.8356 130.084 46.5709 130.45 46.1889C130.816 45.807 131.061 45.325 131.153 44.8039C131.245 44.2828 131.181 43.7461 130.968 43.2617C130.755 42.7773 130.403 42.3669 129.957 42.0826C129.511 41.7982 128.99 41.6526 128.461 41.6642C127.753 41.6797 127.079 41.9757 126.589 42.4871C126.099 42.9985 125.831 43.6836 125.846 44.3919Z" fill="#263238"/>
<path d="M75.4764 23.3525C75.5526 23.4455 75.6356 23.5325 75.7249 23.6129L76.4646 24.3229C77.1095 24.9146 78.0325 25.8376 79.1272 26.9974C81.99 30.0314 84.5429 33.3435 86.7481 36.8845L86.9197 37.1626L87.0262 36.8549C87.0736 36.707 87.1327 36.5472 87.186 36.3875C87.7007 34.9201 88.1919 33.4941 88.6593 32.1569H88.3812C89.7434 35.1235 90.5151 38.3269 90.6533 41.5884C90.6933 42.539 90.6814 43.4911 90.6178 44.4404C90.5801 44.7822 90.5623 45.126 90.5645 45.4699C90.5951 45.3862 90.613 45.2985 90.6178 45.2096C90.6178 45.038 90.6888 44.7835 90.7243 44.4522C90.8236 43.499 90.8632 42.5406 90.8426 41.5825C90.7675 38.2838 90.0227 35.0347 88.6534 32.0326L88.4995 31.6954L88.3753 32.0445L86.8961 36.275L86.7363 36.7425L87.0085 36.7129C84.7962 33.1522 82.2053 29.8412 79.281 26.8376C78.1627 25.6956 77.216 24.814 76.5474 24.2223C76.2161 23.9265 75.9557 23.7076 75.7664 23.5537C75.6787 23.4746 75.5813 23.407 75.4764 23.3525Z" fill="#263238"/>
<path d="M205.593 162.35C186.462 170.123 185.302 201.29 212.067 185.761C216.026 182.815 220.45 180.428 223.927 176.926C224.564 179.395 227.645 180.708 230.059 179.895C232.473 179.082 234.083 176.61 234.394 174.077C234.585 171.513 233.998 168.951 232.709 166.726C230.713 162.903 227.3 159.532 223.055 158.621C219.163 157.783 209.362 161.047 205.593 162.35Z" fill="#C7A302"/>
<path d="M224.492 173.199C224.542 173.17 225.017 173.505 225.896 173.9C227.029 174.416 228.258 174.688 229.503 174.697C230.748 174.706 231.981 174.453 233.121 173.953C234.007 173.575 234.499 173.223 234.532 173.278C234.171 173.671 233.73 173.982 233.239 174.192C232.081 174.777 230.8 175.077 229.502 175.068C228.204 175.058 226.928 174.739 225.778 174.137C225.29 173.916 224.852 173.597 224.492 173.199Z" fill="#263238"/>
<path d="M222.063 168.394C222.106 168.368 222.663 168.629 223.664 168.893C224.96 169.231 226.311 169.298 227.634 169.091C228.953 168.866 230.21 168.37 231.327 167.633C232.192 167.066 232.644 166.605 232.689 166.653C232.372 167.13 231.961 167.537 231.481 167.85C230.369 168.68 229.073 169.23 227.704 169.455C226.335 169.68 224.931 169.572 223.612 169.141C223.049 169.003 222.521 168.749 222.063 168.394Z" fill="#263238"/>
<path d="M33.0129 160.932C54.2832 169.574 55.573 204.227 25.8156 186.961C21.4142 183.686 16.4945 181.031 12.6292 177.138C11.921 179.883 8.49587 181.343 5.81141 180.439C3.12695 179.535 1.33781 176.787 0.992124 173.97C0.779172 171.12 1.43196 168.271 2.86499 165.798C5.08381 161.547 8.87897 157.799 13.5984 156.786C17.9254 155.855 28.8231 159.483 33.0129 160.932Z" fill="#C7A302"/>
<path d="M12.0067 172.992C11.9519 172.96 11.4234 173.332 10.4462 173.771C9.18667 174.346 7.82006 174.648 6.43573 174.658C5.05141 174.668 3.68051 174.386 2.41269 173.83C1.42769 173.41 0.880652 173.019 0.843875 173.08C1.24592 173.517 1.73613 173.863 2.28205 174.096C3.56973 174.747 4.99415 175.081 6.43687 175.07C7.8796 175.059 9.29895 174.704 10.5769 174.035C11.1203 173.79 11.6071 173.435 12.0067 172.992Z" fill="#263238"/>
<path d="M14.715 167.651C14.667 167.622 14.048 167.912 12.9349 168.206C11.4944 168.582 9.99189 168.656 8.52116 168.426C7.05494 168.176 5.65677 167.624 4.41574 166.804C3.45343 166.175 2.9512 165.662 2.90072 165.715C3.25372 166.245 3.71073 166.698 4.24399 167.046C5.48062 167.968 6.92088 168.58 8.44347 168.83C9.96606 169.08 11.5264 168.961 12.9931 168.482C13.619 168.328 14.2057 168.045 14.715 167.651Z" fill="#263238"/>
</svg>
